<?xml version="1.0" standalone="no"?>
<!DOCTYPE svg PUBLIC "-//W3C//DTD SVG 20010904//EN"
 "http://www.w3.org/TR/2001/REC-SVG-20010904/DTD/svg10.dtd">
<svg version="1.0" xmlns="http://www.w3.org/2000/svg"
 width="512.000000pt" height="512.000000pt" viewBox="0 0 512.000000 512.000000"
 preserveAspectRatio="xMidYMid meet">

<g transform="translate(0.000000,512.000000) scale(0.100000,-0.100000)"
fill="#000000" stroke="none">
<path d="M4585 5108 c-11 -6 -119 -98 -240 -203 -121 -105 -226 -194 -232
-199 -7 -4 -23 0 -35 8 -28 20 -61 20 -98 1 -36 -19 -50 -43 -50 -90 0 -29 9
-45 47 -86 l47 -50 -69 -69 -69 -70 -41 39 c-52 52 -87 65 -132 50 -42 -13
-65 -47 -65 -95 0 -30 8 -45 48 -85 l49 -49 -352 -352 -351 -351 -75 32 c-123
51 -226 72 -382 78 -195 7 -293 -13 -528 -110 -27 -11 -35 -4 -630 590 -393
393 -611 604 -629 608 -35 9 -92 -19 -107 -51 -29 -64 -21 -77 144 -244 l155
-156 -125 -124 c-140 -139 -162 -173 -146 -223 8 -22 150 -171 451 -472 394
-393 442 -445 456 -489 39 -116 -28 -266 -141 -316 -67 -30 -121 -32 -285 -11
-199 27 -343 27 -442 2 -342 -88 -639 -452 -735 -902 -26 -125 -24 -379 5
-516 38 -177 106 -343 201 -493 l39 -63 -129 -161 c-71 -88 -132 -171 -135
-183 -12 -46 8 -79 114 -185 106 -106 139 -126 185 -114 12 3 94 64 183 135
l161 129 74 -46 c157 -96 328 -163 505 -199 123 -24 377 -24 494 0 448 93 820
401 904 748 22 92 20 254 -5 446 -28 204 -21 250 47 323 77 82 176 115 271 90
45 -12 91 -56 678 -641 594 -593 633 -629 665 -629 47 1 71 16 118 75 134 170
157 392 61 593 -30 61 -76 110 -496 532 -255 256 -463 470 -463 475 0 5 16 45
35 90 62 145 79 238 80 425 0 182 -17 271 -77 419 l-31 73 351 351 352 352 49
-49 c40 -40 55 -48 85 -48 48 0 82 23 95 65 15 45 2 80 -50 132 l-39 41 70 69
69 69 50 -47 c41 -38 57 -47 86 -47 47 0 71 14 90 50 19 37 19 71 0 96 -8 10
-15 22 -15 26 0 3 92 113 205 243 113 129 208 247 211 260 3 14 3 37 -1 53 -7
30 -391 424 -437 448 -32 17 -66 18 -93 2z m288 -492 c-14 -22 -315 -366 -321
-366 -9 0 -302 293 -302 302 0 3 84 79 187 168 l186 161 128 -127 c70 -70 125
-132 122 -138z m-613 -361 l85 -85 -140 -140 -140 -140 -87 87 -88 88 137 137
c76 76 140 138 143 138 3 0 44 -38 90 -85z m-2480 -960 c-46 -47 -89 -85 -95
-85 -5 0 -172 162 -370 360 l-360 360 90 90 90 90 365 -365 365 -365 -85 -85z
m1345 -345 l-795 -795 -87 88 -88 87 795 795 795 795 87 -87 88 -88 -795 -795z
m-429 459 c32 -5 90 -20 127 -32 l68 -21 -480 -481 c-264 -264 -485 -493 -490
-508 -6 -16 -8 -40 -5 -55 9 -37 348 -378 390 -392 22 -7 40 -7 60 0 16 6 238
220 509 491 l481 480 21 -68 c36 -111 46 -197 40 -323 -12 -235 -99 -419 -285
-604 l-90 -88 -64 16 c-35 9 -80 16 -100 16 -167 0 -354 -113 -428 -259 -53
-107 -59 -207 -23 -431 18 -114 20 -267 4 -334 -50 -211 -280 -433 -558 -540
-298 -115 -623 -96 -931 54 -67 33 -122 64 -122 68 0 5 48 47 108 94 154 123
172 149 151 207 -15 39 -348 369 -385 381 -58 19 -81 1 -218 -173 -38 -48 -73
-87 -77 -87 -15 0 -128 242 -149 320 -95 345 -48 670 137 948 106 160 249 282
387 330 86 30 225 33 376 9 222 -36 312 -31 425 21 161 76 281 288 261 462 -4
30 -12 72 -18 93 l-11 38 84 85 c94 96 177 159 265 203 70 34 174 69 241 81
71 12 231 11 299 -1z m1126 -1986 c498 -500 492 -491 493 -638 0 -55 -6 -95
-19 -129 l-19 -48 -533 533 c-294 294 -534 538 -534 544 0 10 160 175 170 175
3 0 202 -197 442 -437z m-3064 -666 c39 -40 72 -76 72 -80 0 -4 -122 -104
-271 -224 -281 -225 -284 -226 -313 -181 -8 13 34 71 207 287 120 149 221 271
225 271 4 0 40 -33 80 -73z"/>
<path d="M1025 2046 c-76 -35 -142 -93 -272 -236 -108 -120 -122 -132 -171
-146 -67 -20 -87 -48 -83 -120 1 -30 46 -71 85 -78 41 -8 102 12 158 50 23 16
93 86 156 157 141 156 193 197 251 197 23 0 54 6 70 14 66 35 66 137 0 172
-44 22 -136 18 -194 -10z"/>
<path d="M1577 2035 c-29 -30 -36 -58 -25 -100 10 -41 342 -372 383 -383 69
-18 125 23 125 92 0 39 -5 46 -188 228 -182 183 -189 188 -228 188 -31 0 -48
-6 -67 -25z"/>
<path d="M1921 1256 c-33 -18 -50 -53 -51 -102 0 -62 -42 -117 -187 -247 -136
-121 -192 -187 -212 -249 -27 -82 18 -158 93 -158 57 0 82 21 100 84 14 49 25
62 122 147 211 186 284 288 284 400 0 70 -15 106 -51 125 -34 17 -67 17 -98 0z"/>
</g>
</svg>
