<?xml version="1.0" standalone="no"?>
<!DOCTYPE svg PUBLIC "-//W3C//DTD SVG 20010904//EN"
 "http://www.w3.org/TR/2001/REC-SVG-20010904/DTD/svg10.dtd">
<svg version="1.0" xmlns="http://www.w3.org/2000/svg"
 width="512.000000pt" height="512.000000pt" viewBox="0 0 512.000000 512.000000"
 preserveAspectRatio="xMidYMid meet">

<g transform="translate(0.000000,512.000000) scale(0.100000,-0.100000)"
fill="#000000" stroke="none">
<path d="M2384 5104 c-247 -41 -491 -190 -646 -394 -66 -86 -152 -264 -180
-370 -22 -83 -22 -98 -25 -797 l-4 -713 -124 0 -125 0 0 326 c0 204 -4 332
-10 345 -13 24 -61 49 -94 49 -14 0 -40 -13 -58 -29 l-33 -29 0 -499 c0 -444
2 -509 19 -598 41 -219 144 -457 270 -626 83 -110 250 -269 356 -340 109 -73
248 -142 358 -179 102 -34 273 -70 331 -70 l41 0 0 -210 0 -210 -358 0 c-291
0 -369 -3 -417 -15 -111 -29 -204 -108 -254 -214 -25 -53 -26 -65 -29 -249 -4
-213 1 -243 49 -267 42 -22 2176 -22 2218 0 48 24 53 54 49 267 l-3 193 -33
67 c-40 82 -119 157 -200 190 -56 22 -67 23 -439 26 l-383 3 0 210 0 209 40 0
c61 0 227 35 329 69 116 39 251 106 361 179 106 72 273 231 356 342 80 105
195 334 229 455 58 203 60 228 60 768 l0 499 -33 29 c-18 16 -44 29 -58 29
-33 0 -81 -25 -94 -49 -6 -13 -10 -141 -10 -345 l0 -326 -125 0 -125 0 0 674
c0 547 -3 689 -15 757 -98 563 -628 938 -1191 843z m381 -210 c208 -56 388
-188 498 -366 53 -85 103 -211 113 -287 l7 -51 -252 0 c-166 0 -260 -4 -274
-11 -63 -32 -77 -111 -28 -160 l29 -29 266 0 266 0 0 -160 0 -160 -156 0 c-95
0 -164 -4 -177 -11 -60 -31 -76 -106 -33 -156 l24 -28 171 -3 171 -3 0 -160 0
-159 -239 0 -239 0 -26 55 c-36 72 -99 135 -171 171 -54 26 -70 29 -155 29
-84 0 -102 -3 -152 -28 -75 -37 -138 -99 -172 -170 l-28 -57 -239 0 -239 0 0
159 0 160 171 3 171 3 24 28 c43 50 27 125 -33 156 -13 7 -82 11 -177 11
l-156 0 0 160 0 160 266 0 266 0 29 29 c33 33 38 75 15 120 -25 47 -47 51
-318 51 l-251 0 7 51 c10 76 60 202 113 287 124 200 331 338 571 382 68 13
267 3 337 -16z m-124 -1707 c52 -35 79 -82 79 -137 0 -55 -27 -102 -79 -137
-98 -66 -241 15 -241 137 0 87 73 160 160 160 32 0 58 -7 81 -23z m-406 -292
c34 -71 100 -136 173 -172 50 -25 68 -28 152 -28 85 0 101 3 155 29 72 36 135
99 171 171 l26 55 239 0 239 0 0 -189 c0 -251 -24 -373 -102 -510 -108 -193
-273 -327 -488 -397 -78 -25 -98 -28 -240 -28 -142 0 -162 3 -240 28 -273 89
-468 283 -556 556 -26 80 -28 98 -32 313 l-4 227 240 0 240 0 27 -55z m-705
-299 c0 -18 7 -73 15 -121 87 -495 514 -855 1015 -855 501 0 928 360 1015 855
8 48 15 103 15 121 l0 34 126 0 126 0 -6 -67 c-44 -441 -261 -792 -626 -1012
-195 -117 -404 -174 -645 -175 -342 -1 -630 113 -879 346 -235 219 -368 498
-402 841 l-6 67 126 0 126 0 0 -34z m1885 -2055 c82 -37 105 -90 105 -236 l0
-105 -960 0 -960 0 0 105 c0 146 23 199 105 236 38 18 85 19 855 19 770 0 817
-1 855 -19z"/>
</g>
</svg>
