<?xml version="1.0" standalone="no"?>
<!DOCTYPE svg PUBLIC "-//W3C//DTD SVG 20010904//EN"
 "http://www.w3.org/TR/2001/REC-SVG-20010904/DTD/svg10.dtd">
<svg version="1.0" xmlns="http://www.w3.org/2000/svg"
 width="512.000000pt" height="512.000000pt" viewBox="0 0 512.000000 512.000000"
 preserveAspectRatio="xMidYMid meet">

<g transform="translate(0.000000,512.000000) scale(0.100000,-0.100000)"
fill="#000000" stroke="none">
<path d="M3000 5114 c-19 -2 -77 -9 -129 -15 -326 -38 -676 -183 -956 -398
-85 -64 -256 -232 -328 -321 -180 -224 -311 -486 -382 -770 -46 -182 -58 -305
-52 -535 6 -230 27 -360 87 -549 76 -238 228 -509 377 -676 l42 -47 -44 -43
-44 -44 -60 57 c-53 51 -64 57 -103 57 l-43 0 -653 -653 c-739 -738 -707 -700
-706 -847 0 -67 5 -95 23 -131 36 -74 86 -125 158 -161 58 -28 77 -33 143 -33
146 0 118 -22 853 712 l647 648 0 43 c0 39 -6 50 -57 103 l-57 60 43 43 43 44
71 -59 c404 -339 978 -504 1514 -434 373 49 717 197 1006 433 94 77 257 247
330 345 440 585 519 1385 203 2042 -105 220 -221 382 -395 555 -302 300 -685
492 -1101 555 -104 15 -363 27 -430 19z m295 -204 c757 -72 1387 -609 1569
-1338 41 -165 51 -247 50 -447 0 -152 -5 -214 -23 -310 -137 -738 -706 -1304
-1449 -1441 -135 -24 -403 -30 -543 -10 -768 108 -1368 670 -1521 1427 -20
100 -23 142 -23 349 1 206 4 248 23 340 72 330 222 624 439 859 378 410 928
623 1478 571z m-1790 -3410 l90 -90 -585 -585 c-351 -351 -601 -593 -625 -606
-31 -17 -50 -20 -78 -15 -70 13 -120 92 -102 163 4 19 200 222 603 626 328
328 599 597 602 597 3 0 46 -41 95 -90z"/>
<path d="M2986 4599 c-689 -73 -1227 -597 -1317 -1284 -18 -136 -6 -375 24
-505 138 -582 579 -1006 1172 -1127 135 -27 424 -24 562 5 800 172 1306 931
1153 1727 -37 191 -107 362 -213 523 -253 383 -647 619 -1102 662 -123 11
-164 11 -279 -1z m377 -214 c444 -77 834 -414 977 -843 49 -149 63 -233 64
-397 1 -168 -12 -254 -56 -395 -174 -550 -696 -914 -1272 -887 -265 13 -501
96 -706 251 -323 243 -510 615 -510 1015 0 387 164 738 456 980 295 244 667
342 1047 276z"/>
</g>
</svg>
