<?xml version="1.0" standalone="no"?>
<!DOCTYPE svg PUBLIC "-//W3C//DTD SVG 20010904//EN"
 "http://www.w3.org/TR/2001/REC-SVG-20010904/DTD/svg10.dtd">
<svg version="1.0" xmlns="http://www.w3.org/2000/svg"
 width="512.000000pt" height="512.000000pt" viewBox="0 0 512.000000 512.000000"
 preserveAspectRatio="xMidYMid meet">

<g transform="translate(0.000000,512.000000) scale(0.100000,-0.100000)"
fill="#000000" stroke="none">
<path d="M2101 5104 c-13 -9 -29 -31 -36 -48 -7 -17 -259 -1141 -561 -2497
-512 -2302 -547 -2468 -535 -2498 28 -65 -82 -61 1591 -61 1673 0 1563 -4
1590 61 13 30 -6 120 -258 1258 -150 674 -272 1231 -272 1237 0 6 70 132 155
279 192 334 194 345 67 416 -31 18 -59 34 -61 35 -2 2 40 79 94 171 113 195
121 225 77 274 -26 29 -36 34 -72 33 -57 -2 -71 -18 -180 -209 -51 -88 -94
-161 -95 -163 -1 -2 -30 13 -63 33 -37 21 -74 35 -94 35 l-34 0 -173 783 c-96
430 -179 796 -186 813 -27 66 -14 64 -495 64 -386 0 -438 -2 -459 -16z m812
-311 c15 -71 30 -138 33 -150 l6 -23 -392 0 -392 0 6 23 c3 12 18 79 33 150
l28 127 325 0 325 0 28 -127z m-653 -1843 l0 -1470 -396 0 c-372 0 -395 1
-390 18 2 9 150 671 327 1470 l322 1452 69 0 68 0 0 -1470z m400 137 l0 -1332
-77 -135 c-60 -103 -83 -136 -100 -138 l-23 -3 0 1470 0 1471 100 0 100 0 0
-1333z m468 743 l131 -589 -105 -181 c-137 -237 -138 -256 -10 -330 31 -17 56
-34 56 -36 0 -5 -329 -576 -336 -583 -2 -2 -4 516 -4 1152 l0 1157 68 0 69 0
131 -590z m562 -732 c0 -12 -167 -306 -185 -326 -9 -10 -32 -1 -117 48 l-106
61 100 174 100 173 104 -60 c57 -33 104 -64 104 -70z m-169 -1038 c65 -289
120 -537 123 -552 l6 -28 -395 0 -395 0 0 110 0 111 257 445 c181 314 261 444
272 442 12 -2 43 -128 132 -528z m292 -1307 c64 -291 117 -534 117 -540 0 -10
-281 -13 -1370 -13 -1086 0 -1370 3 -1370 12 0 7 53 250 117 540 l117 528
1136 0 1135 0 118 -527z"/>
<path d="M2060 811 c-39 -39 -41 -97 -6 -138 l24 -28 453 -3 c476 -3 494 -1
524 42 23 32 19 90 -9 123 l-24 28 -467 3 -466 3 -29 -30z"/>
<path d="M1204 3760 c-39 -15 -66 -61 -61 -100 6 -42 116 -236 152 -267 59
-52 155 -7 155 72 0 40 -92 216 -140 267 -28 29 -74 42 -106 28z"/>
<path d="M652 3335 c-39 -17 -66 -71 -56 -113 4 -16 50 -70 109 -129 99 -100
103 -103 147 -103 73 0 115 54 96 125 -10 36 -170 202 -215 221 -39 17 -40 17
-81 -1z"/>
<path d="M4385 3336 c-44 -20 -204 -186 -213 -221 -11 -43 -4 -70 25 -99 20
-20 36 -26 71 -26 44 0 48 3 147 103 110 110 124 137 99 195 -9 21 -25 38 -48
47 -42 18 -43 18 -81 1z"/>
</g>
</svg>
