<?xml version="1.0" standalone="no"?>
<!DOCTYPE svg PUBLIC "-//W3C//DTD SVG 20010904//EN"
 "http://www.w3.org/TR/2001/REC-SVG-20010904/DTD/svg10.dtd">
<svg version="1.0" xmlns="http://www.w3.org/2000/svg"
 width="512.000000pt" height="512.000000pt" viewBox="0 0 512.000000 512.000000"
 preserveAspectRatio="xMidYMid meet">

<g transform="translate(0.000000,512.000000) scale(0.100000,-0.100000)"
fill="#000000" stroke="none">
<path d="M2511 5106 c-41 -23 -50 -53 -51 -163 l0 -101 -67 -7 c-327 -32 -575
-100 -838 -229 -236 -116 -414 -245 -605 -436 -195 -194 -321 -371 -440 -615
-129 -264 -195 -505 -225 -827 l-7 -68 -99 0 c-111 0 -148 -12 -167 -55 -15
-33 -15 -57 0 -90 19 -43 56 -55 167 -55 l99 0 7 -68 c29 -315 97 -566 225
-827 118 -241 244 -419 435 -611 394 -396 860 -611 1448 -669 l67 -7 0 -98 c0
-110 11 -145 51 -166 35 -18 63 -18 98 0 40 21 51 56 51 166 l0 98 68 7 c37 3
114 13 172 21 947 137 1722 881 1898 1824 11 58 23 134 26 170 4 36 9 86 12
113 l6 47 99 0 c111 0 148 12 167 55 16 34 15 60 -2 94 -21 40 -56 51 -166 51
l-98 0 -7 68 c-12 130 -37 278 -65 393 -137 547 -482 1029 -965 1350 -218 145
-525 270 -790 323 -104 20 -296 46 -346 46 -5 0 -9 45 -9 100 0 55 -5 111 -12
125 -22 48 -88 68 -137 41z m-49 -562 c3 -91 5 -97 31 -120 19 -16 40 -24 67
-24 27 0 48 8 67 24 26 23 28 29 31 120 2 53 6 96 8 96 3 0 48 -5 102 -10 478
-51 923 -262 1257 -596 344 -344 550 -777 605 -1269 5 -49 10 -93 10 -97 0 -3
-43 -8 -96 -10 -91 -3 -97 -5 -120 -31 -16 -19 -24 -40 -24 -67 0 -27 8 -48
24 -67 23 -26 29 -28 121 -31 l96 -4 -6 -61 c-12 -117 -47 -311 -71 -395 -206
-710 -736 -1240 -1446 -1446 -84 -24 -278 -59 -395 -71 l-61 -6 -4 96 c-3 92
-5 98 -31 121 -38 33 -96 33 -134 0 -26 -23 -28 -29 -31 -121 l-4 -96 -61 6
c-369 37 -699 151 -982 340 -525 351 -858 901 -925 1527 -5 54 -10 99 -10 102
0 2 43 6 96 8 91 3 97 5 120 31 33 38 33 96 0 134 -23 26 -29 28 -120 31 -53
2 -96 6 -96 8 0 36 25 223 41 304 46 236 162 520 297 725 335 512 884 855
1492 930 166 20 148 30 152 -81z"/>
<path d="M2370 4249 c-577 -66 -1080 -422 -1335 -944 -319 -652 -189 -1433
324 -1945 441 -441 1080 -604 1678 -430 534 156 964 573 1137 1102 71 216 107
508 72 577 -25 47 -83 63 -135 37 -34 -18 -51 -54 -51 -112 0 -158 -51 -398
-118 -553 -88 -203 -191 -350 -353 -506 -207 -198 -447 -324 -739 -386 -151
-32 -429 -32 -579 0 -320 68 -570 207 -796 442 -199 207 -324 447 -386 739
-33 152 -33 430 0 580 62 293 187 532 386 739 274 285 612 443 995 466 123 8
156 18 175 56 27 52 11 110 -36 135 -31 16 -119 17 -239 3z"/>
<path d="M2375 3805 c-277 -44 -509 -161 -704 -356 -516 -516 -488 -1355 61
-1836 165 -145 361 -241 588 -290 118 -25 362 -25 480 0 513 110 888 485 997
997 13 61 18 129 18 240 0 264 -63 478 -203 690 -270 410 -763 631 -1237 555z
m449 -220 c196 -51 342 -137 491 -289 191 -194 288 -416 301 -686 16 -310 -92
-582 -320 -805 -147 -145 -287 -223 -492 -276 -73 -19 -115 -23 -239 -23 -90
-1 -174 5 -210 13 -409 92 -713 380 -821 777 -25 89 -27 116 -27 264 0 148 2
175 27 264 113 415 451 719 872 786 105 16 307 4 418 -25z"/>
<path d="M2481 3085 c-68 -19 -109 -44 -156 -96 -99 -110 -99 -246 0 -265 53
-10 86 13 120 81 38 76 82 102 144 85 46 -12 78 -47 87 -95 10 -56 -37 -121
-95 -131 -61 -10 -91 -26 -106 -55 -40 -77 1 -136 106 -153 58 -10 105 -75 95
-131 -14 -74 -83 -116 -153 -92 -46 15 -70 49 -82 112 -15 83 -79 117 -150 80
-85 -44 -53 -218 60 -319 156 -140 402 -89 496 102 49 101 34 234 -39 334 -10
15 -10 21 0 35 73 101 88 234 39 335 -67 138 -225 212 -366 173z"/>
</g>
</svg>
