<?xml version="1.0" standalone="no"?>
<!DOCTYPE svg PUBLIC "-//W3C//DTD SVG 20010904//EN"
 "http://www.w3.org/TR/2001/REC-SVG-20010904/DTD/svg10.dtd">
<svg version="1.0" xmlns="http://www.w3.org/2000/svg"
 width="512.000000pt" height="512.000000pt" viewBox="0 0 512.000000 512.000000"
 preserveAspectRatio="xMidYMid meet">

<g transform="translate(0.000000,512.000000) scale(0.100000,-0.100000)"
fill="#000000" stroke="none">
<path d="M2806 4649 c-327 -34 -676 -159 -939 -336 l-80 -53 -429 0 c-465 0
-471 -1 -496 -55 -15 -33 -15 -57 0 -90 24 -53 41 -55 379 -55 l311 0 -76 -81
c-41 -44 -103 -117 -136 -162 l-61 -82 -436 -5 -435 -5 -30 -34 c-26 -29 -30
-39 -25 -75 4 -27 15 -49 32 -63 26 -23 27 -23 396 -23 245 0 369 -3 369 -10
0 -6 -15 -41 -34 -78 -18 -37 -48 -109 -67 -159 l-33 -93 -228 0 c-221 0 -228
-1 -253 -23 -17 -14 -28 -36 -32 -63 -5 -36 -1 -46 25 -75 l30 -34 202 -3 202
-3 -6 -37 c-5 -34 -20 -145 -32 -249 l-5 -43 -419 0 c-450 0 -460 -1 -486 -51
-18 -35 -18 -63 0 -98 26 -50 36 -51 486 -51 l419 0 5 -42 c12 -105 27 -216
32 -250 l7 -37 -403 -3 -402 -3 -30 -34 c-26 -29 -30 -39 -25 -75 4 -27 15
-49 32 -63 l26 -23 427 0 427 0 34 -93 c93 -257 260 -525 445 -714 l60 -63
-312 0 c-340 0 -356 -2 -380 -55 -15 -33 -15 -57 0 -90 25 -54 31 -55 496 -55
l428 0 85 -55 c607 -400 1393 -454 2044 -141 438 211 761 527 980 957 251 493
292 1063 115 1600 -174 529 -553 965 -1061 1220 -345 173 -759 249 -1143 208z
m405 -199 c1051 -107 1818 -1062 1694 -2110 -51 -433 -235 -810 -544 -1121
-727 -728 -1887 -746 -2642 -41 -485 453 -697 1141 -553 1791 210 940 1090
1577 2045 1481z"/>
<path d="M2830 4249 c-577 -66 -1079 -422 -1336 -944 -412 -841 -64 -1855 781
-2270 650 -320 1430 -190 1946 325 572 571 661 1473 210 2145 -352 525 -976
816 -1601 744z m485 -219 c599 -126 1047 -575 1176 -1180 19 -87 23 -136 23
-290 0 -154 -4 -203 -23 -290 -129 -607 -574 -1052 -1181 -1181 -151 -33 -429
-33 -580 0 -309 66 -563 204 -777 422 -98 101 -116 122 -180 219 -108 161
-181 338 -224 540 -30 142 -33 407 -5 555 110 590 560 1063 1136 1194 148 34
213 40 380 36 105 -3 187 -11 255 -25z"/>
<path d="M2971 3946 c-34 -19 -50 -54 -51 -108 0 -59 16 -96 51 -114 52 -27
115 -8 137 41 7 14 12 46 12 70 0 57 -17 93 -51 111 -34 17 -67 17 -98 0z"/>
<path d="M2333 3775 c-68 -29 -79 -94 -30 -172 43 -68 111 -80 163 -28 30 30
32 81 4 135 -32 63 -84 88 -137 65z"/>
<path d="M3633 3775 c-73 -32 -108 -151 -59 -200 52 -52 120 -40 163 28 50 79
38 143 -32 173 -40 16 -32 17 -72 -1z"/>
<path d="M2971 3496 c-48 -27 -50 -41 -51 -356 l-1 -295 -51 -30 c-129 -75
-181 -239 -120 -377 46 -104 140 -167 262 -176 l70 -5 91 -158 c49 -87 102
-168 116 -179 36 -28 85 -26 122 6 55 46 46 81 -63 270 l-95 163 30 58 c76
147 29 318 -109 398 l-51 30 -1 292 c0 204 -4 300 -12 318 -22 48 -88 68 -137
41z m98 -850 c67 -35 65 -143 -4 -174 -51 -23 -107 -7 -131 39 -47 91 44 182
135 135z"/>
<path d="M1841 3294 c-13 -9 -29 -32 -37 -50 -12 -29 -12 -39 0 -68 29 -69
139 -109 193 -71 34 24 47 76 30 118 -28 65 -136 107 -186 71z"/>
<path d="M4080 3286 c-82 -43 -101 -116 -45 -172 51 -50 169 -14 201 62 12 29
12 39 0 68 -28 68 -81 82 -156 42z"/>
<path d="M1671 2646 c-67 -37 -65 -143 4 -174 35 -16 110 -15 144 2 28 15 51
53 51 86 0 33 -23 71 -51 86 -35 18 -116 18 -148 0z"/>
<path d="M4221 2646 c-67 -37 -65 -143 4 -174 35 -16 110 -15 144 2 28 15 51
53 51 86 0 33 -23 71 -51 86 -35 18 -116 18 -148 0z"/>
<path d="M1857 2004 c-21 -14 -45 -41 -53 -60 -12 -29 -12 -39 0 -68 30 -71
93 -83 174 -32 52 33 69 79 48 129 -8 20 -23 40 -34 46 -35 19 -94 12 -135
-15z"/>
<path d="M4035 2006 c-52 -52 -40 -120 28 -163 80 -50 143 -38 173 33 12 29
12 39 0 68 -32 76 -150 112 -201 62z"/>
<path d="M2345 1562 c-33 -21 -75 -95 -75 -133 0 -35 27 -69 67 -86 31 -12 38
-12 71 4 63 31 101 129 72 184 -12 22 -60 49 -87 49 -10 0 -31 -8 -48 -18z"/>
<path d="M3598 1564 c-55 -29 -64 -99 -22 -165 34 -54 81 -75 128 -55 39 16
66 51 66 85 0 38 -42 112 -75 133 -36 22 -61 22 -97 2z"/>
<path d="M2971 1396 c-34 -19 -50 -54 -51 -108 0 -59 16 -96 51 -114 52 -27
115 -8 137 41 7 14 12 46 12 70 0 57 -17 93 -51 111 -34 17 -67 17 -98 0z"/>
<path d="M385 1567 c-17 -14 -28 -36 -32 -63 -5 -36 -1 -46 25 -75 l30 -34
128 -3 c151 -4 188 1 220 33 18 18 24 35 24 69 0 37 -5 48 -31 70 -30 26 -33
26 -184 26 -145 0 -155 -1 -180 -23z"/>
</g>
</svg>
