<?xml version="1.0" standalone="no"?>
<!DOCTYPE svg PUBLIC "-//W3C//DTD SVG 20010904//EN"
 "http://www.w3.org/TR/2001/REC-SVG-20010904/DTD/svg10.dtd">
<svg version="1.0" xmlns="http://www.w3.org/2000/svg"
 width="512.000000pt" height="512.000000pt" viewBox="0 0 512.000000 512.000000"
 preserveAspectRatio="xMidYMid meet">

<g transform="translate(0.000000,512.000000) scale(0.100000,-0.100000)"
fill="#000000" stroke="none">
<path d="M3863 4550 c-44 -26 -53 -67 -53 -237 l0 -143 -1876 -2 -1876 -3 -29
-33 -29 -32 0 -881 c0 -956 -2 -921 55 -947 18 -9 121 -12 356 -12 l331 0 29
29 29 29 0 521 0 521 1505 0 1505 0 0 -142 c0 -79 5 -160 11 -181 13 -47 60
-80 104 -73 37 5 1127 694 1168 737 34 37 36 87 5 123 -20 22 -1063 692 -1138
731 -38 20 -59 19 -97 -5z m585 -540 c210 -134 380 -245 377 -248 -3 -3 -184
-119 -402 -258 l-398 -253 -5 123 c-5 123 -10 141 -50 173 -20 16 -3291 19
-3321 3 -48 -26 -49 -34 -49 -580 l0 -510 -200 0 -200 0 2 753 3 752 1876 3
1876 2 25 25 c32 32 38 62 38 187 l0 100 23 -14 c12 -8 194 -124 405 -258z"/>
<path d="M4349 2831 l-29 -29 0 -521 0 -521 -1505 0 -1505 0 -1 148 c0 86 -5
161 -12 182 -15 42 -70 76 -109 67 -35 -9 -1138 -711 -1165 -743 -27 -29 -30
-79 -8 -111 16 -23 1117 -728 1166 -746 25 -10 36 -8 67 8 52 28 61 62 61 238
l1 147 1855 0 c2002 0 1901 -3 1939 51 14 21 16 106 16 901 0 659 -3 884 -12
903 -24 53 -39 55 -398 55 l-332 0 -29 -29z m569 -923 l-3 -753 -1875 -5
c-1225 -3 -1880 -8 -1890 -15 -38 -26 -45 -47 -50 -171 l-5 -123 -395 252
c-218 139 -397 256 -399 261 -1 4 177 122 396 262 l398 253 5 -123 c5 -123 10
-141 50 -173 20 -16 3291 -19 3321 -3 48 26 49 34 49 580 l0 510 200 0 200 0
-2 -752z"/>
</g>
</svg>
