<?xml version="1.0" standalone="no"?>
<!DOCTYPE svg PUBLIC "-//W3C//DTD SVG 20010904//EN"
 "http://www.w3.org/TR/2001/REC-SVG-20010904/DTD/svg10.dtd">
<svg version="1.0" xmlns="http://www.w3.org/2000/svg"
 width="512.000000pt" height="512.000000pt" viewBox="0 0 512.000000 512.000000"
 preserveAspectRatio="xMidYMid meet">

<g transform="translate(0.000000,512.000000) scale(0.100000,-0.100000)"
fill="#000000" stroke="none">
<path d="M3740 4861 c-138 -45 -222 -155 -222 -292 0 -118 62 -218 168 -270
41 -20 64 -24 143 -24 l95 0 64 -75 c35 -41 81 -96 103 -121 l38 -46 -92 -46
c-130 -65 -231 -155 -307 -275 l-28 -43 -41 48 c-66 75 -197 188 -301 258
-522 349 -1183 387 -1740 99 -58 -30 -148 -85 -200 -122 -121 -86 -316 -280
-402 -402 -72 -102 -181 -310 -221 -425 -37 -105 -74 -284 -87 -420 -31 -318
53 -709 208 -971 l30 -52 -88 -37 c-423 -175 -749 -576 -835 -1026 -8 -45 -18
-126 -21 -180 -8 -114 2 -148 49 -173 30 -16 172 -17 1937 -14 1900 4 1905 4
2000 25 367 82 660 273 872 569 105 147 185 330 231 529 20 87 21 121 25 1035
2 688 0 965 -8 1020 -43 276 -241 508 -508 596 l-81 27 94 110 94 111 98 1
c82 0 105 4 140 23 66 35 110 79 140 140 23 47 28 70 28 132 0 91 -24 149 -85
210 -61 61 -119 85 -210 85 -122 0 -215 -57 -271 -168 -30 -58 -36 -158 -14
-217 9 -25 18 -52 18 -61 1 -9 -51 -80 -117 -157 l-118 -141 -124 144 -123
145 21 47 c61 138 -4 307 -147 380 -53 28 -158 40 -205 24z m137 -213 c24 -20
42 -70 36 -101 -8 -38 -57 -77 -99 -77 -49 0 -96 44 -97 92 -1 41 24 85 56 98
27 12 84 5 104 -12z m1009 -12 c66 -66 24 -165 -69 -166 -99 0 -133 138 -46
186 42 23 78 17 115 -20z m-2335 -576 c284 -29 553 -136 776 -309 90 -70 220
-199 264 -261 l24 -35 -3 -847 -3 -848 -934 0 -935 0 -81 77 c-188 179 -294
414 -306 675 -19 408 193 765 564 952 125 63 229 88 387 94 223 8 375 -32 537
-140 210 -140 324 -330 336 -559 11 -204 -49 -362 -191 -504 -121 -121 -222
-165 -376 -165 -149 0 -258 46 -366 154 -93 93 -118 153 -118 281 0 117 25
183 100 264 68 74 133 104 224 105 79 0 147 -28 205 -83 73 -70 115 -78 167
-32 67 59 32 147 -92 230 -222 148 -516 99 -679 -113 -282 -365 -83 -870 388
-987 119 -30 282 -24 396 15 320 109 545 439 545 801 0 225 -81 428 -238 596
-93 99 -181 166 -302 228 -165 85 -238 103 -430 109 -96 2 -196 0 -236 -7
-527 -81 -940 -500 -1015 -1030 -17 -124 -7 -323 24 -442 46 -178 111 -314
216 -453 l48 -63 -111 -7 c-61 -3 -129 -9 -151 -12 l-41 -6 -51 93 c-413 748
-127 1680 637 2073 249 129 540 184 821 156z m1969 -217 c185 -50 345 -221
385 -410 22 -102 22 -1813 0 -1956 -67 -443 -384 -822 -805 -962 -192 -64 -32
-59 -2056 -62 l-1841 -3 9 67 c59 454 391 847 836 987 180 57 162 56 1480 56
l1214 0 34 34 34 34 0 868 c0 957 -1 933 63 1063 20 42 57 92 102 137 147 150
343 203 545 147z"/>
<path d="M4099 3431 c-23 -23 -29 -38 -29 -71 0 -39 6 -47 111 -155 117 -120
163 -151 207 -140 33 8 256 226 272 266 26 62 -21 129 -91 129 -38 0 -47 -6
-120 -77 l-79 -76 -80 76 c-73 70 -83 77 -121 77 -32 0 -47 -6 -70 -29z"/>
</g>
</svg>
