<?xml version="1.0" standalone="no"?>
<!DOCTYPE svg PUBLIC "-//W3C//DTD SVG 20010904//EN"
 "http://www.w3.org/TR/2001/REC-SVG-20010904/DTD/svg10.dtd">
<svg version="1.0" xmlns="http://www.w3.org/2000/svg"
 width="512.000000pt" height="512.000000pt" viewBox="0 0 512.000000 512.000000"
 preserveAspectRatio="xMidYMid meet">

<g transform="translate(0.000000,512.000000) scale(0.100000,-0.100000)"
fill="#000000" stroke="none">
<path d="M2370 5114 c-19 -2 -78 -9 -130 -15 -548 -62 -1083 -325 -1489 -730
-405 -406 -652 -907 -732 -1489 -18 -125 -18 -515 0 -640 80 -582 327 -1083
732 -1489 658 -657 1607 -906 2504 -654 929 260 1646 1043 1819 1987 156 845
-103 1682 -705 2285 -398 398 -880 639 -1449 726 -100 15 -472 28 -550 19z
m535 -219 c505 -78 959 -308 1320 -670 189 -188 326 -378 445 -614 112 -221
188 -462 226 -716 25 -165 26 -504 1 -665 -26 -164 -72 -346 -124 -485 -271
-727 -885 -1281 -1628 -1470 -213 -54 -341 -69 -585 -69 -238 0 -359 13 -563
64 -430 107 -795 315 -1112 634 -297 298 -507 667 -610 1071 -56 218 -69 332
-69 585 0 254 13 368 69 585 249 972 1081 1674 2095 1769 91 8 438 -4 535 -19z"/>
<path d="M2340 4669 c-206 -21 -445 -86 -649 -177 -463 -207 -856 -600 -1063
-1063 -362 -811 -191 -1738 436 -2365 508 -509 1216 -721 1924 -578 759 153
1392 737 1607 1484 61 211 79 347 79 590 0 243 -18 379 -79 590 -190 659 -711
1202 -1361 1419 -284 94 -599 130 -894 100z m525 -213 c193 -33 347 -82 531
-171 141 -68 307 -175 392 -252 l53 -48 -225 -225 -226 -225 0 203 0 204 -29
29 c-57 57 -152 27 -165 -52 -3 -19 -7 -47 -8 -62 -3 -27 -28 -39 -686 -327
l-683 -300 -350 0 c-372 0 -394 -3 -419 -49 -6 -13 -10 -242 -10 -666 l0 -647
29 -29 29 -29 284 0 283 0 -265 -265 -265 -266 -40 44 c-161 176 -323 489
-395 762 -89 342 -75 744 39 1086 45 132 169 377 249 488 197 275 421 468 717
615 217 108 419 169 651 196 108 12 400 4 509 -14z m1267 -797 c75 -104 203
-353 242 -469 237 -711 64 -1462 -458 -1986 -379 -379 -905 -585 -1436 -560
-289 13 -512 71 -775 202 -147 73 -295 169 -382 249 l-44 40 318 316 318 316
638 -280 637 -281 0 -38 c0 -59 24 -107 62 -122 42 -18 80 -11 110 21 l23 25
5 466 5 467 70 6 c226 21 405 194 438 423 40 280 -190 555 -465 556 l-48 0 0
117 0 118 298 298 297 298 40 -44 c22 -24 70 -86 107 -138z m-942 -186 l0
-138 -662 -662 -663 -663 -312 0 -313 0 0 510 0 510 313 0 312 1 655 288 c360
159 658 290 663 290 4 1 7 -61 7 -136z m-4 -2040 c-3 -4 -1104 474 -1116 484
-2 2 248 256 555 563 l560 560 3 -802 c1 -440 0 -803 -2 -805z m338 1356 c115
-42 196 -173 183 -295 -15 -144 -137 -264 -269 -264 l-48 0 0 290 0 290 40 0
c21 0 64 -9 94 -21z"/>
</g>
</svg>
