<?xml version="1.0" standalone="no"?>
<!DOCTYPE svg PUBLIC "-//W3C//DTD SVG 20010904//EN"
 "http://www.w3.org/TR/2001/REC-SVG-20010904/DTD/svg10.dtd">
<svg version="1.0" xmlns="http://www.w3.org/2000/svg"
 width="512.000000pt" height="512.000000pt" viewBox="0 0 512.000000 512.000000"
 preserveAspectRatio="xMidYMid meet">

<g transform="translate(0.000000,512.000000) scale(0.100000,-0.100000)"
fill="#000000" stroke="none">
<path d="M2375 5114 c-603 -60 -1108 -299 -1510 -715 -292 -303 -488 -652
-590 -1053 -63 -248 -67 -303 -72 -821 l-5 -470 -45 -33 c-58 -43 -116 -135
-137 -214 -15 -56 -17 -128 -14 -683 l3 -620 32 -67 c65 -138 192 -225 341
-235 76 -5 79 -7 102 -40 33 -48 96 -98 166 -130 56 -26 69 -28 225 -31 184
-4 255 7 334 54 88 51 163 157 185 262 7 30 10 340 8 867 l-3 820 -32 67 c-17
37 -50 87 -73 112 -87 95 -179 126 -368 126 l-124 0 5 328 c5 320 12 400 48
535 l10 37 132 0 c259 0 347 50 477 270 197 334 494 545 868 616 115 22 329
22 444 0 381 -73 676 -286 881 -637 68 -116 141 -187 225 -220 48 -19 82 -23
213 -27 l156 -4 11 -37 c36 -118 44 -211 49 -533 l5 -328 -124 0 c-143 0 -220
-16 -290 -61 -65 -42 -115 -100 -152 -178 l-31 -66 -3 -820 c-2 -527 1 -837 8
-867 26 -123 125 -245 235 -289 56 -22 72 -24 256 -24 l195 0 76 37 c68 34
116 75 158 134 12 17 29 22 93 27 149 11 275 98 340 235 l32 67 3 625 c3 603
2 626 -18 691 -23 77 -91 176 -143 208 l-35 22 -4 472 c-5 521 -10 574 -73
823 -213 833 -868 1487 -1699 1699 -190 48 -335 67 -546 70 -102 2 -203 1
-225 -1z m386 -204 c560 -56 1089 -331 1440 -748 289 -344 466 -762 509 -1201
5 -57 10 -271 10 -477 l0 -374 -27 0 c-21 0 -35 11 -56 41 -16 22 -48 54 -73
72 l-43 32 -1 300 c0 165 -5 343 -10 395 -37 359 -163 680 -383 980 -83 113
-280 312 -392 395 -700 523 -1650 523 -2350 0 -112 -83 -309 -282 -392 -395
-220 -300 -346 -622 -382 -979 -6 -57 -11 -237 -11 -400 l0 -296 -42 -29 c-22
-16 -54 -49 -71 -73 -24 -33 -37 -43 -59 -43 l-28 0 0 373 c0 390 8 525 41
692 95 479 354 920 719 1228 448 377 1035 563 1601 507z m29 -411 c574 -64
1106 -451 1357 -986 24 -51 43 -95 43 -99 0 -3 -49 -5 -109 -2 -103 3 -112 5
-153 34 -24 17 -57 53 -75 84 -120 208 -255 368 -406 484 -506 388 -1204 402
-1727 35 -160 -113 -323 -293 -422 -468 -57 -100 -101 -145 -155 -160 -41 -12
-213 -15 -213 -5 0 4 19 48 43 98 206 433 579 763 1030 910 257 85 496 107
787 75z m-1700 -2411 c26 -14 57 -41 75 -66 l30 -44 0 -823 0 -823 -30 -44
c-18 -25 -49 -52 -75 -66 -40 -20 -59 -22 -186 -22 -136 0 -144 1 -195 28 -43
22 -59 38 -81 81 l-28 53 0 789 c0 863 -2 828 58 893 52 55 92 66 247 66 126
0 145 -2 185 -22z m3305 3 c22 -10 52 -31 67 -47 60 -65 58 -30 58 -893 l0
-789 -28 -53 c-22 -43 -38 -59 -81 -81 -51 -27 -59 -28 -195 -28 -127 0 -146
2 -186 22 -26 14 -57 41 -75 66 l-30 44 0 823 0 823 30 44 c18 25 49 52 75 66
40 20 59 22 185 22 115 0 147 -4 180 -19z m-3995 -937 l0 -756 -31 6 c-78 15
-132 62 -157 135 -9 24 -12 199 -12 620 0 550 2 589 19 627 23 50 53 81 106
105 83 38 75 112 75 -737z m4395 737 c53 -24 83 -55 106 -105 17 -39 19 -77
19 -632 l0 -590 -25 -50 c-14 -28 -37 -59 -52 -70 -29 -21 -86 -44 -109 -44
-12 0 -14 128 -14 755 0 848 -8 774 75 736z"/>
</g>
</svg>
