<?xml version="1.0" standalone="no"?>
<!DOCTYPE svg PUBLIC "-//W3C//DTD SVG 20010904//EN"
 "http://www.w3.org/TR/2001/REC-SVG-20010904/DTD/svg10.dtd">
<svg version="1.0" xmlns="http://www.w3.org/2000/svg"
 width="512.000000pt" height="512.000000pt" viewBox="0 0 512.000000 512.000000"
 preserveAspectRatio="xMidYMid meet">

<g transform="translate(0.000000,512.000000) scale(0.100000,-0.100000)"
fill="#000000" stroke="none">
<path d="M2493 4606 l-28 -24 -3 -172 c-4 -193 1 -210 65 -236 31 -14 38 -13
71 3 58 28 63 46 60 236 l-3 169 -28 24 c-19 16 -40 24 -67 24 -27 0 -48 -8
-67 -24z"/>
<path d="M1259 4271 c-46 -46 -40 -75 47 -225 94 -163 102 -171 160 -171 38 0
50 5 70 28 41 48 33 84 -51 234 -42 73 -86 139 -98 148 -37 26 -94 19 -128
-14z"/>
<path d="M3733 4285 c-32 -22 -174 -277 -175 -314 -3 -94 119 -135 175 -58 13
18 54 84 90 148 77 134 83 165 38 210 -34 33 -91 40 -128 14z"/>
<path d="M2407 3876 c-95 -35 -156 -101 -180 -195 l-14 -54 -80 -23 c-167 -48
-298 -108 -438 -198 -604 -392 -868 -1141 -644 -1826 176 -538 620 -934 1191
-1062 90 -20 130 -23 318 -23 188 0 228 3 318 23 464 104 832 373 1065 777
151 261 226 608 199 910 -61 671 -508 1212 -1155 1399 l-80 23 -14 53 c-19 73
-67 136 -133 174 -53 30 -60 31 -185 34 -92 1 -141 -2 -168 -12z m267 -207
l26 -20 0 -619 0 -619 -26 -20 c-22 -18 -41 -21 -114 -21 -73 0 -92 3 -114 21
l-26 20 0 619 0 619 26 20 c22 18 41 21 114 21 73 0 92 -3 114 -21z m-453
-766 c0 -370 4 -527 12 -550 22 -60 72 -117 128 -148 53 -29 57 -30 199 -30
142 0 146 1 199 30 56 31 106 88 128 148 8 23 12 180 12 550 1 284 3 517 5
517 23 0 189 -61 261 -95 392 -189 662 -538 757 -978 31 -145 31 -399 0 -544
-35 -161 -97 -322 -167 -434 l-23 -36 -82 76 c-120 112 -239 194 -385 266
-145 71 -240 105 -389 137 -87 19 -131 22 -316 22 -185 0 -229 -3 -316 -22
-299 -65 -572 -209 -789 -415 -48 -46 -72 -62 -77 -54 -70 108 -146 304 -180
460 -28 135 -31 387 -5 522 86 442 363 807 757 997 72 35 237 96 263 98 4 0 7
-233 8 -517z m624 -1288 c261 -58 487 -179 672 -358 l95 -92 -94 -90 c-266
-255 -589 -385 -958 -385 -369 0 -692 130 -958 385 l-94 90 95 92 c194 187
458 323 707 363 41 6 82 13 90 15 41 10 381 -5 445 -20z"/>
<path d="M2357 1245 c-29 -30 -36 -58 -25 -102 15 -56 45 -68 191 -72 162 -4
208 3 241 36 37 36 36 100 0 137 l-27 26 -177 0 c-176 0 -177 0 -203 -25z"/>
<path d="M359 3371 c-35 -35 -39 -86 -9 -123 29 -38 281 -178 320 -178 47 0
90 47 90 98 0 23 -7 49 -17 61 -10 11 -76 54 -147 96 -152 88 -188 95 -237 46z"/>
<path d="M4525 3325 c-71 -42 -138 -85 -147 -96 -11 -13 -18 -38 -18 -61 0
-51 43 -98 90 -98 39 0 291 140 320 178 30 37 26 88 -9 123 -49 48 -84 41
-236 -46z"/>
<path d="M35 2147 c-60 -51 -36 -145 43 -167 48 -13 266 -13 314 0 78 22 103
106 49 161 l-29 29 -176 0 c-167 0 -176 -1 -201 -23z"/>
<path d="M4679 2141 c-54 -55 -29 -139 49 -161 47 -13 266 -13 313 0 52 15 74
43 74 97 0 37 -5 49 -28 69 -27 23 -33 24 -203 24 l-176 0 -29 -29z"/>
<path d="M505 1005 c-72 -42 -140 -87 -152 -101 -32 -36 -30 -85 5 -125 46
-51 77 -45 235 45 75 42 143 87 152 99 41 59 2 144 -70 153 -36 4 -54 -3 -170
-71z"/>
<path d="M4414 1070 c-49 -20 -71 -101 -39 -146 14 -21 234 -153 288 -173 58
-22 127 31 127 97 0 46 -30 73 -181 160 -123 70 -152 80 -195 62z"/>
</g>
</svg>
