<?xml version="1.0" standalone="no"?>
<!DOCTYPE svg PUBLIC "-//W3C//DTD SVG 20010904//EN"
 "http://www.w3.org/TR/2001/REC-SVG-20010904/DTD/svg10.dtd">
<svg version="1.0" xmlns="http://www.w3.org/2000/svg"
 width="512.000000pt" height="512.000000pt" viewBox="0 0 512.000000 512.000000"
 preserveAspectRatio="xMidYMid meet">

<g transform="translate(0.000000,512.000000) scale(0.100000,-0.100000)"
fill="#000000" stroke="none">
<path d="M2600 5011 c-90 -19 -162 -89 -179 -172 -6 -30 -12 -67 -14 -82 -2
-26 -55 -59 -732 -456 l-730 -428 -5 96 c-5 102 -17 132 -57 150 -38 18 -456
14 -526 -4 -87 -23 -155 -61 -218 -124 -63 -63 -101 -131 -124 -218 -23 -87
-22 -2340 0 -2428 44 -167 173 -296 342 -340 43 -11 115 -15 285 -15 l228 0
32 29 c32 29 33 32 38 129 l5 100 730 -428 730 -429 7 -58 c8 -75 19 -103 59
-147 65 -75 89 -81 314 -81 176 0 204 2 235 19 49 26 88 64 113 111 l22 40 0
2285 0 2285 -22 40 c-25 47 -64 86 -113 111 -29 15 -63 18 -210 20 -96 2 -191
-1 -210 -5z m344 -207 c14 -14 16 -231 16 -2244 0 -2013 -2 -2230 -16 -2244
-13 -13 -41 -16 -155 -16 -78 0 -149 5 -160 10 -19 11 -19 46 -19 2250 0 2122
1 2240 18 2249 9 6 81 11 159 11 116 0 144 -3 157 -16z m-536 -3212 l-3 -968
-440 258 c-242 142 -572 335 -732 429 l-293 171 0 1078 0 1078 177 104 c97 56
427 250 732 429 l556 325 3 -968 c1 -532 1 -1404 0 -1936z m-1668 967 l0
-1371 -172 4 c-172 3 -173 3 -228 34 -60 33 -112 99 -130 162 -14 51 -14 2293
0 2344 20 70 70 130 138 165 l64 33 164 0 164 0 0 -1371z"/>
<path d="M3954 4076 c-36 -36 -43 -70 -22 -109 17 -33 37 -45 113 -68 467
-141 785 -557 860 -1126 64 -486 -98 -1000 -406 -1289 -115 -107 -261 -197
-399 -244 -145 -49 -150 -52 -165 -80 -24 -47 -19 -78 20 -117 33 -33 39 -35
80 -30 120 17 339 121 488 233 646 485 792 1570 310 2299 -126 189 -354 388
-547 475 -90 41 -238 90 -271 90 -17 0 -39 -12 -61 -34z"/>
<path d="M3742 3425 c-34 -29 -44 -71 -26 -114 10 -24 33 -40 116 -80 168 -81
279 -186 351 -335 57 -116 71 -183 72 -336 0 -114 -4 -146 -23 -210 -48 -151
-132 -275 -250 -369 -53 -43 -162 -103 -224 -124 -27 -9 -51 -55 -50 -95 2
-45 47 -92 90 -92 60 0 210 76 315 159 171 136 281 319 328 544 26 128 22 308
-10 432 -71 270 -268 501 -521 612 -91 40 -128 42 -168 8z"/>
</g>
</svg>
