<?xml version="1.0" standalone="no"?>
<!DOCTYPE svg PUBLIC "-//W3C//DTD SVG 20010904//EN" "http://www.w3.org/TR/2001/REC-SVG-20010904/DTD/svg10.dtd">
<svg version="1.0" xmlns="http://www.w3.org/2000/svg" width="512.000000pt" height="512.000000pt"
  viewBox="0 0 512.000000 512.000000" preserveAspectRatio="xMidYMid meet">

  <g transform="translate(0.000000,512.000000) scale(0.100000,-0.100000)" fill="#FFF" stroke="none">
    <path d="M316 3999 c-113 -27 -224 -121 -279 -237 l-32 -67 -3 -1250 c-2 -931
1 -1257 9 -1278 26 -61 -164 -57 2549 -57 2713 0 2523 -4 2549 57 8 21 11 347
9 1278 l-3 1250 -32 67 c-44 94 -109 160 -202 206 l-75 37 -2225 2 c-1321 0
-2242 -3 -2265 -8z m4458 -200 c50 -14 118 -82 134 -135 9 -32 12 -312 12
-1198 l0 -1156 -170 0 -170 0 0 671 c0 441 -4 677 -10 690 -28 52 85 49 -2010
49 -2095 0 -1982 3 -2010 -49 -6 -13 -10 -249 -10 -690 l0 -671 -170 0 -170 0
0 1158 c0 790 3 1169 11 1196 13 47 85 121 131 135 48 14 4381 14 4432 0z
m-3664 -1681 c0 -383 1 -405 21 -448 31 -69 66 -108 125 -141 l54 -31 0 -94 0
-94 -285 0 -285 0 0 605 0 605 185 0 185 0 0 -402z m390 13 l0 -388 -26 -27
c-38 -37 -100 -37 -137 2 l-27 28 0 387 0 387 95 0 95 0 0 -389z m380 -26 c5
-375 7 -413 24 -445 34 -65 67 -101 122 -131 l54 -31 0 -94 0 -94 -285 0 -285
0 0 98 0 97 46 24 c54 29 89 68 120 136 24 50 24 52 24 446 0 218 3 399 7 403
4 4 43 5 88 4 l80 -3 5 -410z m390 26 l0 -388 -26 -27 c-38 -37 -100 -37 -137
2 l-27 28 0 387 0 387 95 0 95 0 0 -389z m380 -26 c5 -399 6 -411 27 -451 33
-62 67 -98 117 -125 l46 -24 0 -97 0 -98 -280 0 -280 0 0 98 0 97 46 24 c54
29 89 68 120 136 24 50 24 52 24 446 0 218 3 399 7 403 4 4 43 5 88 4 l80 -3
5 -410z m390 28 l0 -387 -27 -28 c-37 -39 -99 -39 -137 -2 l-26 27 0 388 0
389 95 0 95 0 0 -387z m380 -28 c3 -278 9 -418 17 -435 25 -55 76 -111 123
-138 l50 -27 0 -97 0 -98 -285 0 -285 0 0 94 0 94 54 31 c59 33 94 72 125 141
20 43 21 65 21 441 0 218 3 399 7 403 4 4 43 5 88 4 l80 -3 5 -410z m390 31
l0 -384 -26 -31 c-35 -42 -98 -44 -138 -5 l-26 27 0 388 0 389 95 0 95 0 0
-384z m570 -221 l0 -605 -285 0 -285 0 0 94 0 94 54 31 c59 33 94 72 125 141
20 43 21 65 21 448 l0 402 185 0 185 0 0 -605z" />
    <path d="M1008 3648 c-193 -25 -340 -229 -299 -417 42 -195 212 -317 406 -290
116 15 212 87 272 201 25 48 28 63 28 153 0 90 -3 105 -28 153 -79 150 -214
221 -379 200z m150 -225 c59 -44 79 -137 43 -203 -84 -157 -328 -69 -295 107
10 52 66 110 117 121 50 10 101 0 135 -25z" />
    <path d="M4002 3649 c-111 -14 -209 -88 -269 -201 -25 -48 -28 -63 -28 -153 0
-90 3 -105 28 -153 60 -114 156 -186 272 -201 163 -22 307 57 378 207 27 58
32 78 32 147 0 69 -5 89 -32 147 -71 150 -214 228 -381 207z m135 -217 c90
-48 106 -177 31 -249 -101 -98 -268 -28 -268 112 0 122 127 195 237 137z" />
    <path d="M1796 3359 c-36 -42 -35 -89 3 -131 l29 -33 732 0 732 0 29 33 c38
42 39 89 3 131 l-26 31 -738 0 -738 0 -26 -31z" />
  </g>
</svg>