<?xml version="1.0" standalone="no"?>
<!DOCTYPE svg PUBLIC "-//W3C//DTD SVG 20010904//EN"
 "http://www.w3.org/TR/2001/REC-SVG-20010904/DTD/svg10.dtd">
<svg version="1.0" xmlns="http://www.w3.org/2000/svg"
 width="512.000000pt" height="512.000000pt" viewBox="0 0 512.000000 512.000000"
 preserveAspectRatio="xMidYMid meet">

<g transform="translate(0.000000,512.000000) scale(0.100000,-0.100000)"
fill="#000000" stroke="none">
<path d="M3340 5101 c-173 -37 -316 -117 -441 -248 -85 -89 -135 -165 -178
-274 -52 -130 -61 -214 -61 -569 l0 -318 -23 -6 c-38 -9 -116 -85 -145 -140
-36 -70 -38 -188 -4 -257 28 -58 81 -113 133 -139 l39 -20 0 -118 0 -117 -45
-24 c-199 -106 -203 -403 -7 -516 l51 -30 1 -117 0 -117 -37 -18 c-51 -24
-111 -86 -136 -142 -33 -71 -31 -189 5 -257 25 -48 75 -101 127 -135 l24 -15
-29 -54 c-82 -152 -243 -233 -414 -209 -133 19 -244 102 -303 227 l-32 67 -3
475 -3 476 59 12 c93 19 177 89 219 182 20 44 22 162 4 213 -20 58 -82 129
-142 162 l-54 30 -790 0 -790 0 -42 -23 c-65 -34 -110 -78 -138 -137 -88 -179
13 -387 207 -427 l58 -12 0 -481 c0 -480 6 -598 36 -743 158 -765 863 -1317
1635 -1279 647 32 1175 483 1315 1122 13 59 19 147 23 330 l6 250 73 5 c65 4
77 8 98 33 26 30 32 83 13 119 -15 28 -70 48 -134 48 l-55 0 0 299 0 299 76 4
c69 3 79 6 100 31 16 19 24 40 24 67 0 27 -8 48 -24 67 -21 25 -31 28 -100 31
l-76 4 0 299 0 299 54 0 c67 0 110 15 130 45 24 36 20 89 -8 122 -21 25 -33
29 -98 33 l-73 5 -3 382 c-2 372 -2 383 18 403 19 19 32 20 448 20 397 0 435
2 507 20 134 34 218 83 321 185 78 77 98 104 137 185 48 98 77 210 77 296 0
39 -5 51 -34 80 l-34 34 -738 -1 c-672 0 -747 -2 -824 -18z m730 -381 l0 -200
-288 0 c-342 0 -370 -5 -443 -79 -77 -76 -79 -90 -79 -543 l0 -388 -105 0
-104 0 -17 31 c-24 47 -93 118 -136 140 l-38 19 0 311 c0 359 8 416 73 549 32
67 58 102 122 165 86 86 157 130 265 164 93 29 84 28 433 30 l317 1 0 -200z
m690 197 c0 -21 -46 -127 -73 -169 -81 -127 -251 -228 -384 -228 l-33 0 0 200
0 200 245 0 c135 0 245 -2 245 -3z m-1929 -1436 c40 -40 40 -89 0 -133 -24
-27 -36 -33 -71 -33 -35 0 -47 6 -72 34 -26 29 -30 39 -25 75 12 84 108 117
168 57z m429 -471 l0 -300 -108 0 -108 0 -16 34 c-25 51 -72 100 -123 127
l-45 24 0 117 0 117 38 18 c45 21 115 91 132 132 l12 31 109 0 109 0 0 -300z
m-1356 -111 c33 -15 59 -71 51 -109 -4 -16 -20 -41 -37 -55 l-30 -25 -735 0
-735 0 -34 34 c-50 50 -42 119 17 152 32 18 1464 20 1503 3z m906 -204 c34
-18 50 -43 50 -80 0 -56 -47 -105 -100 -105 -74 0 -122 83 -86 149 27 48 84
63 136 36z m-1150 -650 c0 -296 4 -483 11 -517 20 -99 83 -213 162 -292 120
-120 261 -179 427 -179 206 1 384 96 498 267 27 40 57 100 68 134 16 54 23 63
51 72 43 15 118 83 149 136 l26 44 104 0 104 0 0 -209 c0 -228 -12 -331 -56
-466 -133 -411 -469 -712 -906 -812 -112 -25 -393 -23 -518 5 -504 111 -896
459 -1055 935 -65 196 -67 216 -72 810 l-5 537 506 0 506 0 0 -465z m1600 165
l0 -300 -107 0 -108 0 -27 50 c-27 48 -88 102 -135 121 -22 8 -23 13 -23 126
l0 118 45 24 c51 27 98 76 123 127 l16 34 108 0 108 0 0 -300z m-427 -340 c38
-42 37 -92 -2 -131 -60 -60 -156 -27 -168 56 -4 32 0 46 17 68 44 55 106 58
153 7z"/>
</g>
</svg>
