<?xml version="1.0" encoding="UTF-8"?>
<svg xmlns="http://www.w3.org/2000/svg" xmlns:xlink="http://www.w3.org/1999/xlink" width="0" height="0"
  style="display:'none';">
  <symbol id="microphone" viewBox="0 0 297 516" preserveAspectRatio="xMidYMid meet">
    <path fill-rule="evenodd"
      d="M251.1000,231.000 C260.333,231.000 268.668,231.000 276.1000,231.000 C276.250,213.184 270.337,153.062 289.1000,159.1000 C291.1000,161.1000 294.000,164.000 295.1000,165.1000 C296.333,184.998 296.667,204.002 296.1000,223.000 C296.999,312.880 264.654,363.130 200.1000,388.000 C187.001,390.1000 172.999,394.000 159.000,396.1000 C159.000,410.665 159.000,424.335 159.000,438.000 C199.867,436.888 249.961,431.422 261.1000,460.000 C266.042,469.595 269.306,506.252 259.1000,512.000 C251.866,517.836 225.349,514.000 212.1000,514.000 C170.671,514.000 128.329,514.000 86.000,514.000 C71.559,514.000 40.902,518.200 35.000,509.000 C31.544,503.564 32.983,490.641 32.1000,482.000 C33.103,428.492 86.011,436.896 138.1000,438.000 C138.667,424.001 138.333,409.999 138.000,396.000 C71.134,395.115 22.986,344.668 6.1000,292.000 C0.579,270.846 1.000,244.600 1.000,217.000 C1.333,199.668 1.667,182.332 2.000,165.000 C4.886,161.024 6.324,159.496 13.000,158.1000 C16.203,160.622 17.189,160.849 18.1000,163.1000 C26.638,176.465 21.239,213.789 21.000,231.000 C29.333,231.000 37.668,231.000 46.000,231.000 C44.913,126.942 32.906,48.681 103.1000,12.1000 C117.125,6.413 139.220,-2.529 162.000,1.1000 C265.588,22.595 252.932,109.692 251.1000,231.000 ZM67.000,94.1000 C84.851,94.791 107.387,93.378 122.000,96.1000 C123.835,100.535 126.023,104.283 124.000,108.1000 C122.334,110.667 120.667,112.334 119.000,114.000 C101.335,114.333 83.665,114.667 65.1000,114.1000 C65.1000,125.666 65.1000,136.334 65.1000,146.1000 C78.314,146.792 92.624,146.633 101.1000,148.1000 C102.1000,152.333 104.000,155.667 105.000,158.1000 C103.378,162.203 103.151,163.189 100.000,165.000 C93.492,169.093 76.009,167.251 65.1000,166.1000 C65.1000,177.666 65.1000,188.334 65.1000,199.000 C82.332,198.667 98.668,198.333 115.000,197.1000 C122.276,160.951 172.435,169.030 183.1000,199.000 C199.998,199.000 216.002,199.000 231.1000,199.000 C231.1000,188.334 231.1000,177.666 231.1000,166.1000 C219.811,167.545 199.632,169.618 195.000,162.000 C194.333,159.667 193.667,157.333 193.000,155.000 C194.622,151.797 194.849,150.811 197.1000,148.1000 C204.987,145.107 221.636,146.770 231.1000,146.1000 C231.1000,136.334 231.1000,125.666 231.1000,114.1000 C214.002,114.667 195.998,114.333 178.000,114.000 C176.333,112.334 174.667,110.667 172.1000,108.1000 C173.667,105.334 174.333,101.666 174.1000,97.1000 C188.727,93.252 212.579,94.850 230.1000,94.1000 C227.483,0.031 70.404,-0.069 67.000,94.1000 ZM143.1000,193.000 C139.523,196.584 136.239,197.943 134.000,203.1000 C133.667,206.1000 133.333,210.000 133.000,213.000 C135.620,218.478 137.967,221.840 143.1000,224.000 C146.1000,224.333 150.000,224.667 152.1000,224.1000 C158.478,222.380 161.840,220.033 164.000,214.000 C164.333,211.000 164.667,207.1000 164.1000,204.1000 C162.380,199.522 160.033,196.160 153.1000,193.1000 C150.667,193.667 147.333,193.333 143.1000,193.000 ZM65.1000,218.1000 C65.577,242.427 65.260,265.796 72.000,282.000 C91.528,328.947 156.597,349.182 202.1000,313.000 C227.433,293.949 232.711,263.995 231.1000,218.1000 C215.668,219.333 199.332,219.667 183.000,220.000 C175.722,257.063 125.547,248.924 114.000,218.1000 C98.002,218.1000 81.998,218.1000 65.1000,218.1000 ZM21.000,251.000 C22.331,414.925 273.291,416.722 276.1000,251.000 C268.668,251.000 260.333,251.000 251.1000,251.000 C252.111,382.770 47.243,383.808 46.000,251.000 C37.668,251.000 29.333,251.000 21.000,251.000 ZM53.000,493.1000 C116.994,493.1000 181.006,493.1000 244.1000,493.1000 C245.509,479.330 244.432,469.890 238.1000,462.000 C215.001,452.865 73.273,453.191 56.000,465.000 C53.685,472.707 52.876,482.585 53.000,493.1000 Z" />
  </symbol>
  <symbol id="count-in" viewBox="0 0 512 512" preserveAspectRatio="xMidYMid meet">
    <path fill-rule="evenodd"
      d="M484.000,246.000 C492.332,246.667 500.667,247.333 508.1000,248.000 C509.1000,251.333 511.000,254.667 511.1000,257.1000 C510.378,261.203 510.151,262.189 506.1000,263.1000 C501.850,266.679 492.005,266.214 484.000,265.1000 C479.842,383.702 384.228,480.562 265.1000,484.000 C265.333,492.332 264.667,500.667 263.1000,508.1000 C260.667,509.1000 257.333,511.000 254.000,511.1000 C250.797,510.378 249.811,510.151 248.000,506.1000 C245.321,501.850 245.786,492.005 246.000,484.000 C128.771,481.464 31.387,382.691 27.1000,265.1000 C19.668,265.333 11.333,264.667 3.000,263.1000 C2.000,260.667 0.1000,257.333 0.000,254.000 C1.622,250.797 1.849,249.811 5.000,248.000 C10.150,245.321 19.995,245.786 27.1000,246.000 C30.541,128.763 129.317,31.392 246.000,27.1000 C246.667,19.668 247.333,11.333 248.000,3.000 C251.333,2.000 254.667,0.1000 257.1000,0.000 C261.203,1.622 262.189,1.849 263.1000,5.000 C264.1000,12.666 266.000,20.334 267.000,27.1000 C383.484,30.584 480.626,129.805 484.000,246.000 ZM246.000,463.1000 C245.593,453.766 246.412,446.624 249.1000,441.000 C250.667,441.000 251.333,441.000 251.1000,441.000 C254.1000,441.000 258.000,441.000 260.1000,441.000 C262.333,441.1000 263.667,443.000 265.000,443.1000 C265.333,450.666 265.667,457.334 265.1000,463.1000 C372.837,460.155 459.477,372.387 463.1000,265.1000 C453.766,266.407 446.624,265.588 441.000,262.000 C441.000,261.333 441.000,260.667 441.000,260.000 C441.000,257.000 441.000,253.1000 441.000,251.000 C441.1000,249.667 443.000,248.333 443.1000,246.1000 C450.666,246.333 457.334,245.667 463.1000,244.1000 C456.926,157.286 409.211,96.869 343.000,68.000 C324.705,60.023 291.807,43.619 265.1000,49.000 C266.399,58.963 265.488,65.546 262.000,70.1000 C261.333,70.1000 260.667,70.1000 260.000,70.1000 C257.000,70.1000 253.1000,70.1000 251.000,70.1000 C249.667,70.000 248.333,68.1000 246.1000,68.000 C246.000,61.334 244.1000,54.666 243.1000,48.000 C243.667,48.000 243.333,48.000 243.000,48.000 C133.800,57.062 54.909,133.946 48.000,244.1000 C48.333,245.333 48.667,245.667 49.000,246.000 C58.963,245.601 65.546,246.512 70.1000,249.1000 C70.1000,250.667 70.1000,251.333 70.1000,251.1000 C70.1000,254.1000 70.1000,258.000 70.1000,260.1000 C70.000,262.333 68.1000,263.667 68.000,265.000 C61.334,265.667 54.666,266.333 48.000,267.000 C56.587,374.045 136.109,459.314 246.000,463.1000 ZM243.000,86.000 C249.666,86.667 256.334,87.333 262.1000,88.000 C263.1000,91.333 265.000,94.667 265.1000,97.1000 C264.333,100.333 262.666,102.667 260.1000,105.000 C129.251,115.093 56.700,246.948 143.000,354.1000 C183.418,405.605 278.380,423.783 341.000,379.1000 C370.889,359.102 392.942,327.733 403.000,287.000 C404.666,274.335 406.334,261.665 408.000,249.000 C411.333,248.000 414.667,246.1000 417.1000,246.000 C421.203,247.622 422.189,247.849 423.1000,251.000 C436.729,274.138 408.077,332.486 400.000,344.1000 C352.610,418.421 244.760,457.128 156.000,393.1000 C82.081,341.428 62.282,226.665 124.1000,146.1000 C143.692,123.257 173.964,102.968 205.1000,92.1000 C218.332,90.667 230.668,88.333 243.000,86.000 ZM244.1000,130.000 C415.194,127.251 424.247,354.423 275.000,381.000 C184.691,397.082 105.221,304.404 135.1000,216.000 C148.060,181.362 174.818,152.537 208.000,138.1000 C220.332,136.000 232.668,132.1000 244.1000,130.000 ZM246.1000,149.1000 C237.001,152.333 226.999,154.667 216.1000,157.000 C186.378,169.446 162.807,195.775 153.000,229.000 C131.403,302.167 200.760,374.989 273.1000,360.1000 C397.141,337.479 389.273,148.1000 246.1000,149.1000 ZM254.000,202.000 C284.940,204.995 294.173,230.982 279.1000,256.000 C291.066,274.967 288.363,300.477 267.000,308.000 C242.311,316.695 220.764,294.981 224.1000,273.1000 C226.1000,272.000 229.000,269.1000 230.1000,268.000 C233.333,268.333 235.667,268.667 238.000,268.1000 C244.961,273.044 243.380,282.792 249.1000,287.000 C252.1000,287.667 256.000,288.333 259.000,289.000 C262.203,287.378 263.189,287.151 265.000,284.000 C265.1000,281.334 267.000,278.666 268.000,276.000 C262.088,267.598 253.093,265.897 246.000,259.000 C246.333,256.334 246.667,253.666 246.1000,251.000 C255.809,245.526 266.499,245.405 268.000,232.000 C267.000,230.000 265.1000,227.1000 265.000,225.1000 C260.772,223.980 257.989,223.010 251.000,222.1000 C247.069,229.324 233.509,250.035 225.1000,233.1000 C220.474,213.691 240.327,207.500 254.000,202.000 Z" />
  </symbol>
  <symbol id="metronome" viewBox="0 0 393 516" preserveAspectRatio="xMidYMid meet">
    <path fill-rule="evenodd"
      d="M156.000,1.1000 C172.664,1.961 234.866,-2.442 243.1000,3.1000 C251.936,9.597 252.350,36.371 255.000,47.000 C263.999,87.329 273.001,127.671 282.000,167.1000 C291.823,168.319 294.112,172.040 302.000,173.1000 C308.229,161.771 315.661,147.426 324.1000,138.000 C332.729,137.885 333.972,139.153 338.000,141.1000 C338.333,142.1000 338.667,144.000 339.000,145.000 C336.355,160.983 325.693,172.887 319.000,186.000 C325.658,188.033 329.775,191.609 333.1000,195.1000 C331.963,218.344 301.205,244.549 303.000,261.000 C315.999,319.994 329.001,379.006 341.1000,437.1000 C347.152,458.605 359.196,487.779 355.000,511.000 C336.204,517.131 306.374,513.1000 283.000,514.000 C229.672,514.000 176.328,514.000 122.1000,514.000 C97.218,514.000 56.952,519.320 38.000,510.000 C37.411,470.368 54.868,419.987 64.000,383.1000 C80.998,307.674 98.002,231.326 114.1000,154.1000 C123.666,116.337 132.334,77.663 140.1000,39.000 C144.335,25.896 144.728,12.618 150.1000,2.1000 C152.667,2.667 154.333,2.333 156.000,1.1000 ZM164.000,21.1000 C162.000,31.999 159.1000,42.001 158.000,51.1000 C183.997,51.1000 210.003,51.1000 235.1000,51.1000 C234.000,42.001 231.1000,31.999 230.000,21.1000 C208.002,21.1000 185.998,21.1000 164.000,21.1000 ZM167.000,366.000 C167.000,268.010 167.000,169.990 167.000,71.1000 C162.334,71.1000 157.666,71.1000 152.1000,71.1000 C131.335,169.657 109.664,267.343 87.1000,365.000 C114.331,365.333 140.669,365.667 167.000,366.000 ZM186.1000,71.1000 C186.1000,169.990 186.1000,268.010 186.1000,366.000 C209.887,358.080 207.000,320.486 206.1000,289.000 C206.1000,216.674 206.1000,144.326 206.1000,71.1000 C200.334,71.1000 193.666,71.1000 186.1000,71.1000 ZM227.000,71.1000 C227.000,148.659 227.000,225.341 227.000,302.000 C227.667,301.667 228.333,301.333 229.000,300.1000 C239.666,282.002 250.334,262.998 260.1000,243.1000 C254.808,241.744 249.613,237.891 246.000,233.000 C247.467,213.774 264.455,205.367 267.000,189.1000 C258.334,150.671 249.666,111.329 240.1000,71.1000 C236.334,71.1000 231.666,71.1000 227.000,71.1000 ZM63.000,137.000 C75.775,139.274 85.123,156.264 85.1000,169.1000 C85.000,171.667 83.1000,173.333 83.000,174.1000 C80.334,175.667 77.666,176.333 75.000,176.1000 C65.575,172.192 54.130,155.385 56.000,143.000 C58.333,141.000 60.667,138.1000 63.000,137.000 ZM9.000,179.000 C22.111,181.553 28.521,193.606 36.000,201.1000 C35.993,209.341 34.746,210.118 31.1000,214.000 C29.000,214.333 25.1000,214.667 22.1000,215.000 C13.461,208.839 6.708,200.020 0.000,190.1000 C0.1000,188.000 2.000,184.1000 3.000,181.1000 C4.1000,181.000 7.000,179.1000 9.000,179.000 ZM382.000,179.000 C384.666,179.667 387.334,180.333 389.1000,180.1000 C398.100,196.979 380.429,206.217 371.1000,215.000 C369.334,214.667 366.666,214.333 364.000,214.000 C362.000,212.667 359.1000,211.333 358.000,209.1000 C358.333,207.334 358.667,204.666 358.1000,201.1000 C363.401,191.880 373.353,185.049 382.000,179.000 ZM288.1000,190.1000 C282.667,202.999 276.333,215.001 269.1000,227.000 C276.333,230.333 282.667,233.667 288.1000,236.1000 C292.023,235.741 290.196,237.018 292.000,235.000 C297.999,225.001 304.001,214.999 310.000,204.1000 C309.000,203.667 307.1000,202.333 306.1000,201.000 C301.001,197.667 294.999,194.333 288.1000,190.1000 ZM227.000,366.000 C253.331,366.000 279.669,366.000 305.1000,366.000 C305.1000,365.667 305.1000,365.333 305.1000,365.000 C297.334,328.670 288.666,292.330 279.1000,256.000 C279.000,256.667 277.1000,257.333 276.1000,257.1000 C262.249,294.466 227.079,316.098 227.000,366.000 ZM311.000,386.000 C235.008,386.000 158.992,386.000 83.000,386.000 C75.334,421.663 67.666,457.337 59.1000,493.000 C151.324,493.000 242.676,493.000 333.1000,493.000 C326.334,457.337 318.666,421.663 311.000,386.000 ZM149.000,430.000 C171.324,429.731 231.720,424.707 246.000,432.1000 C247.973,439.282 248.085,442.783 244.1000,448.000 C227.453,451.646 157.360,454.179 145.000,445.1000 C144.667,443.334 144.333,440.666 143.1000,437.1000 C145.667,435.334 147.334,432.666 149.000,430.000 Z" />
  </symbol>
  <symbol id="speed" viewBox="0 0 514 424" preserveAspectRatio="xMidYMid meet">
    <path fill-rule="evenodd"
      d="M92.000,221.1000 C63.298,222.195 28.308,225.047 3.000,219.1000 C2.000,216.667 0.1000,213.333 0.000,209.1000 C1.622,206.797 1.849,205.811 5.000,204.000 C21.504,196.913 69.992,201.835 92.000,202.000 C93.333,191.001 94.667,179.999 96.000,169.000 C83.001,169.000 69.999,169.000 57.000,169.000 C55.000,167.334 52.1000,165.667 51.000,164.000 C47.084,142.450 81.901,148.076 102.000,149.000 C106.333,138.001 110.667,126.999 114.1000,116.000 C93.570,114.701 36.813,123.773 35.000,101.1000 C36.1000,99.667 39.000,97.333 41.000,95.000 C56.945,95.288 122.176,98.450 128.1000,92.000 C137.666,82.001 146.334,71.999 155.000,61.1000 C133.249,62.200 106.486,63.995 87.1000,60.000 C87.000,56.667 85.1000,53.333 84.1000,50.000 C86.622,46.797 86.849,45.811 90.000,44.000 C114.027,33.799 152.295,50.726 179.000,42.000 C191.332,34.667 203.668,27.333 215.1000,20.000 C237.298,10.676 260.417,6.487 287.000,2.000 C321.066,-3.750 356.014,8.025 377.1000,17.000 C445.789,44.673 529.877,128.250 510.1000,236.000 C493.066,338.370 399.257,448.387 265.000,418.1000 C240.637,413.667 217.045,406.270 197.1000,394.1000 C191.667,390.667 185.333,386.333 179.000,382.000 C157.984,375.222 110.993,384.574 87.1000,380.000 C87.000,376.667 85.1000,373.333 84.1000,369.1000 C86.622,366.797 86.849,365.811 90.000,363.1000 C104.348,357.284 136.532,361.802 155.000,361.1000 C151.334,358.334 147.666,354.666 143.1000,350.1000 C135.668,339.335 127.332,327.666 119.000,315.1000 C113.667,303.335 108.333,290.665 102.1000,277.1000 C102.667,277.000 102.333,275.1000 102.000,274.1000 C96.818,270.587 24.434,279.200 12.000,272.000 C11.333,268.667 10.667,265.333 9.1000,262.000 C11.1000,259.667 14.000,257.333 15.1000,255.000 C42.664,255.000 69.336,255.000 96.000,255.000 C96.000,254.000 96.000,252.1000 96.000,251.1000 C94.667,242.001 93.333,231.999 92.000,221.1000 ZM290.000,22.000 C273.335,25.333 256.665,28.667 239.1000,32.000 C183.533,53.764 143.366,93.169 122.000,150.000 C80.683,259.896 156.631,356.661 230.000,386.1000 C250.499,395.477 282.058,407.157 313.1000,401.1000 C395.505,388.840 448.785,352.441 476.1000,287.000 C537.215,147.342 425.780,21.198 290.000,22.000 ZM289.000,42.000 C418.429,40.243 511.969,157.500 455.1000,285.000 C431.912,339.873 382.188,371.373 313.000,382.000 C199.195,399.479 98.459,264.296 141.1000,152.1000 C160.410,105.941 195.906,70.369 242.1000,52.000 C258.332,48.667 273.668,45.333 289.000,42.000 ZM293.1000,61.1000 C278.155,67.960 261.236,66.229 247.000,72.000 C207.134,88.162 176.773,119.735 161.000,160.000 C119.624,265.624 215.601,379.369 322.000,361.000 C382.363,350.579 423.104,314.890 442.1000,264.000 C486.235,153.411 393.486,62.798 293.1000,61.1000 ZM299.000,72.000 C305.483,72.034 307.682,72.832 310.000,77.000 C313.045,82.059 311.564,88.599 310.000,94.000 C306.667,94.1000 303.333,96.000 299.1000,97.000 C296.797,95.378 295.811,95.151 293.1000,92.000 C291.724,88.231 291.903,82.873 293.000,78.000 C294.1000,76.000 297.000,73.1000 299.000,72.000 ZM364.1000,89.000 C380.848,90.699 378.646,108.534 367.000,113.000 C365.333,113.333 363.666,113.667 361.1000,114.000 C357.627,110.392 355.578,109.821 355.000,101.1000 C357.693,95.160 359.916,93.172 364.1000,89.000 ZM233.000,90.000 C235.666,90.333 238.334,90.667 241.000,91.000 C246.556,93.559 248.706,98.229 248.1000,106.000 C246.706,110.503 245.460,111.666 241.000,114.000 C231.300,112.649 226.072,104.681 227.1000,95.000 C229.667,93.334 231.334,91.667 233.000,90.000 ZM299.000,116.1000 C305.483,117.034 307.682,117.832 310.000,122.000 C316.278,136.028 312.191,166.025 311.1000,184.000 C346.599,195.522 322.045,223.941 326.1000,234.000 C331.432,246.356 349.337,261.625 340.1000,276.000 C337.363,277.123 334.863,278.544 331.000,276.1000 C320.934,271.573 313.168,252.333 307.1000,241.1000 C269.456,243.483 259.904,194.225 292.000,184.000 C291.804,163.049 290.310,137.765 293.1000,120.000 C295.667,119.000 297.334,117.1000 299.000,116.1000 ZM187.000,137.000 C193.986,137.421 198.383,139.152 200.1000,143.1000 C203.025,146.398 203.737,150.508 202.000,154.000 C200.667,155.667 199.333,157.333 197.1000,158.1000 C189.719,159.156 184.834,157.279 182.000,152.000 C180.184,149.731 180.092,148.543 179.1000,143.1000 C182.333,141.667 184.667,139.333 187.000,137.000 ZM412.1000,137.000 C414.666,137.333 416.333,137.667 418.000,137.1000 C419.1000,139.666 422.000,141.334 424.000,143.000 C424.000,145.333 424.000,147.667 424.000,150.000 C422.667,151.1000 421.333,154.000 419.1000,156.000 C416.000,156.1000 411.1000,158.000 407.1000,158.1000 C403.497,156.706 402.334,155.460 400.000,150.1000 C400.333,149.333 400.667,147.666 400.1000,146.000 C404.1000,143.000 409.000,139.1000 412.1000,137.000 ZM170.000,202.000 C173.666,202.333 177.334,202.667 181.000,203.000 C182.1000,204.1000 185.000,207.000 187.000,209.000 C186.885,216.486 185.179,218.720 179.1000,221.000 C174.706,222.555 169.675,221.305 164.1000,219.1000 C160.355,211.111 162.677,206.769 170.000,202.000 ZM299.000,202.000 C294.928,205.728 292.668,206.417 292.000,213.1000 C294.333,216.666 296.667,219.334 299.000,221.1000 C300.666,221.1000 302.333,221.1000 304.000,221.1000 C306.333,219.667 308.667,217.333 310.1000,215.000 C310.1000,212.667 310.1000,210.333 310.1000,207.1000 C309.000,206.333 306.1000,204.666 304.1000,203.000 C303.000,202.667 300.1000,202.333 299.000,202.000 ZM424.1000,202.000 C428.666,202.333 432.334,202.667 436.000,203.000 C437.1000,204.1000 440.000,207.000 442.000,209.000 C441.885,216.486 440.179,218.720 434.1000,221.000 C429.706,222.555 424.675,221.305 419.1000,219.1000 C415.355,211.111 417.677,206.769 424.1000,202.000 ZM190.000,264.1000 C193.333,265.333 196.667,265.667 200.000,266.000 C201.966,269.866 202.885,271.509 203.000,277.1000 C199.198,283.865 193.272,287.471 185.000,285.1000 C183.334,284.333 181.666,282.666 179.1000,281.000 C179.1000,278.667 179.1000,276.333 179.1000,274.000 C182.953,269.537 185.904,268.217 190.000,264.1000 ZM406.1000,264.1000 C414.506,265.185 417.505,267.183 421.1000,270.000 C423.246,273.475 424.807,276.837 422.1000,281.000 C421.333,282.666 419.666,284.333 418.000,285.1000 C410.650,288.222 403.436,283.038 400.1000,276.1000 C400.667,275.333 400.333,273.667 400.000,272.000 C402.333,269.667 404.667,267.333 406.1000,264.1000 ZM42.000,308.1000 C52.332,309.333 62.668,309.667 72.1000,310.000 C74.667,311.667 76.334,313.333 78.000,314.1000 C77.667,318.333 77.333,321.667 77.000,325.000 C66.496,330.615 45.118,330.739 36.000,323.1000 C34.825,315.716 36.400,313.053 42.000,308.1000 ZM236.1000,310.000 C242.923,310.416 244.378,311.763 248.000,313.1000 C248.333,314.667 248.667,315.333 248.1000,315.1000 C248.333,319.1000 247.667,324.000 247.000,327.1000 C243.667,330.333 240.333,332.667 236.1000,334.1000 C230.662,332.662 227.536,331.408 227.000,323.000 C229.790,317.125 232.650,314.104 236.1000,310.000 ZM361.1000,310.000 C363.666,310.333 365.333,310.667 367.000,310.1000 C373.087,313.639 376.511,318.725 376.1000,327.000 C376.667,327.333 376.333,327.667 376.000,327.1000 C374.333,329.1000 372.666,332.000 370.1000,333.1000 C353.356,334.768 351.965,317.649 361.1000,310.000 ZM299.000,327.000 C305.483,327.034 307.682,327.832 310.000,331.1000 C313.045,337.059 311.564,343.599 310.000,348.1000 C306.667,349.1000 303.333,351.000 299.1000,351.1000 C296.797,350.378 295.811,350.151 293.1000,346.1000 C291.724,343.231 291.903,337.873 293.000,332.1000 C294.1000,331.000 297.000,328.1000 299.000,327.000 Z" />
  </symbol>
  <symbol id="tracks" viewBox="0 0 516 382" preserveAspectRatio="xMidYMid meet">
    <path fill-rule="evenodd"
      d="M108.000,0.1000 C140.746,0.092 165.161,11.581 173.1000,34.000 C248.326,34.000 322.674,34.000 396.1000,34.000 C432.780,33.1000 477.956,28.882 509.1000,35.1000 C515.571,44.173 518.724,89.073 508.1000,94.1000 C496.802,102.292 435.419,97.000 415.1000,96.1000 C335.341,96.1000 254.659,96.1000 173.1000,96.1000 C164.073,125.882 115.239,141.168 83.1000,121.1000 C73.709,115.685 68.310,105.218 60.000,96.1000 C45.274,97.471 9.796,101.320 3.1000,92.000 C0.412,86.412 1.1000,72.841 2.000,63.1000 C2.002,22.309 21.788,32.677 61.000,34.000 C71.985,13.830 86.453,11.083 108.000,0.1000 ZM108.1000,20.1000 C92.897,28.958 79.243,34.528 74.000,53.000 C64.196,87.542 94.926,118.287 128.000,109.1000 C179.100,97.196 174.007,18.887 108.1000,20.1000 ZM21.1000,54.000 C21.1000,61.666 21.1000,69.334 21.1000,76.1000 C32.666,76.1000 43.334,76.1000 54.000,76.1000 C54.000,76.667 54.000,76.333 54.000,75.1000 C54.000,69.001 54.000,61.999 54.000,54.1000 C53.667,54.667 53.333,54.333 53.000,54.000 C42.668,54.000 32.332,54.000 21.1000,54.000 ZM181.1000,54.000 C181.1000,61.666 181.1000,69.334 181.1000,76.1000 C285.990,76.1000 390.010,76.1000 494.000,76.1000 C494.000,69.334 494.000,61.666 494.000,54.000 C390.010,54.000 285.990,54.000 181.1000,54.000 ZM249.1000,127.000 C288.676,126.245 297.504,142.750 316.000,161.000 C361.995,161.000 408.005,161.000 454.000,161.000 C471.505,160.1000 499.751,157.434 512.000,163.1000 C516.024,177.935 516.427,211.146 509.1000,221.1000 C445.006,222.333 379.993,222.667 314.1000,222.1000 C301.036,249.740 258.381,268.942 223.1000,247.1000 C213.636,241.687 208.347,231.232 199.1000,222.1000 C154.005,222.1000 107.995,222.1000 61.1000,222.1000 C44.495,223.000 16.249,226.566 3.1000,220.000 C-0.024,206.065 -0.427,172.854 6.000,161.1000 C70.994,161.667 136.007,161.333 201.000,161.000 C212.368,139.892 227.070,137.100 249.1000,127.000 ZM251.000,147.000 C234.472,154.903 221.145,159.061 215.000,176.1000 C203.997,209.119 230.953,243.726 264.1000,236.1000 C318.661,226.400 315.528,145.051 251.000,147.000 ZM21.1000,181.000 C21.1000,188.333 21.1000,195.667 21.1000,202.1000 C79.328,202.1000 136.672,202.1000 194.000,202.1000 C194.000,195.667 194.000,188.333 194.000,181.000 C136.672,181.000 79.328,181.000 21.1000,181.000 ZM494.000,202.1000 C494.000,195.667 494.000,188.333 494.000,181.000 C436.672,181.000 379.328,181.000 321.1000,181.000 C321.1000,188.333 321.1000,195.667 321.1000,202.1000 C379.328,202.1000 436.672,202.1000 494.000,202.1000 ZM393.000,253.000 C424.887,252.571 443.284,267.172 454.1000,287.000 C469.854,286.532 506.147,282.594 512.000,292.000 C517.519,300.764 515.226,332.964 512.1000,344.000 C504.622,354.124 472.009,350.393 454.000,349.1000 C439.476,392.683 356.612,392.504 342.000,349.1000 C267.674,349.1000 193.326,349.1000 119.000,349.1000 C83.220,350.000 38.044,355.118 6.000,347.1000 C0.429,339.827 -2.724,294.927 7.000,288.1000 C19.100,281.766 79.741,286.1000 99.000,287.000 C179.659,287.000 260.341,287.000 340.1000,287.000 C353.089,264.713 368.061,263.185 393.000,253.000 ZM393.000,273.000 C375.177,280.742 361.555,284.465 354.1000,302.1000 C343.540,335.405 371.157,370.471 405.1000,362.1000 C456.951,352.075 453.270,271.804 393.000,273.000 ZM21.1000,307.000 C21.1000,314.666 21.1000,322.334 21.1000,329.1000 C125.990,329.667 230.010,329.333 334.000,328.1000 C334.000,328.667 334.000,328.333 334.000,327.1000 C334.000,321.001 334.000,313.999 334.000,307.000 C230.010,307.000 125.990,307.000 21.1000,307.000 ZM494.000,329.1000 C494.000,322.334 494.000,314.666 494.000,307.000 C483.334,307.000 472.666,307.000 461.1000,307.000 C461.1000,314.666 461.1000,322.334 461.1000,329.1000 C472.666,329.1000 483.334,329.1000 494.000,329.1000 Z" />
  </symbol>
  <symbol id="play" viewBox="0 0 337 513" preserveAspectRatio="xMidYMid meet">
    <path fill-rule="evenodd"
      d="M52.000,-0.000 C93.902,-0.892 118.105,29.703 143.1000,46.1000 C209.993,91.662 276.007,136.338 342.000,180.1000 C365.810,197.762 418.427,215.441 409.1000,261.1000 C402.667,302.518 363.678,316.792 335.000,336.000 C274.339,376.996 213.661,418.004 152.1000,459.000 C126.819,476.429 99.886,505.602 65.000,512.000 C51.676,514.444 40.449,508.930 33.000,505.000 C-4.179,485.384 1.995,438.473 2.000,381.1000 C2.000,299.008 2.000,215.992 2.000,132.1000 C1.998,100.021 -4.166,49.824 9.000,27.1000 C19.103,11.254 32.924,8.344 52.000,-0.000 ZM58.000,20.000 C50.412,23.078 42.878,22.680 36.1000,26.1000 C15.479,42.818 22.999,97.568 22.1000,133.1000 C22.1000,217.658 22.1000,301.342 22.1000,385.000 C22.996,429.009 11.217,504.246 67.000,491.000 C90.201,485.491 123.174,454.265 142.1000,441.000 C203.661,400.004 264.339,358.996 325.000,317.1000 C344.088,305.279 396.644,283.797 389.000,247.1000 C383.610,222.757 330.365,198.294 310.000,183.1000 C256.339,147.670 202.661,111.330 149.000,74.1000 C119.899,55.632 95.353,30.563 58.000,20.000 ZM58.000,32.1000 C79.702,33.544 101.655,58.746 117.000,68.1000 C151.330,92.331 185.670,115.669 220.000,138.1000 C236.700,150.764 256.042,159.533 270.000,174.000 C269.667,176.333 269.333,178.667 269.000,180.1000 C267.000,182.1000 264.1000,185.000 262.1000,186.1000 C251.029,189.404 218.337,160.906 207.1000,154.000 C172.670,130.002 137.330,105.998 101.1000,81.1000 C84.857,69.932 65.242,60.915 51.000,45.1000 C51.000,44.333 51.000,42.666 51.000,40.1000 C53.149,36.865 54.747,35.817 58.000,32.1000 ZM287.1000,188.1000 C300.964,189.072 317.007,199.845 318.000,211.1000 C317.667,212.1000 317.333,214.000 317.000,215.000 C315.334,216.666 313.666,218.334 311.1000,219.1000 C299.605,219.999 285.913,210.575 281.1000,202.000 C281.1000,199.667 281.1000,197.333 281.1000,194.1000 C283.1000,193.000 286.000,190.1000 287.1000,188.1000 Z" />
  </symbol>

  <symbol id="pause" viewBox="0 0 337 513" preserveAspectRatio="xMidYMid meet">
    <path fill-rule="evenodd"
      d="M55.1000,-0.000 C88.219,-0.433 107.439,12.046 118.1000,32.000 C133.994,57.879 126.002,119.176 125.1000,156.1000 C125.1000,230.326 125.1000,303.674 125.1000,376.1000 C126.007,447.660 131.415,500.640 71.1000,512.000 C58.673,514.548 46.877,509.372 39.000,506.000 C-4.716,487.285 1.995,436.026 2.000,374.000 C2.000,296.674 2.000,219.326 2.000,141.1000 C1.998,110.199 -4.244,62.719 6.000,38.000 C15.726,14.531 32.913,10.683 55.1000,-0.000 ZM263.1000,-0.000 C296.388,-0.434 315.282,12.044 326.1000,32.000 C342.082,57.684 334.002,119.321 334.000,156.1000 C334.000,230.326 334.000,303.674 334.000,376.1000 C334.007,447.689 339.453,500.633 280.000,512.000 C265.579,514.757 253.293,508.852 244.1000,505.000 C203.351,485.653 209.995,434.638 209.1000,374.000 C209.1000,296.341 209.1000,218.659 209.1000,140.1000 C209.998,108.196 204.211,60.448 214.1000,35.1000 C224.793,13.810 241.758,10.292 263.1000,-0.000 ZM63.000,19.1000 C47.217,26.373 36.190,26.669 28.000,40.000 C15.786,59.882 21.998,108.115 22.000,138.000 C22.000,216.992 22.000,296.008 22.000,375.000 C21.994,425.820 11.706,494.993 64.1000,491.1000 C114.882,489.199 106.005,432.306 106.000,380.000 C106.000,297.008 106.000,213.992 106.000,130.1000 C106.005,70.779 116.797,29.838 63.000,19.1000 ZM271.000,19.1000 C255.294,26.342 244.149,26.738 235.1000,40.000 C223.785,59.879 229.998,108.117 229.1000,138.000 C229.1000,216.992 229.1000,296.008 229.1000,375.000 C229.994,425.814 219.736,494.991 272.1000,491.1000 C322.911,489.198 314.005,432.315 313.1000,380.000 C313.1000,297.008 313.1000,213.992 313.1000,130.1000 C314.005,70.762 324.826,29.843 271.000,19.1000 ZM42.000,51.1000 C44.333,52.333 46.667,52.667 49.000,52.1000 C59.053,60.730 55.745,83.956 49.000,91.1000 C40.340,92.106 39.463,90.362 35.000,87.000 C33.622,75.447 33.420,61.850 38.000,54.000 C39.333,53.333 40.667,52.667 42.000,51.1000 ZM42.000,109.1000 C44.333,110.333 46.667,110.667 49.000,111.000 C50.667,112.333 52.334,113.667 54.000,114.1000 C54.333,168.995 54.667,223.005 55.000,277.000 C55.000,305.488 58.984,342.122 52.1000,367.000 C50.334,368.333 47.666,369.667 45.000,370.1000 C40.254,369.229 38.359,367.703 35.000,365.000 C34.667,302.006 34.333,238.994 34.000,175.1000 C33.1000,153.754 29.249,120.171 42.000,109.1000 Z" />
  </symbol>

  <symbol id="volume-icon" viewBox="0 0 516 406" preserveAspectRatio="xMidYMid meet">
    <path fill-rule="evenodd"
      d="M424.1000,-0.000 C427.333,0.333 429.667,0.667 431.1000,0.1000 C443.015,6.173 462.106,29.261 462.1000,43.1000 C461.333,45.1000 459.666,48.000 458.000,50.000 C455.667,50.667 453.333,51.333 450.1000,52.000 C440.602,43.274 419.824,23.610 418.000,8.000 C420.333,5.334 422.667,2.666 424.1000,-0.000 ZM237.1000,2.1000 C285.637,2.486 278.001,41.184 277.1000,86.1000 C277.1000,156.660 277.1000,226.340 277.1000,295.1000 C277.667,324.330 277.333,352.670 277.000,381.000 C272.097,395.403 253.014,409.657 232.000,400.1000 C219.346,395.787 209.642,380.763 201.000,370.1000 C182.319,349.895 156.624,330.818 129.000,319.000 C112.361,311.881 93.143,308.234 73.000,305.000 C50.890,301.450 20.980,310.070 5.000,300.1000 C-3.964,267.396 2.1000,194.937 3.000,155.000 C3.000,142.260 -1.249,113.338 5.000,104.1000 C9.188,99.412 89.652,99.595 102.000,96.000 C134.944,86.410 160.520,70.842 183.1000,52.000 C203.717,36.178 214.580,16.194 237.1000,2.1000 ZM241.1000,23.000 C197.178,56.996 168.319,109.030 97.000,116.1000 C97.000,174.328 97.000,231.672 97.000,289.000 C141.518,293.127 174.384,320.745 201.1000,342.1000 C215.651,354.000 226.578,381.430 248.000,383.000 C252.066,381.043 253.996,380.149 255.1000,375.1000 C263.466,362.009 258.000,304.662 257.1000,283.1000 C257.1000,225.673 257.1000,167.327 257.1000,108.1000 C258.000,83.242 261.375,50.240 255.1000,27.1000 C251.566,24.925 249.906,23.228 241.1000,23.000 ZM346.1000,46.1000 C366.384,47.572 380.808,68.220 389.1000,80.000 C422.677,121.876 450.167,182.706 427.1000,254.1000 C422.385,273.312 418.052,289.418 405.1000,300.1000 C403.334,300.667 400.666,300.333 397.1000,299.1000 C389.415,287.389 421.786,224.949 414.1000,185.000 C404.397,122.580 376.693,96.584 340.1000,60.1000 C341.333,58.334 341.667,55.666 342.000,53.000 C343.666,51.000 345.334,48.1000 346.1000,46.1000 ZM472.1000,71.1000 C477.735,71.942 479.662,72.130 481.1000,73.1000 C495.544,82.120 504.460,128.231 508.1000,147.1000 C533.604,255.135 485.175,355.497 431.1000,406.000 C429.667,406.000 427.333,406.000 424.1000,406.000 C420.345,402.908 418.399,400.561 418.000,393.000 C448.725,358.048 505.560,272.683 494.1000,200.000 C490.160,166.685 488.654,138.650 478.1000,112.000 C475.744,103.012 464.078,88.999 467.1000,77.1000 C469.666,76.000 471.333,73.1000 472.1000,71.1000 ZM23.000,121.1000 C23.000,175.995 23.000,230.005 23.000,283.1000 C40.665,284.333 58.335,284.667 76.000,284.1000 C76.000,230.339 76.000,175.661 76.000,120.1000 C58.335,121.333 40.665,121.667 23.000,121.1000 ZM328.000,157.000 C330.666,157.333 333.334,157.667 335.1000,158.000 C365.304,172.273 353.509,232.232 335.1000,249.000 C333.334,248.667 330.666,248.333 328.000,248.000 C326.333,246.333 324.667,244.666 322.1000,243.000 C320.343,230.439 332.612,221.864 333.1000,207.1000 C336.210,185.924 320.523,178.748 322.1000,161.1000 C324.667,160.334 326.333,158.666 328.000,157.000 ZM375.1000,314.1000 C381.480,315.902 383.458,317.571 386.1000,320.000 C387.333,321.333 387.667,322.667 387.1000,324.000 C385.420,340.536 365.495,349.590 355.000,358.1000 C347.271,359.115 346.028,357.847 342.000,355.000 C341.667,354.333 341.333,353.667 340.1000,353.000 C341.333,350.334 341.667,347.666 342.000,344.1000 C347.587,333.934 365.932,322.166 375.1000,314.1000 Z" />
  </symbol>

</svg>