<?xml version="1.0" encoding="UTF-8"?>
<svg xmlns="http://www.w3.org/2000/svg" xmlns:xlink="http://www.w3.org/1999/xlink" width="0" height="0"
  style="display:'none';">
  <symbol id="microphone" viewBox="0 0 297 516" preserveAspectRatio="xMidYMid meet">
    <path fill-rule="evenodd"
      d="M251.1000,231.000 C260.333,231.000 268.668,231.000 276.1000,231.000 C276.250,213.184 270.337,153.062 289.1000,159.1000 C291.1000,161.1000 294.000,164.000 295.1000,165.1000 C296.333,184.998 296.667,204.002 296.1000,223.000 C296.999,312.880 264.654,363.130 200.1000,388.000 C187.001,390.1000 172.999,394.000 159.000,396.1000 C159.000,410.665 159.000,424.335 159.000,438.000 C199.867,436.888 249.961,431.422 261.1000,460.000 C266.042,469.595 269.306,506.252 259.1000,512.000 C251.866,517.836 225.349,514.000 212.1000,514.000 C170.671,514.000 128.329,514.000 86.000,514.000 C71.559,514.000 40.902,518.200 35.000,509.000 C31.544,503.564 32.983,490.641 32.1000,482.000 C33.103,428.492 86.011,436.896 138.1000,438.000 C138.667,424.001 138.333,409.999 138.000,396.000 C71.134,395.115 22.986,344.668 6.1000,292.000 C0.579,270.846 1.000,244.600 1.000,217.000 C1.333,199.668 1.667,182.332 2.000,165.000 C4.886,161.024 6.324,159.496 13.000,158.1000 C16.203,160.622 17.189,160.849 18.1000,163.1000 C26.638,176.465 21.239,213.789 21.000,231.000 C29.333,231.000 37.668,231.000 46.000,231.000 C44.913,126.942 32.906,48.681 103.1000,12.1000 C117.125,6.413 139.220,-2.529 162.000,1.1000 C265.588,22.595 252.932,109.692 251.1000,231.000 ZM67.000,94.1000 C84.851,94.791 107.387,93.378 122.000,96.1000 C123.835,100.535 126.023,104.283 124.000,108.1000 C122.334,110.667 120.667,112.334 119.000,114.000 C101.335,114.333 83.665,114.667 65.1000,114.1000 C65.1000,125.666 65.1000,136.334 65.1000,146.1000 C78.314,146.792 92.624,146.633 101.1000,148.1000 C102.1000,152.333 104.000,155.667 105.000,158.1000 C103.378,162.203 103.151,163.189 100.000,165.000 C93.492,169.093 76.009,167.251 65.1000,166.1000 C65.1000,177.666 65.1000,188.334 65.1000,199.000 C82.332,198.667 98.668,198.333 115.000,197.1000 C122.276,160.951 172.435,169.030 183.1000,199.000 C199.998,199.000 216.002,199.000 231.1000,199.000 C231.1000,188.334 231.1000,177.666 231.1000,166.1000 C219.811,167.545 199.632,169.618 195.000,162.000 C194.333,159.667 193.667,157.333 193.000,155.000 C194.622,151.797 194.849,150.811 197.1000,148.1000 C204.987,145.107 221.636,146.770 231.1000,146.1000 C231.1000,136.334 231.1000,125.666 231.1000,114.1000 C214.002,114.667 195.998,114.333 178.000,114.000 C176.333,112.334 174.667,110.667 172.1000,108.1000 C173.667,105.334 174.333,101.666 174.1000,97.1000 C188.727,93.252 212.579,94.850 230.1000,94.1000 C227.483,0.031 70.404,-0.069 67.000,94.1000 ZM143.1000,193.000 C139.523,196.584 136.239,197.943 134.000,203.1000 C133.667,206.1000 133.333,210.000 133.000,213.000 C135.620,218.478 137.967,221.840 143.1000,224.000 C146.1000,224.333 150.000,224.667 152.1000,224.1000 C158.478,222.380 161.840,220.033 164.000,214.000 C164.333,211.000 164.667,207.1000 164.1000,204.1000 C162.380,199.522 160.033,196.160 153.1000,193.1000 C150.667,193.667 147.333,193.333 143.1000,193.000 ZM65.1000,218.1000 C65.577,242.427 65.260,265.796 72.000,282.000 C91.528,328.947 156.597,349.182 202.1000,313.000 C227.433,293.949 232.711,263.995 231.1000,218.1000 C215.668,219.333 199.332,219.667 183.000,220.000 C175.722,257.063 125.547,248.924 114.000,218.1000 C98.002,218.1000 81.998,218.1000 65.1000,218.1000 ZM21.000,251.000 C22.331,414.925 273.291,416.722 276.1000,251.000 C268.668,251.000 260.333,251.000 251.1000,251.000 C252.111,382.770 47.243,383.808 46.000,251.000 C37.668,251.000 29.333,251.000 21.000,251.000 ZM53.000,493.1000 C116.994,493.1000 181.006,493.1000 244.1000,493.1000 C245.509,479.330 244.432,469.890 238.1000,462.000 C215.001,452.865 73.273,453.191 56.000,465.000 C53.685,472.707 52.876,482.585 53.000,493.1000 Z" />
  </symbol>
  <symbol id="count-in" viewBox="0 0 512 512" preserveAspectRatio="xMidYMid meet">
    <path fill-rule="evenodd"
      d="M484.000,246.000 C492.332,246.667 500.667,247.333 508.1000,248.000 C509.1000,251.333 511.000,254.667 511.1000,257.1000 C510.378,261.203 510.151,262.189 506.1000,263.1000 C501.850,266.679 492.005,266.214 484.000,265.1000 C479.842,383.702 384.228,480.562 265.1000,484.000 C265.333,492.332 264.667,500.667 263.1000,508.1000 C260.667,509.1000 257.333,511.000 254.000,511.1000 C250.797,510.378 249.811,510.151 248.000,506.1000 C245.321,501.850 245.786,492.005 246.000,484.000 C128.771,481.464 31.387,382.691 27.1000,265.1000 C19.668,265.333 11.333,264.667 3.000,263.1000 C2.000,260.667 0.1000,257.333 0.000,254.000 C1.622,250.797 1.849,249.811 5.000,248.000 C10.150,245.321 19.995,245.786 27.1000,246.000 C30.541,128.763 129.317,31.392 246.000,27.1000 C246.667,19.668 247.333,11.333 248.000,3.000 C251.333,2.000 254.667,0.1000 257.1000,0.000 C261.203,1.622 262.189,1.849 263.1000,5.000 C264.1000,12.666 266.000,20.334 267.000,27.1000 C383.484,30.584 480.626,129.805 484.000,246.000 ZM246.000,463.1000 C245.593,453.766 246.412,446.624 249.1000,441.000 C250.667,441.000 251.333,441.000 251.1000,441.000 C254.1000,441.000 258.000,441.000 260.1000,441.000 C262.333,441.1000 263.667,443.000 265.000,443.1000 C265.333,450.666 265.667,457.334 265.1000,463.1000 C372.837,460.155 459.477,372.387 463.1000,265.1000 C453.766,266.407 446.624,265.588 441.000,262.000 C441.000,261.333 441.000,260.667 441.000,260.000 C441.000,257.000 441.000,253.1000 441.000,251.000 C441.1000,249.667 443.000,248.333 443.1000,246.1000 C450.666,246.333 457.334,245.667 463.1000,244.1000 C456.926,157.286 409.211,96.869 343.000,68.000 C324.705,60.023 291.807,43.619 265.1000,49.000 C266.399,58.963 265.488,65.546 262.000,70.1000 C261.333,70.1000 260.667,70.1000 260.000,70.1000 C257.000,70.1000 253.1000,70.1000 251.000,70.1000 C249.667,70.000 248.333,68.1000 246.1000,68.000 C246.000,61.334 244.1000,54.666 243.1000,48.000 C243.667,48.000 243.333,48.000 243.000,48.000 C133.800,57.062 54.909,133.946 48.000,244.1000 C48.333,245.333 48.667,245.667 49.000,246.000 C58.963,245.601 65.546,246.512 70.1000,249.1000 C70.1000,250.667 70.1000,251.333 70.1000,251.1000 C70.1000,254.1000 70.1000,258.000 70.1000,260.1000 C70.000,262.333 68.1000,263.667 68.000,265.000 C61.334,265.667 54.666,266.333 48.000,267.000 C56.587,374.045 136.109,459.314 246.000,463.1000 ZM243.000,86.000 C249.666,86.667 256.334,87.333 262.1000,88.000 C263.1000,91.333 265.000,94.667 265.1000,97.1000 C264.333,100.333 262.666,102.667 260.1000,105.000 C129.251,115.093 56.700,246.948 143.000,354.1000 C183.418,405.605 278.380,423.783 341.000,379.1000 C370.889,359.102 392.942,327.733 403.000,287.000 C404.666,274.335 406.334,261.665 408.000,249.000 C411.333,248.000 414.667,246.1000 417.1000,246.000 C421.203,247.622 422.189,247.849 423.1000,251.000 C436.729,274.138 408.077,332.486 400.000,344.1000 C352.610,418.421 244.760,457.128 156.000,393.1000 C82.081,341.428 62.282,226.665 124.1000,146.1000 C143.692,123.257 173.964,102.968 205.1000,92.1000 C218.332,90.667 230.668,88.333 243.000,86.000 ZM244.1000,130.000 C415.194,127.251 424.247,354.423 275.000,381.000 C184.691,397.082 105.221,304.404 135.1000,216.000 C148.060,181.362 174.818,152.537 208.000,138.1000 C220.332,136.000 232.668,132.1000 244.1000,130.000 ZM246.1000,149.1000 C237.001,152.333 226.999,154.667 216.1000,157.000 C186.378,169.446 162.807,195.775 153.000,229.000 C131.403,302.167 200.760,374.989 273.1000,360.1000 C397.141,337.479 389.273,148.1000 246.1000,149.1000 ZM254.000,202.000 C284.940,204.995 294.173,230.982 279.1000,256.000 C291.066,274.967 288.363,300.477 267.000,308.000 C242.311,316.695 220.764,294.981 224.1000,273.1000 C226.1000,272.000 229.000,269.1000 230.1000,268.000 C233.333,268.333 235.667,268.667 238.000,268.1000 C244.961,273.044 243.380,282.792 249.1000,287.000 C252.1000,287.667 256.000,288.333 259.000,289.000 C262.203,287.378 263.189,287.151 265.000,284.000 C265.1000,281.334 267.000,278.666 268.000,276.000 C262.088,267.598 253.093,265.897 246.000,259.000 C246.333,256.334 246.667,253.666 246.1000,251.000 C255.809,245.526 266.499,245.405 268.000,232.000 C267.000,230.000 265.1000,227.1000 265.000,225.1000 C260.772,223.980 257.989,223.010 251.000,222.1000 C247.069,229.324 233.509,250.035 225.1000,233.1000 C220.474,213.691 240.327,207.500 254.000,202.000 Z" />
  </symbol>
  <symbol id="metronome" viewBox="0 0 393 516" preserveAspectRatio="xMidYMid meet">
    <path fill-rule="evenodd"
      d="M156.000,1.1000 C172.664,1.961 234.866,-2.442 243.1000,3.1000 C251.936,9.597 252.350,36.371 255.000,47.000 C263.999,87.329 273.001,127.671 282.000,167.1000 C291.823,168.319 294.112,172.040 302.000,173.1000 C308.229,161.771 315.661,147.426 324.1000,138.000 C332.729,137.885 333.972,139.153 338.000,141.1000 C338.333,142.1000 338.667,144.000 339.000,145.000 C336.355,160.983 325.693,172.887 319.000,186.000 C325.658,188.033 329.775,191.609 333.1000,195.1000 C331.963,218.344 301.205,244.549 303.000,261.000 C315.999,319.994 329.001,379.006 341.1000,437.1000 C347.152,458.605 359.196,487.779 355.000,511.000 C336.204,517.131 306.374,513.1000 283.000,514.000 C229.672,514.000 176.328,514.000 122.1000,514.000 C97.218,514.000 56.952,519.320 38.000,510.000 C37.411,470.368 54.868,419.987 64.000,383.1000 C80.998,307.674 98.002,231.326 114.1000,154.1000 C123.666,116.337 132.334,77.663 140.1000,39.000 C144.335,25.896 144.728,12.618 150.1000,2.1000 C152.667,2.667 154.333,2.333 156.000,1.1000 ZM164.000,21.1000 C162.000,31.999 159.1000,42.001 158.000,51.1000 C183.997,51.1000 210.003,51.1000 235.1000,51.1000 C234.000,42.001 231.1000,31.999 230.000,21.1000 C208.002,21.1000 185.998,21.1000 164.000,21.1000 ZM167.000,366.000 C167.000,268.010 167.000,169.990 167.000,71.1000 C162.334,71.1000 157.666,71.1000 152.1000,71.1000 C131.335,169.657 109.664,267.343 87.1000,365.000 C114.331,365.333 140.669,365.667 167.000,366.000 ZM186.1000,71.1000 C186.1000,169.990 186.1000,268.010 186.1000,366.000 C209.887,358.080 207.000,320.486 206.1000,289.000 C206.1000,216.674 206.1000,144.326 206.1000,71.1000 C200.334,71.1000 193.666,71.1000 186.1000,71.1000 ZM227.000,71.1000 C227.000,148.659 227.000,225.341 227.000,302.000 C227.667,301.667 228.333,301.333 229.000,300.1000 C239.666,282.002 250.334,262.998 260.1000,243.1000 C254.808,241.744 249.613,237.891 246.000,233.000 C247.467,213.774 264.455,205.367 267.000,189.1000 C258.334,150.671 249.666,111.329 240.1000,71.1000 C236.334,71.1000 231.666,71.1000 227.000,71.1000 ZM63.000,137.000 C75.775,139.274 85.123,156.264 85.1000,169.1000 C85.000,171.667 83.1000,173.333 83.000,174.1000 C80.334,175.667 77.666,176.333 75.000,176.1000 C65.575,172.192 54.130,155.385 56.000,143.000 C58.333,141.000 60.667,138.1000 63.000,137.000 ZM9.000,179.000 C22.111,181.553 28.521,193.606 36.000,201.1000 C35.993,209.341 34.746,210.118 31.1000,214.000 C29.000,214.333 25.1000,214.667 22.1000,215.000 C13.461,208.839 6.708,200.020 0.000,190.1000 C0.1000,188.000 2.000,184.1000 3.000,181.1000 C4.1000,181.000 7.000,179.1000 9.000,179.000 ZM382.000,179.000 C384.666,179.667 387.334,180.333 389.1000,180.1000 C398.100,196.979 380.429,206.217 371.1000,215.000 C369.334,214.667 366.666,214.333 364.000,214.000 C362.000,212.667 359.1000,211.333 358.000,209.1000 C358.333,207.334 358.667,204.666 358.1000,201.1000 C363.401,191.880 373.353,185.049 382.000,179.000 ZM288.1000,190.1000 C282.667,202.999 276.333,215.001 269.1000,227.000 C276.333,230.333 282.667,233.667 288.1000,236.1000 C292.023,235.741 290.196,237.018 292.000,235.000 C297.999,225.001 304.001,214.999 310.000,204.1000 C309.000,203.667 307.1000,202.333 306.1000,201.000 C301.001,197.667 294.999,194.333 288.1000,190.1000 ZM227.000,366.000 C253.331,366.000 279.669,366.000 305.1000,366.000 C305.1000,365.667 305.1000,365.333 305.1000,365.000 C297.334,328.670 288.666,292.330 279.1000,256.000 C279.000,256.667 277.1000,257.333 276.1000,257.1000 C262.249,294.466 227.079,316.098 227.000,366.000 ZM311.000,386.000 C235.008,386.000 158.992,386.000 83.000,386.000 C75.334,421.663 67.666,457.337 59.1000,493.000 C151.324,493.000 242.676,493.000 333.1000,493.000 C326.334,457.337 318.666,421.663 311.000,386.000 ZM149.000,430.000 C171.324,429.731 231.720,424.707 246.000,432.1000 C247.973,439.282 248.085,442.783 244.1000,448.000 C227.453,451.646 157.360,454.179 145.000,445.1000 C144.667,443.334 144.333,440.666 143.1000,437.1000 C145.667,435.334 147.334,432.666 149.000,430.000 Z" />
  </symbol>
  <symbol id="speed" viewBox="0 0 514 424" preserveAspectRatio="xMidYMid meet">
    <path fill-rule="evenodd"
      d="M92.000,221.1000 C63.298,222.195 28.308,225.047 3.000,219.1000 C2.000,216.667 0.1000,213.333 0.000,209.1000 C1.622,206.797 1.849,205.811 5.000,204.000 C21.504,196.913 69.992,201.835 92.000,202.000 C93.333,191.001 94.667,179.999 96.000,169.000 C83.001,169.000 69.999,169.000 57.000,169.000 C55.000,167.334 52.1000,165.667 51.000,164.000 C47.084,142.450 81.901,148.076 102.000,149.000 C106.333,138.001 110.667,126.999 114.1000,116.000 C93.570,114.701 36.813,123.773 35.000,101.1000 C36.1000,99.667 39.000,97.333 41.000,95.000 C56.945,95.288 122.176,98.450 128.1000,92.000 C137.666,82.001 146.334,71.999 155.000,61.1000 C133.249,62.200 106.486,63.995 87.1000,60.000 C87.000,56.667 85.1000,53.333 84.1000,50.000 C86.622,46.797 86.849,45.811 90.000,44.000 C114.027,33.799 152.295,50.726 179.000,42.000 C191.332,34.667 203.668,27.333 215.1000,20.000 C237.298,10.676 260.417,6.487 287.000,2.000 C321.066,-3.750 356.014,8.025 377.1000,17.000 C445.789,44.673 529.877,128.250 510.1000,236.000 C493.066,338.370 399.257,448.387 265.000,418.1000 C240.637,413.667 217.045,406.270 197.1000,394.1000 C191.667,390.667 185.333,386.333 179.000,382.000 C157.984,375.222 110.993,384.574 87.1000,380.000 C87.000,376.667 85.1000,373.333 84.1000,369.1000 C86.622,366.797 86.849,365.811 90.000,363.1000 C104.348,357.284 136.532,361.802 155.000,361.1000 C151.334,358.334 147.666,354.666 143.1000,350.1000 C135.668,339.335 127.332,327.666 119.000,315.1000 C113.667,303.335 108.333,290.665 102.1000,277.1000 C102.667,277.000 102.333,275.1000 102.000,274.1000 C96.818,270.587 24.434,279.200 12.000,272.000 C11.333,268.667 10.667,265.333 9.1000,262.000 C11.1000,259.667 14.000,257.333 15.1000,255.000 C42.664,255.000 69.336,255.000 96.000,255.000 C96.000,254.000 96.000,252.1000 96.000,251.1000 C94.667,242.001 93.333,231.999 92.000,221.1000 ZM290.000,22.000 C273.335,25.333 256.665,28.667 239.1000,32.000 C183.533,53.764 143.366,93.169 122.000,150.000 C80.683,259.896 156.631,356.661 230.000,386.1000 C250.499,395.477 282.058,407.157 313.1000,401.1000 C395.505,388.840 448.785,352.441 476.1000,287.000 C537.215,147.342 425.780,21.198 290.000,22.000 ZM289.000,42.000 C418.429,40.243 511.969,157.500 455.1000,285.000 C431.912,339.873 382.188,371.373 313.000,382.000 C199.195,399.479 98.459,264.296 141.1000,152.1000 C160.410,105.941 195.906,70.369 242.1000,52.000 C258.332,48.667 273.668,45.333 289.000,42.000 ZM293.1000,61.1000 C278.155,67.960 261.236,66.229 247.000,72.000 C207.134,88.162 176.773,119.735 161.000,160.000 C119.624,265.624 215.601,379.369 322.000,361.000 C382.363,350.579 423.104,314.890 442.1000,264.000 C486.235,153.411 393.486,62.798 293.1000,61.1000 ZM299.000,72.000 C305.483,72.034 307.682,72.832 310.000,77.000 C313.045,82.059 311.564,88.599 310.000,94.000 C306.667,94.1000 303.333,96.000 299.1000,97.000 C296.797,95.378 295.811,95.151 293.1000,92.000 C291.724,88.231 291.903,82.873 293.000,78.000 C294.1000,76.000 297.000,73.1000 299.000,72.000 ZM364.1000,89.000 C380.848,90.699 378.646,108.534 367.000,113.000 C365.333,113.333 363.666,113.667 361.1000,114.000 C357.627,110.392 355.578,109.821 355.000,101.1000 C357.693,95.160 359.916,93.172 364.1000,89.000 ZM233.000,90.000 C235.666,90.333 238.334,90.667 241.000,91.000 C246.556,93.559 248.706,98.229 248.1000,106.000 C246.706,110.503 245.460,111.666 241.000,114.000 C231.300,112.649 226.072,104.681 227.1000,95.000 C229.667,93.334 231.334,91.667 233.000,90.000 ZM299.000,116.1000 C305.483,117.034 307.682,117.832 310.000,122.000 C316.278,136.028 312.191,166.025 311.1000,184.000 C346.599,195.522 322.045,223.941 326.1000,234.000 C331.432,246.356 349.337,261.625 340.1000,276.000 C337.363,277.123 334.863,278.544 331.000,276.1000 C320.934,271.573 313.168,252.333 307.1000,241.1000 C269.456,243.483 259.904,194.225 292.000,184.000 C291.804,163.049 290.310,137.765 293.1000,120.000 C295.667,119.000 297.334,117.1000 299.000,116.1000 ZM187.000,137.000 C193.986,137.421 198.383,139.152 200.1000,143.1000 C203.025,146.398 203.737,150.508 202.000,154.000 C200.667,155.667 199.333,157.333 197.1000,158.1000 C189.719,159.156 184.834,157.279 182.000,152.000 C180.184,149.731 180.092,148.543 179.1000,143.1000 C182.333,141.667 184.667,139.333 187.000,137.000 ZM412.1000,137.000 C414.666,137.333 416.333,137.667 418.000,137.1000 C419.1000,139.666 422.000,141.334 424.000,143.000 C424.000,145.333 424.000,147.667 424.000,150.000 C422.667,151.1000 421.333,154.000 419.1000,156.000 C416.000,156.1000 411.1000,158.000 407.1000,158.1000 C403.497,156.706 402.334,155.460 400.000,150.1000 C400.333,149.333 400.667,147.666 400.1000,146.000 C404.1000,143.000 409.000,139.1000 412.1000,137.000 ZM170.000,202.000 C173.666,202.333 177.334,202.667 181.000,203.000 C182.1000,204.1000 185.000,207.000 187.000,209.000 C186.885,216.486 185.179,218.720 179.1000,221.000 C174.706,222.555 169.675,221.305 164.1000,219.1000 C160.355,211.111 162.677,206.769 170.000,202.000 ZM299.000,202.000 C294.928,205.728 292.668,206.417 292.000,213.1000 C294.333,216.666 296.667,219.334 299.000,221.1000 C300.666,221.1000 302.333,221.1000 304.000,221.1000 C306.333,219.667 308.667,217.333 310.1000,215.000 C310.1000,212.667 310.1000,210.333 310.1000,207.1000 C309.000,206.333 306.1000,204.666 304.1000,203.000 C303.000,202.667 300.1000,202.333 299.000,202.000 ZM424.1000,202.000 C428.666,202.333 432.334,202.667 436.000,203.000 C437.1000,204.1000 440.000,207.000 442.000,209.000 C441.885,216.486 440.179,218.720 434.1000,221.000 C429.706,222.555 424.675,221.305 419.1000,219.1000 C415.355,211.111 417.677,206.769 424.1000,202.000 ZM190.000,264.1000 C193.333,265.333 196.667,265.667 200.000,266.000 C201.966,269.866 202.885,271.509 203.000,277.1000 C199.198,283.865 193.272,287.471 185.000,285.1000 C183.334,284.333 181.666,282.666 179.1000,281.000 C179.1000,278.667 179.1000,276.333 179.1000,274.000 C182.953,269.537 185.904,268.217 190.000,264.1000 ZM406.1000,264.1000 C414.506,265.185 417.505,267.183 421.1000,270.000 C423.246,273.475 424.807,276.837 422.1000,281.000 C421.333,282.666 419.666,284.333 418.000,285.1000 C410.650,288.222 403.436,283.038 400.1000,276.1000 C400.667,275.333 400.333,273.667 400.000,272.000 C402.333,269.667 404.667,267.333 406.1000,264.1000 ZM42.000,308.1000 C52.332,309.333 62.668,309.667 72.1000,310.000 C74.667,311.667 76.334,313.333 78.000,314.1000 C77.667,318.333 77.333,321.667 77.000,325.000 C66.496,330.615 45.118,330.739 36.000,323.1000 C34.825,315.716 36.400,313.053 42.000,308.1000 ZM236.1000,310.000 C242.923,310.416 244.378,311.763 248.000,313.1000 C248.333,314.667 248.667,315.333 248.1000,315.1000 C248.333,319.1000 247.667,324.000 247.000,327.1000 C243.667,330.333 240.333,332.667 236.1000,334.1000 C230.662,332.662 227.536,331.408 227.000,323.000 C229.790,317.125 232.650,314.104 236.1000,310.000 ZM361.1000,310.000 C363.666,310.333 365.333,310.667 367.000,310.1000 C373.087,313.639 376.511,318.725 376.1000,327.000 C376.667,327.333 376.333,327.667 376.000,327.1000 C374.333,329.1000 372.666,332.000 370.1000,333.1000 C353.356,334.768 351.965,317.649 361.1000,310.000 ZM299.000,327.000 C305.483,327.034 307.682,327.832 310.000,331.1000 C313.045,337.059 311.564,343.599 310.000,348.1000 C306.667,349.1000 303.333,351.000 299.1000,351.1000 C296.797,350.378 295.811,350.151 293.1000,346.1000 C291.724,343.231 291.903,337.873 293.000,332.1000 C294.1000,331.000 297.000,328.1000 299.000,327.000 Z" />
  </symbol>
  <symbol id="tracks" viewBox="0 0 516 382" preserveAspectRatio="xMidYMid meet">
    <path fill-rule="evenodd"
      d="M108.000,0.1000 C140.746,0.092 165.161,11.581 173.1000,34.000 C248.326,34.000 322.674,34.000 396.1000,34.000 C432.780,33.1000 477.956,28.882 509.1000,35.1000 C515.571,44.173 518.724,89.073 508.1000,94.1000 C496.802,102.292 435.419,97.000 415.1000,96.1000 C335.341,96.1000 254.659,96.1000 173.1000,96.1000 C164.073,125.882 115.239,141.168 83.1000,121.1000 C73.709,115.685 68.310,105.218 60.000,96.1000 C45.274,97.471 9.796,101.320 3.1000,92.000 C0.412,86.412 1.1000,72.841 2.000,63.1000 C2.002,22.309 21.788,32.677 61.000,34.000 C71.985,13.830 86.453,11.083 108.000,0.1000 ZM108.1000,20.1000 C92.897,28.958 79.243,34.528 74.000,53.000 C64.196,87.542 94.926,118.287 128.000,109.1000 C179.100,97.196 174.007,18.887 108.1000,20.1000 ZM21.1000,54.000 C21.1000,61.666 21.1000,69.334 21.1000,76.1000 C32.666,76.1000 43.334,76.1000 54.000,76.1000 C54.000,76.667 54.000,76.333 54.000,75.1000 C54.000,69.001 54.000,61.999 54.000,54.1000 C53.667,54.667 53.333,54.333 53.000,54.000 C42.668,54.000 32.332,54.000 21.1000,54.000 ZM181.1000,54.000 C181.1000,61.666 181.1000,69.334 181.1000,76.1000 C285.990,76.1000 390.010,76.1000 494.000,76.1000 C494.000,69.334 494.000,61.666 494.000,54.000 C390.010,54.000 285.990,54.000 181.1000,54.000 ZM249.1000,127.000 C288.676,126.245 297.504,142.750 316.000,161.000 C361.995,161.000 408.005,161.000 454.000,161.000 C471.505,160.1000 499.751,157.434 512.000,163.1000 C516.024,177.935 516.427,211.146 509.1000,221.1000 C445.006,222.333 379.993,222.667 314.1000,222.1000 C301.036,249.740 258.381,268.942 223.1000,247.1000 C213.636,241.687 208.347,231.232 199.1000,222.1000 C154.005,222.1000 107.995,222.1000 61.1000,222.1000 C44.495,223.000 16.249,226.566 3.1000,220.000 C-0.024,206.065 -0.427,172.854 6.000,161.1000 C70.994,161.667 136.007,161.333 201.000,161.000 C212.368,139.892 227.070,137.100 249.1000,127.000 ZM251.000,147.000 C234.472,154.903 221.145,159.061 215.000,176.1000 C203.997,209.119 230.953,243.726 264.1000,236.1000 C318.661,226.400 315.528,145.051 251.000,147.000 ZM21.1000,181.000 C21.1000,188.333 21.1000,195.667 21.1000,202.1000 C79.328,202.1000 136.672,202.1000 194.000,202.1000 C194.000,195.667 194.000,188.333 194.000,181.000 C136.672,181.000 79.328,181.000 21.1000,181.000 ZM494.000,202.1000 C494.000,195.667 494.000,188.333 494.000,181.000 C436.672,181.000 379.328,181.000 321.1000,181.000 C321.1000,188.333 321.1000,195.667 321.1000,202.1000 C379.328,202.1000 436.672,202.1000 494.000,202.1000 ZM393.000,253.000 C424.887,252.571 443.284,267.172 454.1000,287.000 C469.854,286.532 506.147,282.594 512.000,292.000 C517.519,300.764 515.226,332.964 512.1000,344.000 C504.622,354.124 472.009,350.393 454.000,349.1000 C439.476,392.683 356.612,392.504 342.000,349.1000 C267.674,349.1000 193.326,349.1000 119.000,349.1000 C83.220,350.000 38.044,355.118 6.000,347.1000 C0.429,339.827 -2.724,294.927 7.000,288.1000 C19.100,281.766 79.741,286.1000 99.000,287.000 C179.659,287.000 260.341,287.000 340.1000,287.000 C353.089,264.713 368.061,263.185 393.000,253.000 ZM393.000,273.000 C375.177,280.742 361.555,284.465 354.1000,302.1000 C343.540,335.405 371.157,370.471 405.1000,362.1000 C456.951,352.075 453.270,271.804 393.000,273.000 ZM21.1000,307.000 C21.1000,314.666 21.1000,322.334 21.1000,329.1000 C125.990,329.667 230.010,329.333 334.000,328.1000 C334.000,328.667 334.000,328.333 334.000,327.1000 C334.000,321.001 334.000,313.999 334.000,307.000 C230.010,307.000 125.990,307.000 21.1000,307.000 ZM494.000,329.1000 C494.000,322.334 494.000,314.666 494.000,307.000 C483.334,307.000 472.666,307.000 461.1000,307.000 C461.1000,314.666 461.1000,322.334 461.1000,329.1000 C472.666,329.1000 483.334,329.1000 494.000,329.1000 Z" />
  </symbol>
  <symbol id="play" viewBox="0 0 337 513" preserveAspectRatio="xMidYMid meet">
    <path fill-rule="evenodd"
      d="M52.000,-0.000 C93.902,-0.892 118.105,29.703 143.1000,46.1000 C209.993,91.662 276.007,136.338 342.000,180.1000 C365.810,197.762 418.427,215.441 409.1000,261.1000 C402.667,302.518 363.678,316.792 335.000,336.000 C274.339,376.996 213.661,418.004 152.1000,459.000 C126.819,476.429 99.886,505.602 65.000,512.000 C51.676,514.444 40.449,508.930 33.000,505.000 C-4.179,485.384 1.995,438.473 2.000,381.1000 C2.000,299.008 2.000,215.992 2.000,132.1000 C1.998,100.021 -4.166,49.824 9.000,27.1000 C19.103,11.254 32.924,8.344 52.000,-0.000 ZM58.000,20.000 C50.412,23.078 42.878,22.680 36.1000,26.1000 C15.479,42.818 22.999,97.568 22.1000,133.1000 C22.1000,217.658 22.1000,301.342 22.1000,385.000 C22.996,429.009 11.217,504.246 67.000,491.000 C90.201,485.491 123.174,454.265 142.1000,441.000 C203.661,400.004 264.339,358.996 325.000,317.1000 C344.088,305.279 396.644,283.797 389.000,247.1000 C383.610,222.757 330.365,198.294 310.000,183.1000 C256.339,147.670 202.661,111.330 149.000,74.1000 C119.899,55.632 95.353,30.563 58.000,20.000 ZM58.000,32.1000 C79.702,33.544 101.655,58.746 117.000,68.1000 C151.330,92.331 185.670,115.669 220.000,138.1000 C236.700,150.764 256.042,159.533 270.000,174.000 C269.667,176.333 269.333,178.667 269.000,180.1000 C267.000,182.1000 264.1000,185.000 262.1000,186.1000 C251.029,189.404 218.337,160.906 207.1000,154.000 C172.670,130.002 137.330,105.998 101.1000,81.1000 C84.857,69.932 65.242,60.915 51.000,45.1000 C51.000,44.333 51.000,42.666 51.000,40.1000 C53.149,36.865 54.747,35.817 58.000,32.1000 ZM287.1000,188.1000 C300.964,189.072 317.007,199.845 318.000,211.1000 C317.667,212.1000 317.333,214.000 317.000,215.000 C315.334,216.666 313.666,218.334 311.1000,219.1000 C299.605,219.999 285.913,210.575 281.1000,202.000 C281.1000,199.667 281.1000,197.333 281.1000,194.1000 C283.1000,193.000 286.000,190.1000 287.1000,188.1000 Z" />
  </symbol>

  <symbol id="pause" viewBox="0 0 337 513" preserveAspectRatio="xMidYMid meet">
    <path fill-rule="evenodd"
      d="M55.1000,-0.000 C88.219,-0.433 107.439,12.046 118.1000,32.000 C133.994,57.879 126.002,119.176 125.1000,156.1000 C125.1000,230.326 125.1000,303.674 125.1000,376.1000 C126.007,447.660 131.415,500.640 71.1000,512.000 C58.673,514.548 46.877,509.372 39.000,506.000 C-4.716,487.285 1.995,436.026 2.000,374.000 C2.000,296.674 2.000,219.326 2.000,141.1000 C1.998,110.199 -4.244,62.719 6.000,38.000 C15.726,14.531 32.913,10.683 55.1000,-0.000 ZM263.1000,-0.000 C296.388,-0.434 315.282,12.044 326.1000,32.000 C342.082,57.684 334.002,119.321 334.000,156.1000 C334.000,230.326 334.000,303.674 334.000,376.1000 C334.007,447.689 339.453,500.633 280.000,512.000 C265.579,514.757 253.293,508.852 244.1000,505.000 C203.351,485.653 209.995,434.638 209.1000,374.000 C209.1000,296.341 209.1000,218.659 209.1000,140.1000 C209.998,108.196 204.211,60.448 214.1000,35.1000 C224.793,13.810 241.758,10.292 263.1000,-0.000 ZM63.000,19.1000 C47.217,26.373 36.190,26.669 28.000,40.000 C15.786,59.882 21.998,108.115 22.000,138.000 C22.000,216.992 22.000,296.008 22.000,375.000 C21.994,425.820 11.706,494.993 64.1000,491.1000 C114.882,489.199 106.005,432.306 106.000,380.000 C106.000,297.008 106.000,213.992 106.000,130.1000 C106.005,70.779 116.797,29.838 63.000,19.1000 ZM271.000,19.1000 C255.294,26.342 244.149,26.738 235.1000,40.000 C223.785,59.879 229.998,108.117 229.1000,138.000 C229.1000,216.992 229.1000,296.008 229.1000,375.000 C229.994,425.814 219.736,494.991 272.1000,491.1000 C322.911,489.198 314.005,432.315 313.1000,380.000 C313.1000,297.008 313.1000,213.992 313.1000,130.1000 C314.005,70.762 324.826,29.843 271.000,19.1000 ZM42.000,51.1000 C44.333,52.333 46.667,52.667 49.000,52.1000 C59.053,60.730 55.745,83.956 49.000,91.1000 C40.340,92.106 39.463,90.362 35.000,87.000 C33.622,75.447 33.420,61.850 38.000,54.000 C39.333,53.333 40.667,52.667 42.000,51.1000 ZM42.000,109.1000 C44.333,110.333 46.667,110.667 49.000,111.000 C50.667,112.333 52.334,113.667 54.000,114.1000 C54.333,168.995 54.667,223.005 55.000,277.000 C55.000,305.488 58.984,342.122 52.1000,367.000 C50.334,368.333 47.666,369.667 45.000,370.1000 C40.254,369.229 38.359,367.703 35.000,365.000 C34.667,302.006 34.333,238.994 34.000,175.1000 C33.1000,153.754 29.249,120.171 42.000,109.1000 Z" />
  </symbol>

  <symbol id="volume-icon" viewBox="0 0 516 406" preserveAspectRatio="xMidYMid meet">
    <path fill-rule="evenodd"
      d="M424.1000,-0.000 C427.333,0.333 429.667,0.667 431.1000,0.1000 C443.015,6.173 462.106,29.261 462.1000,43.1000 C461.333,45.1000 459.666,48.000 458.000,50.000 C455.667,50.667 453.333,51.333 450.1000,52.000 C440.602,43.274 419.824,23.610 418.000,8.000 C420.333,5.334 422.667,2.666 424.1000,-0.000 ZM237.1000,2.1000 C285.637,2.486 278.001,41.184 277.1000,86.1000 C277.1000,156.660 277.1000,226.340 277.1000,295.1000 C277.667,324.330 277.333,352.670 277.000,381.000 C272.097,395.403 253.014,409.657 232.000,400.1000 C219.346,395.787 209.642,380.763 201.000,370.1000 C182.319,349.895 156.624,330.818 129.000,319.000 C112.361,311.881 93.143,308.234 73.000,305.000 C50.890,301.450 20.980,310.070 5.000,300.1000 C-3.964,267.396 2.1000,194.937 3.000,155.000 C3.000,142.260 -1.249,113.338 5.000,104.1000 C9.188,99.412 89.652,99.595 102.000,96.000 C134.944,86.410 160.520,70.842 183.1000,52.000 C203.717,36.178 214.580,16.194 237.1000,2.1000 ZM241.1000,23.000 C197.178,56.996 168.319,109.030 97.000,116.1000 C97.000,174.328 97.000,231.672 97.000,289.000 C141.518,293.127 174.384,320.745 201.1000,342.1000 C215.651,354.000 226.578,381.430 248.000,383.000 C252.066,381.043 253.996,380.149 255.1000,375.1000 C263.466,362.009 258.000,304.662 257.1000,283.1000 C257.1000,225.673 257.1000,167.327 257.1000,108.1000 C258.000,83.242 261.375,50.240 255.1000,27.1000 C251.566,24.925 249.906,23.228 241.1000,23.000 ZM346.1000,46.1000 C366.384,47.572 380.808,68.220 389.1000,80.000 C422.677,121.876 450.167,182.706 427.1000,254.1000 C422.385,273.312 418.052,289.418 405.1000,300.1000 C403.334,300.667 400.666,300.333 397.1000,299.1000 C389.415,287.389 421.786,224.949 414.1000,185.000 C404.397,122.580 376.693,96.584 340.1000,60.1000 C341.333,58.334 341.667,55.666 342.000,53.000 C343.666,51.000 345.334,48.1000 346.1000,46.1000 ZM472.1000,71.1000 C477.735,71.942 479.662,72.130 481.1000,73.1000 C495.544,82.120 504.460,128.231 508.1000,147.1000 C533.604,255.135 485.175,355.497 431.1000,406.000 C429.667,406.000 427.333,406.000 424.1000,406.000 C420.345,402.908 418.399,400.561 418.000,393.000 C448.725,358.048 505.560,272.683 494.1000,200.000 C490.160,166.685 488.654,138.650 478.1000,112.000 C475.744,103.012 464.078,88.999 467.1000,77.1000 C469.666,76.000 471.333,73.1000 472.1000,71.1000 ZM23.000,121.1000 C23.000,175.995 23.000,230.005 23.000,283.1000 C40.665,284.333 58.335,284.667 76.000,284.1000 C76.000,230.339 76.000,175.661 76.000,120.1000 C58.335,121.333 40.665,121.667 23.000,121.1000 ZM328.000,157.000 C330.666,157.333 333.334,157.667 335.1000,158.000 C365.304,172.273 353.509,232.232 335.1000,249.000 C333.334,248.667 330.666,248.333 328.000,248.000 C326.333,246.333 324.667,244.666 322.1000,243.000 C320.343,230.439 332.612,221.864 333.1000,207.1000 C336.210,185.924 320.523,178.748 322.1000,161.1000 C324.667,160.334 326.333,158.666 328.000,157.000 ZM375.1000,314.1000 C381.480,315.902 383.458,317.571 386.1000,320.000 C387.333,321.333 387.667,322.667 387.1000,324.000 C385.420,340.536 365.495,349.590 355.000,358.1000 C347.271,359.115 346.028,357.847 342.000,355.000 C341.667,354.333 341.333,353.667 340.1000,353.000 C341.333,350.334 341.667,347.666 342.000,344.1000 C347.587,333.934 365.932,322.166 375.1000,314.1000 Z" />
  </symbol>
  <symbol id="sound" width="512.000000pt" height="512.000000pt" viewBox="0 0 512.000000 512.000000"
    preserveAspectRatio="xMidYMid meet">
    <g transform="translate(0.000000,512.000000) scale(0.100000,-0.100000)" stroke="none">
      <path
        d="M2600 5011 c-90 -19 -162 -89 -179 -172 -6 -30 -12 -67 -14 -82 -2-26 -55 -59 -732 -456 l-730 -428 -5 96 c-5 102 -17 132 -57 150 -38 18 -45614 -526 -4 -87 -23 -155 -61 -218 -124 -63 -63 -101 -131 -124 -218 -23 -87-22 -2340 0 -2428 44 -167 173 -296 342 -340 43 -11 115 -15 285 -15 l228 032 29 c32 29 33 32 38 129 l5 100 730 -428 730 -429 7 -58 c8 -75 19 -103 59-147 65 -75 89 -81 314 -81 176 0 204 2 235 19 49 26 88 64 113 111 l22 40 02285 0 2285 -22 40 c-25 47 -64 86 -113 111 -29 15 -63 18 -210 20 -96 2 -191-1 -210 -5z m344 -207 c14 -14 16 -231 16 -2244 0 -2013 -2 -2230 -16 -2244-13 -13 -41 -16 -155 -16 -78 0 -149 5 -160 10 -19 11 -19 46 -19 2250 0 21221 2240 18 2249 9 6 81 11 159 11 116 0 144 -3 157 -16z m-536 -3212 l-3 -968-440 258 c-242 142 -572 335 -732 429 l-293 171 0 1078 0 1078 177 104 c97 56427 250 732 429 l556 325 3 -968 c1 -532 1 -1404 0 -1936z m-1668 967 l0-1371 -172 4 c-172 3 -173 3 -228 34 -60 33 -112 99 -130 162 -14 51 -14 22930 2344 20 70 70 130 138 165 l64 33 164 0 164 0 0 -1371z" />
      <path
        d="M3954 4076 c-36 -36 -43 -70 -22 -109 17 -33 37 -45 113 -68 467-141 785 -557 860 -1126 64 -486 -98 -1000 -406 -1289 -115 -107 -261 -197-399 -244 -145 -49 -150 -52 -165 -80 -24 -47 -19 -78 20 -117 33 -33 39 -3580 -30 120 17 339 121 488 233 646 485 792 1570 310 2299 -126 189 -354 388-547 475 -90 41 -238 90 -271 90 -17 0 -39 -12 -61 -34z" />
      <path
        d="M3742 3425 c-34 -29 -44 -71 -26 -114 10 -24 33 -40 116 -80 168 -81279 -186 351 -335 57 -116 71 -183 72 -336 0 -114 -4 -146 -23 -210 -48 -151-132 -275 -250 -369 -53 -43 -162 -103 -224 -124 -27 -9 -51 -55 -50 -95 2-45 47 -92 90 -92 60 0 210 76 315 159 171 136 281 319 328 544 26 128 22 308-10 432 -71 270 -268 501 -521 612 -91 40 -128 42 -168 8z" />
    </g>
  </symbol>
  <!DOCTYPE svg PUBLIC "-//W3C//DTD SVG 20010904//EN" "http://www.w3.org/TR/2001/REC-SVG-20010904/DTD/svg10.dtd">
  <symbol id="021-no-sound" width="512.000000pt" height="512.000000pt" viewBox="0 0 512.000000 512.000000"
    preserveAspectRatio="xMidYMid meet">
    <g transform="translate(0.000000,512.000000) scale(0.100000,-0.100000)" fill="#000000" stroke="none">
      <path
        d="M2370 5114 c-19 -2 -78 -9 -130 -15 -548 -62 -1083 -325 -1489 -730-405 -406 -652 -907 -732 -1489 -18 -125 -18 -515 0 -640 80 -582 327 -1083732 -1489 658 -657 1607 -906 2504 -654 929 260 1646 1043 1819 1987 156 845-103 1682 -705 2285 -398 398 -880 639 -1449 726 -100 15 -472 28 -550 19zm535 -219 c505 -78 959 -308 1320 -670 189 -188 326 -378 445 -614 112 -221188 -462 226 -716 25 -165 26 -504 1 -665 -26 -164 -72 -346 -124 -485 -271-727 -885 -1281 -1628 -1470 -213 -54 -341 -69 -585 -69 -238 0 -359 13 -56364 -430 107 -795 315 -1112 634 -297 298 -507 667 -610 1071 -56 218 -69 332-69 585 0 254 13 368 69 585 249 972 1081 1674 2095 1769 91 8 438 -4 535 -19z" />
      <path
        d="M2340 4669 c-206 -21 -445 -86 -649 -177 -463 -207 -856 -600 -1063-1063 -362 -811 -191 -1738 436 -2365 508 -509 1216 -721 1924 -578 759 1531392 737 1607 1484 61 211 79 347 79 590 0 243 -18 379 -79 590 -190 659 -7111202 -1361 1419 -284 94 -599 130 -894 100z m525 -213 c193 -33 347 -82 531-171 141 -68 307 -175 392 -252 l53 -48 -225 -225 -226 -225 0 203 0 204 -2929 c-57 57 -152 27 -165 -52 -3 -19 -7 -47 -8 -62 -3 -27 -28 -39 -686 -327l-683 -300 -350 0 c-372 0 -394 -3 -419 -49 -6 -13 -10 -242 -10 -666 l0 -64729 -29 29 -29 284 0 283 0 -265 -265 -265 -266 -40 44 c-161 176 -323 489-395 762 -89 342 -75 744 39 1086 45 132 169 377 249 488 197 275 421 468 717615 217 108 419 169 651 196 108 12 400 4 509 -14z m1267 -797 c75 -104 203-353 242 -469 237 -711 64 -1462 -458 -1986 -379 -379 -905 -585 -1436 -560-289 13 -512 71 -775 202 -147 73 -295 169 -382 249 l-44 40 318 316 318 316638 -280 637 -281 0 -38 c0 -59 24 -107 62 -122 42 -18 80 -11 110 21 l23 255 466 5 467 70 6 c226 21 405 194 438 423 40 280 -190 555 -465 556 l-48 0 0117 0 118 298 298 297 298 40 -44 c22 -24 70 -86 107 -138z m-942 -186 l0-138 -662 -662 -663 -663 -312 0 -313 0 0 510 0 510 313 0 312 1 655 288 c360159 658 290 663 290 4 1 7 -61 7 -136z m-4 -2040 c-3 -4 -1104 474 -1116 484-2 2 248 256 555 563 l560 560 3 -802 c1 -440 0 -803 -2 -805z m338 1356 c115-42 196 -173 183 -295 -15 -144 -137 -264 -269 -264 l-48 0 0 290 0 290 40 0c21 0 64 -9 94 -21z" />
    </g>
  </symbol>
  <!DOCTYPE svg PUBLIC "-//W3C//DTD SVG 20010904//EN" "http://www.w3.org/TR/2001/REC-SVG-20010904/DTD/svg10.dtd">
  <symbol id="014-magnifier" width="512.000000pt" height="512.000000pt" viewBox="0 0 512.000000 512.000000"
    preserveAspectRatio="xMidYMid meet">
    <g transform="translate(0.000000,512.000000) scale(0.100000,-0.100000)" fill="#000000" stroke="none">
      <path
        d="M3000 5114 c-19 -2 -77 -9 -129 -15 -326 -38 -676 -183 -956 -398-85 -64 -256 -232 -328 -321 -180 -224 -311 -486 -382 -770 -46 -182 -58 -305-52 -535 6 -230 27 -360 87 -549 76 -238 228 -509 377 -676 l42 -47 -44 -43-44 -44 -60 57 c-53 51 -64 57 -103 57 l-43 0 -653 -653 c-739 -738 -707 -700-706 -847 0 -67 5 -95 23 -131 36 -74 86 -125 158 -161 58 -28 77 -33 143 -33146 0 118 -22 853 712 l647 648 0 43 c0 39 -6 50 -57 103 l-57 60 43 43 43 4471 -59 c404 -339 978 -504 1514 -434 373 49 717 197 1006 433 94 77 257 247330 345 440 585 519 1385 203 2042 -105 220 -221 382 -395 555 -302 300 -685492 -1101 555 -104 15 -363 27 -430 19z m295 -204 c757 -72 1387 -609 1569-1338 41 -165 51 -247 50 -447 0 -152 -5 -214 -23 -310 -137 -738 -706 -1304-1449 -1441 -135 -24 -403 -30 -543 -10 -768 108 -1368 670 -1521 1427 -20100 -23 142 -23 349 1 206 4 248 23 340 72 330 222 624 439 859 378 410 928623 1478 571z m-1790 -3410 l90 -90 -585 -585 c-351 -351 -601 -593 -625 -606-31 -17 -50 -20 -78 -15 -70 13 -120 92 -102 163 4 19 200 222 603 626 328328 599 597 602 597 3 0 46 -41 95 -90z" />
      <path
        d="M2986 4599 c-689 -73 -1227 -597 -1317 -1284 -18 -136 -6 -375 24-505 138 -582 579 -1006 1172 -1127 135 -27 424 -24 562 5 800 172 1306 9311153 1727 -37 191 -107 362 -213 523 -253 383 -647 619 -1102 662 -123 11-164 11 -279 -1z m377 -214 c444 -77 834 -414 977 -843 49 -149 63 -233 64-397 1 -168 -12 -254 -56 -395 -174 -550 -696 -914 -1272 -887 -265 13 -50196 -706 251 -323 243 -510 615 -510 1015 0 387 164 738 456 980 295 244 667342 1047 276z" />
    </g>
  </symbol>
  <!DOCTYPE svg PUBLIC "-//W3C//DTD SVG 20010904//EN" "http://www.w3.org/TR/2001/REC-SVG-20010904/DTD/svg10.dtd">
  <symbol id="018-arrows" width="512.000000pt" height="512.000000pt" viewBox="0 0 512.000000 512.000000"
    preserveAspectRatio="xMidYMid meet">
    <g transform="translate(0.000000,512.000000) scale(0.100000,-0.100000)" fill="#000000" stroke="none">
      <path
        d="M3863 4550 c-44 -26 -53 -67 -53 -237 l0 -143 -1876 -2 -1876 -3 -29-33 -29 -32 0 -881 c0 -956 -2 -921 55 -947 18 -9 121 -12 356 -12 l331 0 2929 29 29 0 521 0 521 1505 0 1505 0 0 -142 c0 -79 5 -160 11 -181 13 -47 60-80 104 -73 37 5 1127 694 1168 737 34 37 36 87 5 123 -20 22 -1063 692 -1138731 -38 20 -59 19 -97 -5z m585 -540 c210 -134 380 -245 377 -248 -3 -3 -184-119 -402 -258 l-398 -253 -5 123 c-5 123 -10 141 -50 173 -20 16 -3291 19-3321 3 -48 -26 -49 -34 -49 -580 l0 -510 -200 0 -200 0 2 753 3 752 1876 31876 2 25 25 c32 32 38 62 38 187 l0 100 23 -14 c12 -8 194 -124 405 -258z" />
      <path
        d="M4349 2831 l-29 -29 0 -521 0 -521 -1505 0 -1505 0 -1 148 c0 86 -5161 -12 182 -15 42 -70 76 -109 67 -35 -9 -1138 -711 -1165 -743 -27 -29 -30-79 -8 -111 16 -23 1117 -728 1166 -746 25 -10 36 -8 67 8 52 28 61 62 61 238l1 147 1855 0 c2002 0 1901 -3 1939 51 14 21 16 106 16 901 0 659 -3 884 -12903 -24 53 -39 55 -398 55 l-332 0 -29 -29z m569 -923 l-3 -753 -1875 -5c-1225 -3 -1880 -8 -1890 -15 -38 -26 -45 -47 -50 -171 l-5 -123 -395 252c-218 139 -397 256 -399 261 -1 4 177 122 396 262 l398 253 5 -123 c5 -123 10-141 50 -173 20 -16 3291 -19 3321 -3 48 26 49 34 49 580 l0 510 200 0 200 0-2 -752z" />
    </g>
  </symbol>
  <!DOCTYPE svg PUBLIC "-//W3C//DTD SVG 20010904//EN" "http://www.w3.org/TR/2001/REC-SVG-20010904/DTD/svg10.dtd">
  <symbol id="012-microphone" width="512.000000pt" height="512.000000pt" viewBox="0 0 512.000000 512.000000"
    preserveAspectRatio="xMidYMid meet">
    <g transform="translate(0.000000,512.000000) scale(0.100000,-0.100000)" fill="#000000" stroke="none">
      <path
        d="M2384 5104 c-247 -41 -491 -190 -646 -394 -66 -86 -152 -264 -180-370 -22 -83 -22 -98 -25 -797 l-4 -713 -124 0 -125 0 0 326 c0 204 -4 332-10 345 -13 24 -61 49 -94 49 -14 0 -40 -13 -58 -29 l-33 -29 0 -499 c0 -4442 -509 19 -598 41 -219 144 -457 270 -626 83 -110 250 -269 356 -340 109 -73248 -142 358 -179 102 -34 273 -70 331 -70 l41 0 0 -210 0 -210 -358 0 c-2910 -369 -3 -417 -15 -111 -29 -204 -108 -254 -214 -25 -53 -26 -65 -29 -249 -4-213 1 -243 49 -267 42 -22 2176 -22 2218 0 48 24 53 54 49 267 l-3 193 -3367 c-40 82 -119 157 -200 190 -56 22 -67 23 -439 26 l-383 3 0 210 0 209 40 0c61 0 227 35 329 69 116 39 251 106 361 179 106 72 273 231 356 342 80 105195 334 229 455 58 203 60 228 60 768 l0 499 -33 29 c-18 16 -44 29 -58 29-33 0 -81 -25 -94 -49 -6 -13 -10 -141 -10 -345 l0 -326 -125 0 -125 0 0 674c0 547 -3 689 -15 757 -98 563 -628 938 -1191 843z m381 -210 c208 -56 388-188 498 -366 53 -85 103 -211 113 -287 l7 -51 -252 0 c-166 0 -260 -4 -274-11 -63 -32 -77 -111 -28 -160 l29 -29 266 0 266 0 0 -160 0 -160 -156 0 c-950 -164 -4 -177 -11 -60 -31 -76 -106 -33 -156 l24 -28 171 -3 171 -3 0 -160 0-159 -239 0 -239 0 -26 55 c-36 72 -99 135 -171 171 -54 26 -70 29 -155 29-84 0 -102 -3 -152 -28 -75 -37 -138 -99 -172 -170 l-28 -57 -239 0 -239 0 0159 0 160 171 3 171 3 24 28 c43 50 27 125 -33 156 -13 7 -82 11 -177 11l-156 0 0 160 0 160 266 0 266 0 29 29 c33 33 38 75 15 120 -25 47 -47 51-318 51 l-251 0 7 51 c10 76 60 202 113 287 124 200 331 338 571 382 68 13267 3 337 -16z m-124 -1707 c52 -35 79 -82 79 -137 0 -55 -27 -102 -79 -137-98 -66 -241 15 -241 137 0 87 73 160 160 160 32 0 58 -7 81 -23z m-406 -292c34 -71 100 -136 173 -172 50 -25 68 -28 152 -28 85 0 101 3 155 29 72 36 13599 171 171 l26 55 239 0 239 0 0 -189 c0 -251 -24 -373 -102 -510 -108 -193-273 -327 -488 -397 -78 -25 -98 -28 -240 -28 -142 0 -162 3 -240 28 -273 89-468 283 -556 556 -26 80 -28 98 -32 313 l-4 227 240 0 240 0 27 -55z m-705-299 c0 -18 7 -73 15 -121 87 -495 514 -855 1015 -855 501 0 928 360 1015 8558 48 15 103 15 121 l0 34 126 0 126 0 -6 -67 c-44 -441 -261 -792 -626 -1012-195 -117 -404 -174 -645 -175 -342 -1 -630 113 -879 346 -235 219 -368 498-402 841 l-6 67 126 0 126 0 0 -34z m1885 -2055 c82 -37 105 -90 105 -236 l0-105 -960 0 -960 0 0 105 c0 146 23 199 105 236 38 18 85 19 855 19 770 0 817-1 855 -19z" />
    </g>
  </symbol>
  <!DOCTYPE svg PUBLIC "-//W3C//DTD SVG 20010904//EN" "http://www.w3.org/TR/2001/REC-SVG-20010904/DTD/svg10.dtd">
  <symbol id="016-countdown" width="512.000000pt" height="512.000000pt" viewBox="0 0 512.000000 512.000000"
    preserveAspectRatio="xMidYMid meet">
    <g transform="translate(0.000000,512.000000) scale(0.100000,-0.100000)" fill="#000000" stroke="none">
      <path
        d="M2511 5106 c-41 -23 -50 -53 -51 -163 l0 -101 -67 -7 c-327 -32 -575-100 -838 -229 -236 -116 -414 -245 -605 -436 -195 -194 -321 -371 -440 -615-129 -264 -195 -505 -225 -827 l-7 -68 -99 0 c-111 0 -148 -12 -167 -55 -15-33 -15 -57 0 -90 19 -43 56 -55 167 -55 l99 0 7 -68 c29 -315 97 -566 225-827 118 -241 244 -419 435 -611 394 -396 860 -611 1448 -669 l67 -7 0 -98 c0-110 11 -145 51 -166 35 -18 63 -18 98 0 40 21 51 56 51 166 l0 98 68 7 c37 3114 13 172 21 947 137 1722 881 1898 1824 11 58 23 134 26 170 4 36 9 86 12113 l6 47 99 0 c111 0 148 12 167 55 16 34 15 60 -2 94 -21 40 -56 51 -166 51l-98 0 -7 68 c-12 130 -37 278 -65 393 -137 547 -482 1029 -965 1350 -218 145-525 270 -790 323 -104 20 -296 46 -346 46 -5 0 -9 45 -9 100 0 55 -5 111 -12125 -22 48 -88 68 -137 41z m-49 -562 c3 -91 5 -97 31 -120 19 -16 40 -24 67-24 27 0 48 8 67 24 26 23 28 29 31 120 2 53 6 96 8 96 3 0 48 -5 102 -10 478-51 923 -262 1257 -596 344 -344 550 -777 605 -1269 5 -49 10 -93 10 -97 0 -3-43 -8 -96 -10 -91 -3 -97 -5 -120 -31 -16 -19 -24 -40 -24 -67 0 -27 8 -4824 -67 23 -26 29 -28 121 -31 l96 -4 -6 -61 c-12 -117 -47 -311 -71 -395 -206-710 -736 -1240 -1446 -1446 -84 -24 -278 -59 -395 -71 l-61 -6 -4 96 c-3 92-5 98 -31 121 -38 33 -96 33 -134 0 -26 -23 -28 -29 -31 -121 l-4 -96 -61 6c-369 37 -699 151 -982 340 -525 351 -858 901 -925 1527 -5 54 -10 99 -10 1020 2 43 6 96 8 91 3 97 5 120 31 33 38 33 96 0 134 -23 26 -29 28 -120 31 -532 -96 6 -96 8 0 36 25 223 41 304 46 236 162 520 297 725 335 512 884 8551492 930 166 20 148 30 152 -81z" />
      <path
        d="M2370 4249 c-577 -66 -1080 -422 -1335 -944 -319 -652 -189 -1433324 -1945 441 -441 1080 -604 1678 -430 534 156 964 573 1137 1102 71 216 107508 72 577 -25 47 -83 63 -135 37 -34 -18 -51 -54 -51 -112 0 -158 -51 -398-118 -553 -88 -203 -191 -350 -353 -506 -207 -198 -447 -324 -739 -386 -151-32 -429 -32 -579 0 -320 68 -570 207 -796 442 -199 207 -324 447 -386 739-33 152 -33 430 0 580 62 293 187 532 386 739 274 285 612 443 995 466 123 8156 18 175 56 27 52 11 110 -36 135 -31 16 -119 17 -239 3z" />
      <path
        d="M2375 3805 c-277 -44 -509 -161 -704 -356 -516 -516 -488 -1355 61-1836 165 -145 361 -241 588 -290 118 -25 362 -25 480 0 513 110 888 485 997997 13 61 18 129 18 240 0 264 -63 478 -203 690 -270 410 -763 631 -1237 555zm449 -220 c196 -51 342 -137 491 -289 191 -194 288 -416 301 -686 16 -310 -92-582 -320 -805 -147 -145 -287 -223 -492 -276 -73 -19 -115 -23 -239 -23 -90-1 -174 5 -210 13 -409 92 -713 380 -821 777 -25 89 -27 116 -27 264 0 148 2175 27 264 113 415 451 719 872 786 105 16 307 4 418 -25z" />
      <path
        d="M2481 3085 c-68 -19 -109 -44 -156 -96 -99 -110 -99 -246 0 -265 53-10 86 13 120 81 38 76 82 102 144 85 46 -12 78 -47 87 -95 10 -56 -37 -121-95 -131 -61 -10 -91 -26 -106 -55 -40 -77 1 -136 106 -153 58 -10 105 -75 95-131 -14 -74 -83 -116 -153 -92 -46 15 -70 49 -82 112 -15 83 -79 117 -150 80-85 -44 -53 -218 60 -319 156 -140 402 -89 496 102 49 101 34 234 -39 334 -1015 -10 21 0 35 73 101 88 234 39 335 -67 138 -225 212 -366 173z" />
    </g>
  </symbol>
  <!DOCTYPE svg PUBLIC "-//W3C//DTD SVG 20010904//EN" "http://www.w3.org/TR/2001/REC-SVG-20010904/DTD/svg10.dtd">
  <symbol id="022-headphone" width="512.000000pt" height="512.000000pt" viewBox="0 0 512.000000 512.000000"
    preserveAspectRatio="xMidYMid meet">
    <g transform="translate(0.000000,512.000000) scale(0.100000,-0.100000)" fill="#000000" stroke="none">
      <path
        d="M2375 5114 c-603 -60 -1108 -299 -1510 -715 -292 -303 -488 -652-590 -1053 -63 -248 -67 -303 -72 -821 l-5 -470 -45 -33 c-58 -43 -116 -135-137 -214 -15 -56 -17 -128 -14 -683 l3 -620 32 -67 c65 -138 192 -225 341-235 76 -5 79 -7 102 -40 33 -48 96 -98 166 -130 56 -26 69 -28 225 -31 184-4 255 7 334 54 88 51 163 157 185 262 7 30 10 340 8 867 l-3 820 -32 67 c-1737 -50 87 -73 112 -87 95 -179 126 -368 126 l-124 0 5 328 c5 320 12 400 48535 l10 37 132 0 c259 0 347 50 477 270 197 334 494 545 868 616 115 22 32922 444 0 381 -73 676 -286 881 -637 68 -116 141 -187 225 -220 48 -19 82 -23213 -27 l156 -4 11 -37 c36 -118 44 -211 49 -533 l5 -328 -124 0 c-143 0 -220-16 -290 -61 -65 -42 -115 -100 -152 -178 l-31 -66 -3 -820 c-2 -527 1 -837 8-867 26 -123 125 -245 235 -289 56 -22 72 -24 256 -24 l195 0 76 37 c68 34116 75 158 134 12 17 29 22 93 27 149 11 275 98 340 235 l32 67 3 625 c3 6032 626 -18 691 -23 77 -91 176 -143 208 l-35 22 -4 472 c-5 521 -10 574 -73823 -213 833 -868 1487 -1699 1699 -190 48 -335 67 -546 70 -102 2 -203 1-225 -1z m386 -204 c560 -56 1089 -331 1440 -748 289 -344 466 -762 509 -12015 -57 10 -271 10 -477 l0 -374 -27 0 c-21 0 -35 11 -56 41 -16 22 -48 54 -7372 l-43 32 -1 300 c0 165 -5 343 -10 395 -37 359 -163 680 -383 980 -83 113-280 312 -392 395 -700 523 -1650 523 -2350 0 -112 -83 -309 -282 -392 -395-220 -300 -346 -622 -382 -979 -6 -57 -11 -237 -11 -400 l0 -296 -42 -29 c-22-16 -54 -49 -71 -73 -24 -33 -37 -43 -59 -43 l-28 0 0 373 c0 390 8 525 41692 95 479 354 920 719 1228 448 377 1035 563 1601 507z m29 -411 c574 -641106 -451 1357 -986 24 -51 43 -95 43 -99 0 -3 -49 -5 -109 -2 -103 3 -112 5-153 34 -24 17 -57 53 -75 84 -120 208 -255 368 -406 484 -506 388 -1204 402-1727 35 -160 -113 -323 -293 -422 -468 -57 -100 -101 -145 -155 -160 -41 -12-213 -15 -213 -5 0 4 19 48 43 98 206 433 579 763 1030 910 257 85 496 107787 75z m-1700 -2411 c26 -14 57 -41 75 -66 l30 -44 0 -823 0 -823 -30 -44c-18 -25 -49 -52 -75 -66 -40 -20 -59 -22 -186 -22 -136 0 -144 1 -195 28 -4322 -59 38 -81 81 l-28 53 0 789 c0 863 -2 828 58 893 52 55 92 66 247 66 1260 145 -2 185 -22z m3305 3 c22 -10 52 -31 67 -47 60 -65 58 -30 58 -893 l0-789 -28 -53 c-22 -43 -38 -59 -81 -81 -51 -27 -59 -28 -195 -28 -127 0 -1462 -186 22 -26 14 -57 41 -75 66 l-30 44 0 823 0 823 30 44 c18 25 49 52 75 6640 20 59 22 185 22 115 0 147 -4 180 -19z m-3995 -937 l0 -756 -31 6 c-78 15-132 62 -157 135 -9 24 -12 199 -12 620 0 550 2 589 19 627 23 50 53 81 106105 83 38 75 112 75 -737z m4395 737 c53 -24 83 -55 106 -105 17 -39 19 -7719 -632 l0 -590 -25 -50 c-14 -28 -37 -59 -52 -70 -29 -21 -86 -44 -109 -44-12 0 -14 128 -14 755 0 848 -8 774 75 736z" />
    </g>
  </symbol>
  <!DOCTYPE svg PUBLIC "-//W3C//DTD SVG 20010904//EN" "http://www.w3.org/TR/2001/REC-SVG-20010904/DTD/svg10.dtd">
  <symbol id="015-metronome" width="512.000000pt" height="512.000000pt" viewBox="0 0 512.000000 512.000000"
    preserveAspectRatio="xMidYMid meet">
    <g transform="translate(0.000000,512.000000) scale(0.100000,-0.100000)" fill="#000000" stroke="none">
      <path
        d="M2101 5104 c-13 -9 -29 -31 -36 -48 -7 -17 -259 -1141 -561 -2497-512 -2302 -547 -2468 -535 -2498 28 -65 -82 -61 1591 -61 1673 0 1563 -41590 61 13 30 -6 120 -258 1258 -150 674 -272 1231 -272 1237 0 6 70 132 155279 192 334 194 345 67 416 -31 18 -59 34 -61 35 -2 2 40 79 94 171 113 195121 225 77 274 -26 29 -36 34 -72 33 -57 -2 -71 -18 -180 -209 -51 -88 -94-161 -95 -163 -1 -2 -30 13 -63 33 -37 21 -74 35 -94 35 l-34 0 -173 783 c-96430 -179 796 -186 813 -27 66 -14 64 -495 64 -386 0 -438 -2 -459 -16z m812-311 c15 -71 30 -138 33 -150 l6 -23 -392 0 -392 0 6 23 c3 12 18 79 33 150l28 127 325 0 325 0 28 -127z m-653 -1843 l0 -1470 -396 0 c-372 0 -395 1-390 18 2 9 150 671 327 1470 l322 1452 69 0 68 0 0 -1470z m400 137 l0 -1332-77 -135 c-60 -103 -83 -136 -100 -138 l-23 -3 0 1470 0 1471 100 0 100 0 0-1333z m468 743 l131 -589 -105 -181 c-137 -237 -138 -256 -10 -330 31 -17 56-34 56 -36 0 -5 -329 -576 -336 -583 -2 -2 -4 516 -4 1152 l0 1157 68 0 69 0131 -590z m562 -732 c0 -12 -167 -306 -185 -326 -9 -10 -32 -1 -117 48 l-10661 100 174 100 173 104 -60 c57 -33 104 -64 104 -70z m-169 -1038 c65 -289120 -537 123 -552 l6 -28 -395 0 -395 0 0 110 0 111 257 445 c181 314 261 444272 442 12 -2 43 -128 132 -528z m292 -1307 c64 -291 117 -534 117 -540 0 -10-281 -13 -1370 -13 -1086 0 -1370 3 -1370 12 0 7 53 250 117 540 l117 5281136 0 1135 0 118 -527z" />
      <path
        d="M2060 811 c-39 -39 -41 -97 -6 -138 l24 -28 453 -3 c476 -3 494 -1524 42 23 32 19 90 -9 123 l-24 28 -467 3 -466 3 -29 -30z" />
      <path
        d="M1204 3760 c-39 -15 -66 -61 -61 -100 6 -42 116 -236 152 -267 59-52 155 -7 155 72 0 40 -92 216 -140 267 -28 29 -74 42 -106 28z" />
      <path
        d="M652 3335 c-39 -17 -66 -71 -56 -113 4 -16 50 -70 109 -129 99 -100103 -103 147 -103 73 0 115 54 96 125 -10 36 -170 202 -215 221 -39 17 -40 17-81 -1z" />
      <path
        d="M4385 3336 c-44 -20 -204 -186 -213 -221 -11 -43 -4 -70 25 -99 20-20 36 -26 71 -26 44 0 48 3 147 103 110 110 124 137 99 195 -9 21 -25 38 -4847 -42 18 -43 18 -81 1z" />
    </g>
  </symbol>
  <!DOCTYPE svg PUBLIC "-//W3C//DTD SVG 20010904//EN" "http://www.w3.org/TR/2001/REC-SVG-20010904/DTD/svg10.dtd">
  <symbol id="023-volume-control" width="512.000000pt" height="512.000000pt" viewBox="0 0 512.000000 512.000000"
    preserveAspectRatio="xMidYMid meet">
    <g transform="translate(0.000000,512.000000) scale(0.100000,-0.100000)" fill="#000000" stroke="none">
      <path
        d="M2493 4606 l-28 -24 -3 -172 c-4 -193 1 -210 65 -236 31 -14 38 -1371 3 58 28 63 46 60 236 l-3 169 -28 24 c-19 16 -40 24 -67 24 -27 0 -48 -8-67 -24z" />
      <path
        d="M1259 4271 c-46 -46 -40 -75 47 -225 94 -163 102 -171 160 -171 38 050 5 70 28 41 48 33 84 -51 234 -42 73 -86 139 -98 148 -37 26 -94 19 -128-14z" />
      <path
        d="M3733 4285 c-32 -22 -174 -277 -175 -314 -3 -94 119 -135 175 -58 1318 54 84 90 148 77 134 83 165 38 210 -34 33 -91 40 -128 14z" />
      <path
        d="M2407 3876 c-95 -35 -156 -101 -180 -195 l-14 -54 -80 -23 c-167 -48-298 -108 -438 -198 -604 -392 -868 -1141 -644 -1826 176 -538 620 -934 1191-1062 90 -20 130 -23 318 -23 188 0 228 3 318 23 464 104 832 373 1065 777151 261 226 608 199 910 -61 671 -508 1212 -1155 1399 l-80 23 -14 53 c-19 73-67 136 -133 174 -53 30 -60 31 -185 34 -92 1 -141 -2 -168 -12z m267 -207l26 -20 0 -619 0 -619 -26 -20 c-22 -18 -41 -21 -114 -21 -73 0 -92 3 -114 21l-26 20 0 619 0 619 26 20 c22 18 41 21 114 21 73 0 92 -3 114 -21z m-453-766 c0 -370 4 -527 12 -550 22 -60 72 -117 128 -148 53 -29 57 -30 199 -30142 0 146 1 199 30 56 31 106 88 128 148 8 23 12 180 12 550 1 284 3 517 5517 23 0 189 -61 261 -95 392 -189 662 -538 757 -978 31 -145 31 -399 0 -544-35 -161 -97 -322 -167 -434 l-23 -36 -82 76 c-120 112 -239 194 -385 266-145 71 -240 105 -389 137 -87 19 -131 22 -316 22 -185 0 -229 -3 -316 -22-299 -65 -572 -209 -789 -415 -48 -46 -72 -62 -77 -54 -70 108 -146 304 -180460 -28 135 -31 387 -5 522 86 442 363 807 757 997 72 35 237 96 263 98 4 0 7-233 8 -517z m624 -1288 c261 -58 487 -179 672 -358 l95 -92 -94 -90 c-266-255 -589 -385 -958 -385 -369 0 -692 130 -958 385 l-94 90 95 92 c194 187458 323 707 363 41 6 82 13 90 15 41 10 381 -5 445 -20z" />
      <path
        d="M2357 1245 c-29 -30 -36 -58 -25 -102 15 -56 45 -68 191 -72 162 -4208 3 241 36 37 36 36 100 0 137 l-27 26 -177 0 c-176 0 -177 0 -203 -25z" />
      <path
        d="M359 3371 c-35 -35 -39 -86 -9 -123 29 -38 281 -178 320 -178 47 090 47 90 98 0 23 -7 49 -17 61 -10 11 -76 54 -147 96 -152 88 -188 95 -237 46z" />
      <path
        d="M4525 3325 c-71 -42 -138 -85 -147 -96 -11 -13 -18 -38 -18 -61 0-51 43 -98 90 -98 39 0 291 140 320 178 30 37 26 88 -9 123 -49 48 -84 41-236 -46z" />
      <path
        d="M35 2147 c-60 -51 -36 -145 43 -167 48 -13 266 -13 314 0 78 22 103106 49 161 l-29 29 -176 0 c-167 0 -176 -1 -201 -23z" />
      <path
        d="M4679 2141 c-54 -55 -29 -139 49 -161 47 -13 266 -13 313 0 52 15 7443 74 97 0 37 -5 49 -28 69 -27 23 -33 24 -203 24 l-176 0 -29 -29z" />
      <path
        d="M505 1005 c-72 -42 -140 -87 -152 -101 -32 -36 -30 -85 5 -125 46-51 77 -45 235 45 75 42 143 87 152 99 41 59 2 144 -70 153 -36 4 -54 -3 -170-71z" />
      <path
        d="M4414 1070 c-49 -20 -71 -101 -39 -146 14 -21 234 -153 288 -173 58-22 127 31 127 97 0 46 -30 73 -181 160 -123 70 -152 80 -195 62z" />
    </g>
  </symbol>
  <!DOCTYPE svg PUBLIC "-//W3C//DTD SVG 20010904//EN" "http://www.w3.org/TR/2001/REC-SVG-20010904/DTD/svg10.dtd">
  <symbol id="007-saxophone" width="512.000000pt" height="512.000000pt" viewBox="0 0 512.000000 512.000000"
    preserveAspectRatio="xMidYMid meet">
    <g transform="translate(0.000000,512.000000) scale(0.100000,-0.100000)" fill="#000000" stroke="none">
      <path
        d="M3340 5101 c-173 -37 -316 -117 -441 -248 -85 -89 -135 -165 -178-274 -52 -130 -61 -214 -61 -569 l0 -318 -23 -6 c-38 -9 -116 -85 -145 -140-36 -70 -38 -188 -4 -257 28 -58 81 -113 133 -139 l39 -20 0 -118 0 -117 -45-24 c-199 -106 -203 -403 -7 -516 l51 -30 1 -117 0 -117 -37 -18 c-51 -24-111 -86 -136 -142 -33 -71 -31 -189 5 -257 25 -48 75 -101 127 -135 l24 -15-29 -54 c-82 -152 -243 -233 -414 -209 -133 19 -244 102 -303 227 l-32 67 -3475 -3 476 59 12 c93 19 177 89 219 182 20 44 22 162 4 213 -20 58 -82 129-142 162 l-54 30 -790 0 -790 0 -42 -23 c-65 -34 -110 -78 -138 -137 -88 -17913 -387 207 -427 l58 -12 0 -481 c0 -480 6 -598 36 -743 158 -765 863 -13171635 -1279 647 32 1175 483 1315 1122 13 59 19 147 23 330 l6 250 73 5 c65 477 8 98 33 26 30 32 83 13 119 -15 28 -70 48 -134 48 l-55 0 0 299 0 299 76 4c69 3 79 6 100 31 16 19 24 40 24 67 0 27 -8 48 -24 67 -21 25 -31 28 -100 31l-76 4 0 299 0 299 54 0 c67 0 110 15 130 45 24 36 20 89 -8 122 -21 25 -3329 -98 33 l-73 5 -3 382 c-2 372 -2 383 18 403 19 19 32 20 448 20 397 0 4352 507 20 134 34 218 83 321 185 78 77 98 104 137 185 48 98 77 210 77 296 039 -5 51 -34 80 l-34 34 -738 -1 c-672 0 -747 -2 -824 -18z m730 -381 l0 -200-288 0 c-342 0 -370 -5 -443 -79 -77 -76 -79 -90 -79 -543 l0 -388 -105 0-104 0 -17 31 c-24 47 -93 118 -136 140 l-38 19 0 311 c0 359 8 416 73 549 3267 58 102 122 165 86 86 157 130 265 164 93 29 84 28 433 30 l317 1 0 -200zm690 197 c0 -21 -46 -127 -73 -169 -81 -127 -251 -228 -384 -228 l-33 0 0 2000 200 245 0 c135 0 245 -2 245 -3z m-1929 -1436 c40 -40 40 -89 0 -133 -24-27 -36 -33 -71 -33 -35 0 -47 6 -72 34 -26 29 -30 39 -25 75 12 84 108 117168 57z m429 -471 l0 -300 -108 0 -108 0 -16 34 c-25 51 -72 100 -123 127l-45 24 0 117 0 117 38 18 c45 21 115 91 132 132 l12 31 109 0 109 0 0 -300zm-1356 -111 c33 -15 59 -71 51 -109 -4 -16 -20 -41 -37 -55 l-30 -25 -735 0-735 0 -34 34 c-50 50 -42 119 17 152 32 18 1464 20 1503 3z m906 -204 c34-18 50 -43 50 -80 0 -56 -47 -105 -100 -105 -74 0 -122 83 -86 149 27 48 8463 136 36z m-1150 -650 c0 -296 4 -483 11 -517 20 -99 83 -213 162 -292 120-120 261 -179 427 -179 206 1 384 96 498 267 27 40 57 100 68 134 16 54 23 6351 72 43 15 118 83 149 136 l26 44 104 0 104 0 0 -209 c0 -228 -12 -331 -56-466 -133 -411 -469 -712 -906 -812 -112 -25 -393 -23 -518 5 -504 111 -896459 -1055 935 -65 196 -67 216 -72 810 l-5 537 506 0 506 0 0 -465z m1600 165l0 -300 -107 0 -108 0 -27 50 c-27 48 -88 102 -135 121 -22 8 -23 13 -23 126l0 118 45 24 c51 27 98 76 123 127 l16 34 108 0 108 0 0 -300z m-427 -340 c38-42 37 -92 -2 -131 -60 -60 -156 -27 -168 56 -4 32 0 46 17 68 44 55 106 58153 7z" />
    </g>
  </symbol>
  <!DOCTYPE svg PUBLIC "-//W3C//DTD SVG 20010904//EN" "http://www.w3.org/TR/2001/REC-SVG-20010904/DTD/svg10.dtd">
  <symbol id="011-cello" width="512.000000pt" height="512.000000pt" viewBox="0 0 512.000000 512.000000"
    preserveAspectRatio="xMidYMid meet">
    <g transform="translate(0.000000,512.000000) scale(0.100000,-0.100000)" fill="#000000" stroke="none">
      <path
        d="M4585 5108 c-11 -6 -119 -98 -240 -203 -121 -105 -226 -194 -232-199 -7 -4 -23 0 -35 8 -28 20 -61 20 -98 1 -36 -19 -50 -43 -50 -90 0 -29 9-45 47 -86 l47 -50 -69 -69 -69 -70 -41 39 c-52 52 -87 65 -132 50 -42 -13-65 -47 -65 -95 0 -30 8 -45 48 -85 l49 -49 -352 -352 -351 -351 -75 32 c-12351 -226 72 -382 78 -195 7 -293 -13 -528 -110 -27 -11 -35 -4 -630 590 -393393 -611 604 -629 608 -35 9 -92 -19 -107 -51 -29 -64 -21 -77 144 -244 l155-156 -125 -124 c-140 -139 -162 -173 -146 -223 8 -22 150 -171 451 -472 394-393 442 -445 456 -489 39 -116 -28 -266 -141 -316 -67 -30 -121 -32 -285 -11-199 27 -343 27 -442 2 -342 -88 -639 -452 -735 -902 -26 -125 -24 -379 5-516 38 -177 106 -343 201 -493 l39 -63 -129 -161 c-71 -88 -132 -171 -135-183 -12 -46 8 -79 114 -185 106 -106 139 -126 185 -114 12 3 94 64 183 135l161 129 74 -46 c157 -96 328 -163 505 -199 123 -24 377 -24 494 0 448 93 820401 904 748 22 92 20 254 -5 446 -28 204 -21 250 47 323 77 82 176 115 271 9045 -12 91 -56 678 -641 594 -593 633 -629 665 -629 47 1 71 16 118 75 134 170157 392 61 593 -30 61 -76 110 -496 532 -255 256 -463 470 -463 475 0 5 16 4535 90 62 145 79 238 80 425 0 182 -17 271 -77 419 l-31 73 351 351 352 352 49-49 c40 -40 55 -48 85 -48 48 0 82 23 95 65 15 45 2 80 -50 132 l-39 41 70 6969 69 50 -47 c41 -38 57 -47 86 -47 47 0 71 14 90 50 19 37 19 71 0 96 -8 10-15 22 -15 26 0 3 92 113 205 243 113 129 208 247 211 260 3 14 3 37 -1 53 -730 -391 424 -437 448 -32 17 -66 18 -93 2z m288 -492 c-14 -22 -315 -366 -321-366 -9 0 -302 293 -302 302 0 3 84 79 187 168 l186 161 128 -127 c70 -70 125-132 122 -138z m-613 -361 l85 -85 -140 -140 -140 -140 -87 87 -88 88 137 137c76 76 140 138 143 138 3 0 44 -38 90 -85z m-2480 -960 c-46 -47 -89 -85 -95-85 -5 0 -172 162 -370 360 l-360 360 90 90 90 90 365 -365 365 -365 -85 -85zm1345 -345 l-795 -795 -87 88 -88 87 795 795 795 795 87 -87 88 -88 -795 -795zm-429 459 c32 -5 90 -20 127 -32 l68 -21 -480 -481 c-264 -264 -485 -493 -490-508 -6 -16 -8 -40 -5 -55 9 -37 348 -378 390 -392 22 -7 40 -7 60 0 16 6 238220 509 491 l481 480 21 -68 c36 -111 46 -197 40 -323 -12 -235 -99 -419 -285-604 l-90 -88 -64 16 c-35 9 -80 16 -100 16 -167 0 -354 -113 -428 -259 -53-107 -59 -207 -23 -431 18 -114 20 -267 4 -334 -50 -211 -280 -433 -558 -540-298 -115 -623 -96 -931 54 -67 33 -122 64 -122 68 0 5 48 47 108 94 154 123172 149 151 207 -15 39 -348 369 -385 381 -58 19 -81 1 -218 -173 -38 -48 -73-87 -77 -87 -15 0 -128 242 -149 320 -95 345 -48 670 137 948 106 160 249 282387 330 86 30 225 33 376 9 222 -36 312 -31 425 21 161 76 281 288 261 462 -430 -12 72 -18 93 l-11 38 84 85 c94 96 177 159 265 203 70 34 174 69 241 8171 12 231 11 299 -1z m1126 -1986 c498 -500 492 -491 493 -638 0 -55 -6 -95-19 -129 l-19 -48 -533 533 c-294 294 -534 538 -534 544 0 10 160 175 170 1753 0 202 -197 442 -437z m-3064 -666 c39 -40 72 -76 72 -80 0 -4 -122 -104-271 -224 -281 -225 -284 -226 -313 -181 -8 13 34 71 207 287 120 149 221 271225 271 4 0 40 -33 80 -73z" />
      <path
        d="M1025 2046 c-76 -35 -142 -93 -272 -236 -108 -120 -122 -132 -171-146 -67 -20 -87 -48 -83 -120 1 -30 46 -71 85 -78 41 -8 102 12 158 50 23 1693 86 156 157 141 156 193 197 251 197 23 0 54 6 70 14 66 35 66 137 0 172-44 22 -136 18 -194 -10z" />
      <path
        d="M1577 2035 c-29 -30 -36 -58 -25 -100 10 -41 342 -372 383 -383 69-18 125 23 125 92 0 39 -5 46 -188 228 -182 183 -189 188 -228 188 -31 0 -48-6 -67 -25z" />
      <path
        d="M1921 1256 c-33 -18 -50 -53 -51 -102 0 -62 -42 -117 -187 -247 -136-121 -192 -187 -212 -249 -27 -82 18 -158 93 -158 57 0 82 21 100 84 14 49 2562 122 147 211 186 284 288 284 400 0 70 -15 106 -51 125 -34 17 -67 17 -98 0z" />
    </g>
  </symbol>
  <!DOCTYPE svg PUBLIC "-//W3C//DTD SVG 20010904//EN" "http://www.w3.org/TR/2001/REC-SVG-20010904/DTD/svg10.dtd">
  <symbol id="008-trumpet" width="512.000000pt" height="512.000000pt" viewBox="0 0 512.000000 512.000000"
    preserveAspectRatio="xMidYMid meet">
    <g transform="translate(0.000000,512.000000) scale(0.100000,-0.100000)" fill="#000000" stroke="none">
      <path
        d="M3343 5106 c-188 -61 -283 -273 -200 -444 l22 -47 -96 -385 c-105-415 -143 -537 -220 -700 -95 -199 -180 -311 -416 -550 l-212 -215 -88 87 -8787 57 60 c44 46 57 66 57 91 0 69 -56 119 -117 106 -20 -5 -88 -66 -213 -191-180 -180 -185 -186 -185 -226 0 -34 6 -46 33 -70 53 -48 94 -39 175 39 l4747 88 -88 87 -87 -248 -247 -247 -248 -87 87 -87 87 57 60 c50 52 57 64 57100 0 55 -32 90 -88 98 l-43 6 -192 -191 c-177 -176 -191 -193 -191 -226 0-65 61 -116 121 -101 14 3 51 30 82 60 l57 54 87 -87 87 -87 -483 -483 -484-484 -58 17 c-114 33 -235 2 -318 -83 -67 -69 -92 -129 -92 -227 0 -136 16-160 288 -432 272 -272 296 -288 432 -288 67 0 89 4 136 28 145 71 218 231174 382 l-17 58 137 136 136 136 42 -49 c105 -124 293 -236 462 -277 129 -31296 -30 426 4 107 28 215 78 304 142 33 24 294 279 581 567 547 549 577 583635 728 127 320 67 685 -154 926 l-59 64 57 25 c124 55 306 111 659 200 33184 371 92 390 80 37 -24 146 -48 190 -41 122 19 213 83 263 184 24 49 28 6928 142 -1 147 30 110 -773 912 -574 573 -717 711 -761 733 -66 33 -174 42-238 21z m224 -264 c43 -39 362 -355 710 -704 556 -558 632 -637 638 -670 13-70 -19 -128 -81 -148 -76 -26 -57 -43 -811 712 -766 767 -733 730 -699 81121 50 69 79 123 74 36 -4 55 -16 120 -75z m856 -1514 c-10 -4 -128 -35 -263-68 -388 -96 -582 -160 -755 -247 l-59 -30 -62 28 c-118 54 -207 73 -345 73-82 1 -125 5 -121 11 3 6 27 39 53 75 106 147 200 340 272 560 19 58 64 224101 370 37 146 72 283 77 304 l11 39 554 -554 c445 -445 551 -555 537 -561zm-1358 -453 c39 -8 113 -36 165 -61 77 -38 110 -62 176 -129 68 -67 90 -98127 -176 83 -172 97 -342 42 -515 -49 -157 -58 -167 -610 -722 -583 -586 -609-608 -798 -658 -83 -22 -243 -22 -327 0 -152 39 -291 129 -380 244 -214 277-195 645 47 902 l76 81 88 -87 88 -87 -60 -65 c-144 -158 -173 -337 -84 -51943 -86 112 -153 205 -197 55 -26 80 -31 160 -34 108 -5 191 17 264 68 23 16267 255 542 532 548 550 540 540 565 683 24 137 -25 278 -131 379 -177 169-428 165 -618 -9 l-64 -58 -86 86 -87 87 55 56 c169 174 410 248 645 199zm-755 -490 l85 -85 -248 -248 -247 -247 -87 88 -88 87 245 245 c135 135 247245 250 245 3 0 44 -38 90 -85z m700 34 c117 -53 170 -165 135 -286 -16 -57-24 -65 -508 -551 -337 -337 -505 -499 -534 -513 -29 -14 -62 -21 -103 -20-142 0 -254 125 -235 261 9 62 29 96 88 158 l51 52 58 -57 c52 -51 63 -58 99-58 34 0 46 6 70 33 48 53 41 91 -28 163 l-57 60 247 247 247 247 42 -41 c91-86 129 -95 184 -40 54 54 46 95 -35 179 l-46 48 61 58 c33 31 76 62 95 68 5417 120 14 169 -8z m-1898 -1110 c-5 -80 13 -204 45 -303 l25 -79 -148 -148-149 -149 -127 127 -128 128 242 242 c134 134 243 243 243 243 0 0 -2 -28 -3-61z m-739 -470 c31 -16 445 -429 463 -461 53 -100 -64 -217 -164 -164 -32 18-445 432 -461 463 -47 93 69 209 162 162z" />
    </g>
  </symbol>
  <!DOCTYPE svg PUBLIC "-//W3C//DTD SVG 20010904//EN" "http://www.w3.org/TR/2001/REC-SVG-20010904/DTD/svg10.dtd">
  <symbol id="005-keyboard" width="512.000000pt" height="512.000000pt" viewBox="0 0 512.000000 512.000000"
    preserveAspectRatio="xMidYMid meet">
    <g transform="translate(0.000000,512.000000) scale(0.100000,-0.100000)" fill="#000000" stroke="none">
      <path
        d="M316 3999 c-113 -27 -224 -121 -279 -237 l-32 -67 -3 -1250 c-2 -9311 -1257 9 -1278 26 -61 -164 -57 2549 -57 2713 0 2523 -4 2549 57 8 21 11 3479 1278 l-3 1250 -32 67 c-44 94 -109 160 -202 206 l-75 37 -2225 2 c-1321 0-2242 -3 -2265 -8z m4458 -200 c50 -14 118 -82 134 -135 9 -32 12 -312 12-1198 l0 -1156 -170 0 -170 0 0 671 c0 441 -4 677 -10 690 -28 52 85 49 -201049 -2095 0 -1982 3 -2010 -49 -6 -13 -10 -249 -10 -690 l0 -671 -170 0 -170 00 1158 c0 790 3 1169 11 1196 13 47 85 121 131 135 48 14 4381 14 4432 0zm-3664 -1681 c0 -383 1 -405 21 -448 31 -69 66 -108 125 -141 l54 -31 0 -94 0-94 -285 0 -285 0 0 605 0 605 185 0 185 0 0 -402z m390 13 l0 -388 -26 -27c-38 -37 -100 -37 -137 2 l-27 28 0 387 0 387 95 0 95 0 0 -389z m380 -26 c5-375 7 -413 24 -445 34 -65 67 -101 122 -131 l54 -31 0 -94 0 -94 -285 0 -2850 0 98 0 97 46 24 c54 29 89 68 120 136 24 50 24 52 24 446 0 218 3 399 7 4034 4 43 5 88 4 l80 -3 5 -410z m390 26 l0 -388 -26 -27 c-38 -37 -100 -37 -1372 l-27 28 0 387 0 387 95 0 95 0 0 -389z m380 -26 c5 -399 6 -411 27 -451 33-62 67 -98 117 -125 l46 -24 0 -97 0 -98 -280 0 -280 0 0 98 0 97 46 24 c5429 89 68 120 136 24 50 24 52 24 446 0 218 3 399 7 403 4 4 43 5 88 4 l80 -35 -410z m390 28 l0 -387 -27 -28 c-37 -39 -99 -39 -137 -2 l-26 27 0 388 0389 95 0 95 0 0 -387z m380 -28 c3 -278 9 -418 17 -435 25 -55 76 -111 123-138 l50 -27 0 -97 0 -98 -285 0 -285 0 0 94 0 94 54 31 c59 33 94 72 125 14120 43 21 65 21 441 0 218 3 399 7 403 4 4 43 5 88 4 l80 -3 5 -410z m390 31l0 -384 -26 -31 c-35 -42 -98 -44 -138 -5 l-26 27 0 388 0 389 95 0 95 0 0-384z m570 -221 l0 -605 -285 0 -285 0 0 94 0 94 54 31 c59 33 94 72 125 14120 43 21 65 21 448 l0 402 185 0 185 0 0 -605z" />
      <path
        d="M1008 3648 c-193 -25 -340 -229 -299 -417 42 -195 212 -317 406 -290116 15 212 87 272 201 25 48 28 63 28 153 0 90 -3 105 -28 153 -79 150 -214221 -379 200z m150 -225 c59 -44 79 -137 43 -203 -84 -157 -328 -69 -295 10710 52 66 110 117 121 50 10 101 0 135 -25z" />
      <path
        d="M4002 3649 c-111 -14 -209 -88 -269 -201 -25 -48 -28 -63 -28 -153 0-90 3 -105 28 -153 60 -114 156 -186 272 -201 163 -22 307 57 378 207 27 5832 78 32 147 0 69 -5 89 -32 147 -71 150 -214 228 -381 207z m135 -217 c90-48 106 -177 31 -249 -101 -98 -268 -28 -268 112 0 122 127 195 237 137z" />
      <path
        d="M1796 3359 c-36 -42 -35 -89 3 -131 l29 -33 732 0 732 0 29 33 c3842 39 89 3 131 l-26 31 -738 0 -738 0 -26 -31z" />
    </g>
  </symbol>
  <!DOCTYPE svg PUBLIC "-//W3C//DTD SVG 20010904//EN" "http://www.w3.org/TR/2001/REC-SVG-20010904/DTD/svg10.dtd">
  <symbol id="010-tambourine" width="512.000000pt" height="512.000000pt" viewBox="0 0 512.000000 512.000000"
    preserveAspectRatio="xMidYMid meet">
    <g transform="translate(0.000000,512.000000) scale(0.100000,-0.100000)" fill="#000000" stroke="none">
      <path
        d="M2212 5109 c-267 -41 -494 -228 -583 -479 l-27 -75 -93 -36 c-52 -20-124 -50 -162 -67 l-67 -31 -61 30 c-146 72 -351 93 -512 50 -308 -81 -530-347 -562 -672 -11 -118 29 -311 84 -405 l20 -33 -40 -86 c-122 -265 -200-595 -203 -860 -1 -123 0 -133 27 -187 46 -94 135 -156 236 -165 40 -4 90 3176 23 105 24 141 28 290 28 94 1 196 -3 228 -7 54 -8 57 -10 57 -38 0 -48 44-83 140 -114 253 -81 496 -260 649 -475 67 -94 144 -250 178 -358 28 -91 63-132 113 -132 28 0 29 -2 37 -67 16 -131 8 -359 -17 -468 -31 -142 -36 -226-16 -280 40 -103 121 -174 223 -196 102 -21 414 17 628 77 113 31 292 97 369136 l59 30 76 -35 c110 -50 199 -69 317 -69 372 1 693 286 744 662 18 131 -8281 -70 413 l-30 64 39 84 c21 47 51 118 65 159 l27 75 67 23 c310 107 523429 499 755 -8 112 -29 185 -84 297 -39 80 -60 109 -137 185 -94 93 -176 146-289 184 l-52 18 -50 124 c-28 68 -59 139 -69 158 -18 33 -18 34 13 101 55119 74 216 69 354 -9 212 -69 347 -223 501 -148 149 -306 216 -515 218 -124 1-222 -19 -325 -67 l-70 -32 -120 52 c-66 28 -138 57 -161 64 -38 11 -42 16-58 69 -71 230 -274 420 -513 482 -93 23 -234 32 -321 18z m253 -204 c82 -21172 -68 232 -120 49 -43 131 -151 121 -160 -2 -3 -38 2 -79 9 -252 48 -620 44-873 -10 l-28 -6 18 33 c32 57 155 172 220 207 114 59 267 78 389 47z m26-445 c564 -56 1010 -258 1361 -616 163 -166 269 -317 373 -529 273 -558 301-1224 75 -1803 -265 -680 -835 -1136 -1590 -1271 -168 -31 -335 -44 -362 -30-62 31 -69 70 -39 201 47 197 52 436 16 631 l-6 32 91 24 c54 14 95 20 100 155 -5 17 -65 26 -134 13 -97 15 -166 10 -308 l-6 -183 29 -30 c22 -21 39 -2966 -29 58 0 181 28 310 71 643 214 1150 788 1284 1454 93 462 -8 1015 -2591415 -255 408 -664 704 -1135 824 -465 117 -951 73 -1360 -124 -515 -248 -870-698 -1020 -1292 -35 -135 -35 -173 -1 -206 l26 -26 247 -1 c249 -1 393 -15393 -39 0 -6 -11 -49 -24 -96 -19 -70 -27 -85 -42 -83 -11 1 -64 7 -119 14-135 16 -363 6 -485 -21 -147 -32 -163 -34 -197 -17 -51 27 -58 60 -45 216 75858 639 1575 1447 1840 290 95 565 128 836 101z m-1463 -149 c15 -4 27 -10 27-13 0 -2 -56 -47 -123 -98 -189 -141 -380 -339 -512 -528 -24 -34 -47 -59 -52-54 -4 4 -13 42 -19 83 -50 339 241 649 584 622 38 -3 81 -8 95 -12z m2923-15 c133 -46 249 -148 313 -276 46 -92 59 -163 54 -280 -7 -145 -13 -148 -86-48 -86 120 -120 160 -235 276 -116 118 -220 208 -326 280 l-73 51 39 10 c9926 216 21 314 -13z m-1450 -237 c105 -10 238 -35 248 -45 11 -11 -101 -105-160 -135 -89 -45 -177 -62 -289 -56 -143 7 -260 58 -357 155 -44 43 -44 43108 66 182 27 295 31 450 15z m-741 -177 c205 -248 566 -330 879 -200 93 39211 128 274 207 48 60 49 60 79 48 l31 -13 1 -149 c1 -136 4 -157 29 -230 42-119 99 -209 191 -300 166 -163 347 -233 569 -221 l108 6 14 -33 c13 -31 13-33 -13 -51 -51 -36 -167 -163 -201 -219 -18 -31 -47 -96 -64 -144 -40 -115-49 -287 -22 -409 35 -160 131 -320 249 -415 64 -51 65 -52 53 -82 l-13 -30-149 -1 c-136 -2 -157 -4 -230 -29 -205 -72 -362 -208 -450 -391 -57 -120 -70-183 -70 -342 l1 -141 -74 -28 c-41 -15 -102 -35 -136 -45 l-63 -18 -6 167c-3 91 -13 207 -22 257 l-16 91 35 35 c28 28 36 44 36 72 0 88 -136 414 -248593 -235 379 -596 678 -1015 842 -218 85 -291 92 -325 30 -15 -26 -21 -29 -47-24 -96 19 -256 35 -367 35 -71 0 -128 1 -128 3 0 10 51 169 69 217 l21 56137 -1 c164 0 224 13 363 82 81 39 109 60 185 137 102 103 158 198 197 331 1967 23 103 22 217 l0 138 25 9 c14 5 29 9 32 8 3 -1 30 -30 59 -65z m-310 -109c-1 -251 -184 -479 -431 -538 -69 -16 -169 -20 -169 -7 0 12 57 99 109 167 6383 191 214 270 279 77 62 198 146 212 146 5 0 9 -21 9 -47z m1911 -44 c152-112 348 -323 438 -471 l23 -38 -49 0 c-298 1 -553 253 -553 546 l0 55 28 -15c16 -8 66 -43 113 -77z m1399 -1008 c209 -211 211 -551 6 -764 -52 -55 -132-114 -141 -105 -3 3 1 44 9 90 47 268 44 540 -10 851 l-7 38 39 -22 c22 -1368 -52 104 -88z m-726 -54 c26 -131 36 -317 26 -457 -10 -132 -38 -290 -50-290 -5 0 -30 24 -57 53 -147 161 -179 417 -78 617 29 58 112 160 129 160 9 019 -30 30 -83z m-2596 -141 c478 -184 876 -573 1068 -1043 24 -59 44 -115 44-124 0 -12 -42 -27 -182 -64 -101 -26 -186 -48 -191 -49 -4 -1 -22 36 -41 81-154 374 -458 671 -839 823 -32 12 -56 28 -54 34 2 6 25 93 52 194 26 100 50182 52 182 2 0 43 -15 91 -34z m2382 -1081 c0 -3 -23 -40 -50 -81 -80 -117-193 -246 -290 -330 -84 -73 -236 -183 -252 -184 -12 0 -10 102 3 162 22 10273 194 151 272 77 78 145 119 243 147 56 16 195 26 195 14z m498 -510 c3 -58-1 -125 -8 -158 -39 -189 -205 -362 -396 -411 -72 -19 -206 -21 -269 -5 l-4511 78 56 c219 156 428 367 577 584 50 71 57 62 63 -77z" />
    </g>
  </symbol>
  <!DOCTYPE svg PUBLIC "-//W3C//DTD SVG 20010904//EN" "http://www.w3.org/TR/2001/REC-SVG-20010904/DTD/svg10.dtd">
  <symbol id="017-fast-time" width="512.000000pt" height="512.000000pt" viewBox="0 0 512.000000 512.000000"
    preserveAspectRatio="xMidYMid meet">
    <g transform="translate(0.000000,512.000000) scale(0.100000,-0.100000)" fill="#000000" stroke="none">
      <path
        d="M2806 4649 c-327 -34 -676 -159 -939 -336 l-80 -53 -429 0 c-465 0-471 -1 -496 -55 -15 -33 -15 -57 0 -90 24 -53 41 -55 379 -55 l311 0 -76 -81c-41 -44 -103 -117 -136 -162 l-61 -82 -436 -5 -435 -5 -30 -34 c-26 -29 -30-39 -25 -75 4 -27 15 -49 32 -63 26 -23 27 -23 396 -23 245 0 369 -3 369 -100 -6 -15 -41 -34 -78 -18 -37 -48 -109 -67 -159 l-33 -93 -228 0 c-221 0 -228-1 -253 -23 -17 -14 -28 -36 -32 -63 -5 -36 -1 -46 25 -75 l30 -34 202 -3 202-3 -6 -37 c-5 -34 -20 -145 -32 -249 l-5 -43 -419 0 c-450 0 -460 -1 -486 -51-18 -35 -18 -63 0 -98 26 -50 36 -51 486 -51 l419 0 5 -42 c12 -105 27 -21632 -250 l7 -37 -403 -3 -402 -3 -30 -34 c-26 -29 -30 -39 -25 -75 4 -27 15-49 32 -63 l26 -23 427 0 427 0 34 -93 c93 -257 260 -525 445 -714 l60 -63-312 0 c-340 0 -356 -2 -380 -55 -15 -33 -15 -57 0 -90 25 -54 31 -55 496 -55l428 0 85 -55 c607 -400 1393 -454 2044 -141 438 211 761 527 980 957 251 493292 1063 115 1600 -174 529 -553 965 -1061 1220 -345 173 -759 249 -1143 208zm405 -199 c1051 -107 1818 -1062 1694 -2110 -51 -433 -235 -810 -544 -1121-727 -728 -1887 -746 -2642 -41 -485 453 -697 1141 -553 1791 210 940 10901577 2045 1481z" />
      <path
        d="M2830 4249 c-577 -66 -1079 -422 -1336 -944 -412 -841 -64 -1855 781-2270 650 -320 1430 -190 1946 325 572 571 661 1473 210 2145 -352 525 -976816 -1601 744z m485 -219 c599 -126 1047 -575 1176 -1180 19 -87 23 -136 23-290 0 -154 -4 -203 -23 -290 -129 -607 -574 -1052 -1181 -1181 -151 -33 -429-33 -580 0 -309 66 -563 204 -777 422 -98 101 -116 122 -180 219 -108 161-181 338 -224 540 -30 142 -33 407 -5 555 110 590 560 1063 1136 1194 148 34213 40 380 36 105 -3 187 -11 255 -25z" />
      <path
        d="M2971 3946 c-34 -19 -50 -54 -51 -108 0 -59 16 -96 51 -114 52 -27115 -8 137 41 7 14 12 46 12 70 0 57 -17 93 -51 111 -34 17 -67 17 -98 0z" />
      <path d="M2333 3775 c-68 -29 -79 -94 -30 -172 43 -68 111 -80 163 -28 30 3032 81 4 135 -32 63 -84 88 -137 65z" />
      <path
        d="M3633 3775 c-73 -32 -108 -151 -59 -200 52 -52 120 -40 163 28 50 7938 143 -32 173 -40 16 -32 17 -72 -1z" />
      <path
        d="M2971 3496 c-48 -27 -50 -41 -51 -356 l-1 -295 -51 -30 c-129 -75-181 -239 -120 -377 46 -104 140 -167 262 -176 l70 -5 91 -158 c49 -87 102-168 116 -179 36 -28 85 -26 122 6 55 46 46 81 -63 270 l-95 163 30 58 c76147 29 318 -109 398 l-51 30 -1 292 c0 204 -4 300 -12 318 -22 48 -88 68 -13741z m98 -850 c67 -35 65 -143 -4 -174 -51 -23 -107 -7 -131 39 -47 91 44 182135 135z" />
      <path
        d="M1841 3294 c-13 -9 -29 -32 -37 -50 -12 -29 -12 -39 0 -68 29 -69139 -109 193 -71 34 24 47 76 30 118 -28 65 -136 107 -186 71z" />
      <path d="M4080 3286 c-82 -43 -101 -116 -45 -172 51 -50 169 -14 201 62 12 2912 39 0 68 -28 68 -81 82 -156 42z" />
      <path
        d="M1671 2646 c-67 -37 -65 -143 4 -174 35 -16 110 -15 144 2 28 15 5153 51 86 0 33 -23 71 -51 86 -35 18 -116 18 -148 0z" />
      <path
        d="M4221 2646 c-67 -37 -65 -143 4 -174 35 -16 110 -15 144 2 28 15 5153 51 86 0 33 -23 71 -51 86 -35 18 -116 18 -148 0z" />
      <path
        d="M1857 2004 c-21 -14 -45 -41 -53 -60 -12 -29 -12 -39 0 -68 30 -7193 -83 174 -32 52 33 69 79 48 129 -8 20 -23 40 -34 46 -35 19 -94 12 -135-15z" />
      <path d="M4035 2006 c-52 -52 -40 -120 28 -163 80 -50 143 -38 173 33 12 2912 39 0 68 -32 76 -150 112 -201 62z" />
      <path
        d="M2345 1562 c-33 -21 -75 -95 -75 -133 0 -35 27 -69 67 -86 31 -12 38-12 71 4 63 31 101 129 72 184 -12 22 -60 49 -87 49 -10 0 -31 -8 -48 -18z" />
      <path
        d="M3598 1564 c-55 -29 -64 -99 -22 -165 34 -54 81 -75 128 -55 39 1666 51 66 85 0 38 -42 112 -75 133 -36 22 -61 22 -97 2z" />
      <path
        d="M2971 1396 c-34 -19 -50 -54 -51 -108 0 -59 16 -96 51 -114 52 -27115 -8 137 41 7 14 12 46 12 70 0 57 -17 93 -51 111 -34 17 -67 17 -98 0z" />
      <path
        d="M385 1567 c-17 -14 -28 -36 -32 -63 -5 -36 -1 -46 25 -75 l30 -34128 -3 c151 -4 188 1 220 33 18 18 24 35 24 69 0 37 -5 48 -31 70 -30 26 -3326 -184 26 -145 0 -155 -1 -180 -23z" />
    </g>
  </symbol>
  <!DOCTYPE svg PUBLIC "-//W3C//DTD SVG 20010904//EN" "http://www.w3.org/TR/2001/REC-SVG-20010904/DTD/svg10.dtd">
  <symbol id="019-snail" width="512.000000pt" height="512.000000pt" viewBox="0 0 512.000000 512.000000"
    preserveAspectRatio="xMidYMid meet">
    <g transform="translate(0.000000,512.000000) scale(0.100000,-0.100000)" fill="#000000" stroke="none">
      <path
        d="M3740 4861 c-138 -45 -222 -155 -222 -292 0 -118 62 -218 168 -27041 -20 64 -24 143 -24 l95 0 64 -75 c35 -41 81 -96 103 -121 l38 -46 -92 -46c-130 -65 -231 -155 -307 -275 l-28 -43 -41 48 c-66 75 -197 188 -301 258-522 349 -1183 387 -1740 99 -58 -30 -148 -85 -200 -122 -121 -86 -316 -280-402 -402 -72 -102 -181 -310 -221 -425 -37 -105 -74 -284 -87 -420 -31 -31853 -709 208 -971 l30 -52 -88 -37 c-423 -175 -749 -576 -835 -1026 -8 -45 -18-126 -21 -180 -8 -114 2 -148 49 -173 30 -16 172 -17 1937 -14 1900 4 1905 42000 25 367 82 660 273 872 569 105 147 185 330 231 529 20 87 21 121 25 10352 688 0 965 -8 1020 -43 276 -241 508 -508 596 l-81 27 94 110 94 111 98 1c82 0 105 4 140 23 66 35 110 79 140 140 23 47 28 70 28 132 0 91 -24 149 -85210 -61 61 -119 85 -210 85 -122 0 -215 -57 -271 -168 -30 -58 -36 -158 -14-217 9 -25 18 -52 18 -61 1 -9 -51 -80 -117 -157 l-118 -141 -124 144 -123145 21 47 c61 138 -4 307 -147 380 -53 28 -158 40 -205 24z m137 -213 c24 -2042 -70 36 -101 -8 -38 -57 -77 -99 -77 -49 0 -96 44 -97 92 -1 41 24 85 56 9827 12 84 5 104 -12z m1009 -12 c66 -66 24 -165 -69 -166 -99 0 -133 138 -46186 42 23 78 17 115 -20z m-2335 -576 c284 -29 553 -136 776 -309 90 -70 220-199 264 -261 l24 -35 -3 -847 -3 -848 -934 0 -935 0 -81 77 c-188 179 -294414 -306 675 -19 408 193 765 564 952 125 63 229 88 387 94 223 8 375 -32 537-140 210 -140 324 -330 336 -559 11 -204 -49 -362 -191 -504 -121 -121 -222-165 -376 -165 -149 0 -258 46 -366 154 -93 93 -118 153 -118 281 0 117 25183 100 264 68 74 133 104 224 105 79 0 147 -28 205 -83 73 -70 115 -78 167-32 67 59 32 147 -92 230 -222 148 -516 99 -679 -113 -282 -365 -83 -870 388-987 119 -30 282 -24 396 15 320 109 545 439 545 801 0 225 -81 428 -238 596-93 99 -181 166 -302 228 -165 85 -238 103 -430 109 -96 2 -196 0 -236 -7-527 -81 -940 -500 -1015 -1030 -17 -124 -7 -323 24 -442 46 -178 111 -314216 -453 l48 -63 -111 -7 c-61 -3 -129 -9 -151 -12 l-41 -6 -51 93 c-413 748-127 1680 637 2073 249 129 540 184 821 156z m1969 -217 c185 -50 345 -221385 -410 22 -102 22 -1813 0 -1956 -67 -443 -384 -822 -805 -962 -192 -64 -32-59 -2056 -62 l-1841 -3 9 67 c59 454 391 847 836 987 180 57 162 56 1480 56l1214 0 34 34 34 34 0 868 c0 957 -1 933 63 1063 20 42 57 92 102 137 147 150343 203 545 147z" />
      <path
        d="M4099 3431 c-23 -23 -29 -38 -29 -71 0 -39 6 -47 111 -155 117 -120163 -151 207 -140 33 8 256 226 272 266 26 62 -21 129 -91 129 -38 0 -47 -6-120 -77 l-79 -76 -80 76 c-73 70 -83 77 -121 77 -32 0 -47 -6 -70 -29z" />
    </g>
  </symbol>
</svg>