<?xml version="1.0" standalone="no"?>
<!DOCTYPE svg PUBLIC "-//W3C//DTD SVG 20010904//EN"
 "http://www.w3.org/TR/2001/REC-SVG-20010904/DTD/svg10.dtd">
<svg version="1.0" xmlns="http://www.w3.org/2000/svg"
 width="512.000000pt" height="512.000000pt" viewBox="0 0 512.000000 512.000000"
 preserveAspectRatio="xMidYMid meet">

<g transform="translate(0.000000,512.000000) scale(0.100000,-0.100000)"
fill="#000000" stroke="none">
<path d="M2212 5109 c-267 -41 -494 -228 -583 -479 l-27 -75 -93 -36 c-52 -20
-124 -50 -162 -67 l-67 -31 -61 30 c-146 72 -351 93 -512 50 -308 -81 -530
-347 -562 -672 -11 -118 29 -311 84 -405 l20 -33 -40 -86 c-122 -265 -200
-595 -203 -860 -1 -123 0 -133 27 -187 46 -94 135 -156 236 -165 40 -4 90 3
176 23 105 24 141 28 290 28 94 1 196 -3 228 -7 54 -8 57 -10 57 -38 0 -48 44
-83 140 -114 253 -81 496 -260 649 -475 67 -94 144 -250 178 -358 28 -91 63
-132 113 -132 28 0 29 -2 37 -67 16 -131 8 -359 -17 -468 -31 -142 -36 -226
-16 -280 40 -103 121 -174 223 -196 102 -21 414 17 628 77 113 31 292 97 369
136 l59 30 76 -35 c110 -50 199 -69 317 -69 372 1 693 286 744 662 18 131 -8
281 -70 413 l-30 64 39 84 c21 47 51 118 65 159 l27 75 67 23 c310 107 523
429 499 755 -8 112 -29 185 -84 297 -39 80 -60 109 -137 185 -94 93 -176 146
-289 184 l-52 18 -50 124 c-28 68 -59 139 -69 158 -18 33 -18 34 13 101 55
119 74 216 69 354 -9 212 -69 347 -223 501 -148 149 -306 216 -515 218 -124 1
-222 -19 -325 -67 l-70 -32 -120 52 c-66 28 -138 57 -161 64 -38 11 -42 16
-58 69 -71 230 -274 420 -513 482 -93 23 -234 32 -321 18z m253 -204 c82 -21
172 -68 232 -120 49 -43 131 -151 121 -160 -2 -3 -38 2 -79 9 -252 48 -620 44
-873 -10 l-28 -6 18 33 c32 57 155 172 220 207 114 59 267 78 389 47z m26
-445 c564 -56 1010 -258 1361 -616 163 -166 269 -317 373 -529 273 -558 301
-1224 75 -1803 -265 -680 -835 -1136 -1590 -1271 -168 -31 -335 -44 -362 -30
-62 31 -69 70 -39 201 47 197 52 436 16 631 l-6 32 91 24 c54 14 95 20 100 15
5 -5 17 -65 26 -134 13 -97 15 -166 10 -308 l-6 -183 29 -30 c22 -21 39 -29
66 -29 58 0 181 28 310 71 643 214 1150 788 1284 1454 93 462 -8 1015 -259
1415 -255 408 -664 704 -1135 824 -465 117 -951 73 -1360 -124 -515 -248 -870
-698 -1020 -1292 -35 -135 -35 -173 -1 -206 l26 -26 247 -1 c249 -1 393 -15
393 -39 0 -6 -11 -49 -24 -96 -19 -70 -27 -85 -42 -83 -11 1 -64 7 -119 14
-135 16 -363 6 -485 -21 -147 -32 -163 -34 -197 -17 -51 27 -58 60 -45 216 75
858 639 1575 1447 1840 290 95 565 128 836 101z m-1463 -149 c15 -4 27 -10 27
-13 0 -2 -56 -47 -123 -98 -189 -141 -380 -339 -512 -528 -24 -34 -47 -59 -52
-54 -4 4 -13 42 -19 83 -50 339 241 649 584 622 38 -3 81 -8 95 -12z m2923
-15 c133 -46 249 -148 313 -276 46 -92 59 -163 54 -280 -7 -145 -13 -148 -86
-48 -86 120 -120 160 -235 276 -116 118 -220 208 -326 280 l-73 51 39 10 c99
26 216 21 314 -13z m-1450 -237 c105 -10 238 -35 248 -45 11 -11 -101 -105
-160 -135 -89 -45 -177 -62 -289 -56 -143 7 -260 58 -357 155 -44 43 -44 43
108 66 182 27 295 31 450 15z m-741 -177 c205 -248 566 -330 879 -200 93 39
211 128 274 207 48 60 49 60 79 48 l31 -13 1 -149 c1 -136 4 -157 29 -230 42
-119 99 -209 191 -300 166 -163 347 -233 569 -221 l108 6 14 -33 c13 -31 13
-33 -13 -51 -51 -36 -167 -163 -201 -219 -18 -31 -47 -96 -64 -144 -40 -115
-49 -287 -22 -409 35 -160 131 -320 249 -415 64 -51 65 -52 53 -82 l-13 -30
-149 -1 c-136 -2 -157 -4 -230 -29 -205 -72 -362 -208 -450 -391 -57 -120 -70
-183 -70 -342 l1 -141 -74 -28 c-41 -15 -102 -35 -136 -45 l-63 -18 -6 167
c-3 91 -13 207 -22 257 l-16 91 35 35 c28 28 36 44 36 72 0 88 -136 414 -248
593 -235 379 -596 678 -1015 842 -218 85 -291 92 -325 30 -15 -26 -21 -29 -47
-24 -96 19 -256 35 -367 35 -71 0 -128 1 -128 3 0 10 51 169 69 217 l21 56
137 -1 c164 0 224 13 363 82 81 39 109 60 185 137 102 103 158 198 197 331 19
67 23 103 22 217 l0 138 25 9 c14 5 29 9 32 8 3 -1 30 -30 59 -65z m-310 -109
c-1 -251 -184 -479 -431 -538 -69 -16 -169 -20 -169 -7 0 12 57 99 109 167 63
83 191 214 270 279 77 62 198 146 212 146 5 0 9 -21 9 -47z m1911 -44 c152
-112 348 -323 438 -471 l23 -38 -49 0 c-298 1 -553 253 -553 546 l0 55 28 -15
c16 -8 66 -43 113 -77z m1399 -1008 c209 -211 211 -551 6 -764 -52 -55 -132
-114 -141 -105 -3 3 1 44 9 90 47 268 44 540 -10 851 l-7 38 39 -22 c22 -13
68 -52 104 -88z m-726 -54 c26 -131 36 -317 26 -457 -10 -132 -38 -290 -50
-290 -5 0 -30 24 -57 53 -147 161 -179 417 -78 617 29 58 112 160 129 160 9 0
19 -30 30 -83z m-2596 -141 c478 -184 876 -573 1068 -1043 24 -59 44 -115 44
-124 0 -12 -42 -27 -182 -64 -101 -26 -186 -48 -191 -49 -4 -1 -22 36 -41 81
-154 374 -458 671 -839 823 -32 12 -56 28 -54 34 2 6 25 93 52 194 26 100 50
182 52 182 2 0 43 -15 91 -34z m2382 -1081 c0 -3 -23 -40 -50 -81 -80 -117
-193 -246 -290 -330 -84 -73 -236 -183 -252 -184 -12 0 -10 102 3 162 22 102
73 194 151 272 77 78 145 119 243 147 56 16 195 26 195 14z m498 -510 c3 -58
-1 -125 -8 -158 -39 -189 -205 -362 -396 -411 -72 -19 -206 -21 -269 -5 l-45
11 78 56 c219 156 428 367 577 584 50 71 57 62 63 -77z"/>
</g>
</svg>
