<?xml version="1.0" standalone="no"?>
<!DOCTYPE svg PUBLIC "-//W3C//DTD SVG 20010904//EN"
 "http://www.w3.org/TR/2001/REC-SVG-20010904/DTD/svg10.dtd">
<svg version="1.0" xmlns="http://www.w3.org/2000/svg"
 width="512.000000pt" height="512.000000pt" viewBox="0 0 512.000000 512.000000"
 preserveAspectRatio="xMidYMid meet">

<g transform="translate(0.000000,512.000000) scale(0.100000,-0.100000)"
fill="#000000" stroke="none">
<path d="M3343 5106 c-188 -61 -283 -273 -200 -444 l22 -47 -96 -385 c-105
-415 -143 -537 -220 -700 -95 -199 -180 -311 -416 -550 l-212 -215 -88 87 -87
87 57 60 c44 46 57 66 57 91 0 69 -56 119 -117 106 -20 -5 -88 -66 -213 -191
-180 -180 -185 -186 -185 -226 0 -34 6 -46 33 -70 53 -48 94 -39 175 39 l47
47 88 -88 87 -87 -248 -247 -247 -248 -87 87 -87 87 57 60 c50 52 57 64 57
100 0 55 -32 90 -88 98 l-43 6 -192 -191 c-177 -176 -191 -193 -191 -226 0
-65 61 -116 121 -101 14 3 51 30 82 60 l57 54 87 -87 87 -87 -483 -483 -484
-484 -58 17 c-114 33 -235 2 -318 -83 -67 -69 -92 -129 -92 -227 0 -136 16
-160 288 -432 272 -272 296 -288 432 -288 67 0 89 4 136 28 145 71 218 231
174 382 l-17 58 137 136 136 136 42 -49 c105 -124 293 -236 462 -277 129 -31
296 -30 426 4 107 28 215 78 304 142 33 24 294 279 581 567 547 549 577 583
635 728 127 320 67 685 -154 926 l-59 64 57 25 c124 55 306 111 659 200 331
84 371 92 390 80 37 -24 146 -48 190 -41 122 19 213 83 263 184 24 49 28 69
28 142 -1 147 30 110 -773 912 -574 573 -717 711 -761 733 -66 33 -174 42
-238 21z m224 -264 c43 -39 362 -355 710 -704 556 -558 632 -637 638 -670 13
-70 -19 -128 -81 -148 -76 -26 -57 -43 -811 712 -766 767 -733 730 -699 811
21 50 69 79 123 74 36 -4 55 -16 120 -75z m856 -1514 c-10 -4 -128 -35 -263
-68 -388 -96 -582 -160 -755 -247 l-59 -30 -62 28 c-118 54 -207 73 -345 73
-82 1 -125 5 -121 11 3 6 27 39 53 75 106 147 200 340 272 560 19 58 64 224
101 370 37 146 72 283 77 304 l11 39 554 -554 c445 -445 551 -555 537 -561z
m-1358 -453 c39 -8 113 -36 165 -61 77 -38 110 -62 176 -129 68 -67 90 -98
127 -176 83 -172 97 -342 42 -515 -49 -157 -58 -167 -610 -722 -583 -586 -609
-608 -798 -658 -83 -22 -243 -22 -327 0 -152 39 -291 129 -380 244 -214 277
-195 645 47 902 l76 81 88 -87 88 -87 -60 -65 c-144 -158 -173 -337 -84 -519
43 -86 112 -153 205 -197 55 -26 80 -31 160 -34 108 -5 191 17 264 68 23 16
267 255 542 532 548 550 540 540 565 683 24 137 -25 278 -131 379 -177 169
-428 165 -618 -9 l-64 -58 -86 86 -87 87 55 56 c169 174 410 248 645 199z
m-755 -490 l85 -85 -248 -248 -247 -247 -87 88 -88 87 245 245 c135 135 247
245 250 245 3 0 44 -38 90 -85z m700 34 c117 -53 170 -165 135 -286 -16 -57
-24 -65 -508 -551 -337 -337 -505 -499 -534 -513 -29 -14 -62 -21 -103 -20
-142 0 -254 125 -235 261 9 62 29 96 88 158 l51 52 58 -57 c52 -51 63 -58 99
-58 34 0 46 6 70 33 48 53 41 91 -28 163 l-57 60 247 247 247 247 42 -41 c91
-86 129 -95 184 -40 54 54 46 95 -35 179 l-46 48 61 58 c33 31 76 62 95 68 54
17 120 14 169 -8z m-1898 -1110 c-5 -80 13 -204 45 -303 l25 -79 -148 -148
-149 -149 -127 127 -128 128 242 242 c134 134 243 243 243 243 0 0 -2 -28 -3
-61z m-739 -470 c31 -16 445 -429 463 -461 53 -100 -64 -217 -164 -164 -32 18
-445 432 -461 463 -47 93 69 209 162 162z"/>
</g>
</svg>
